<?xml version="1.0" standalone="no"?>
<!DOCTYPE svg PUBLIC "-//W3C//DTD SVG 1.1//EN" "http://www.w3.org/Graphics/SVG/1.1/DTD/svg11.dtd" >
<svg xmlns="http://www.w3.org/2000/svg" xmlns:xlink="http://www.w3.org/1999/xlink" version="1.1">
<metadata>
Created by FontForge 20161013 at Wed Dec 10 17:18:11 2014
 By ,,,
Copyright (c) 2014 ParaType, Inc., ParaType Ltd. All rights reserved.
</metadata>
<defs>
<font id="Stem-Thin" horiz-adv-x="580" >
  <font-face 
    font-family="Stem-Thin"
    font-weight="400"
    font-stretch="normal"
    units-per-em="1000"
    panose-1="2 11 3 3 2 2 3 2 2 4"
    ascent="779"
    descent="-221"
    x-height="520"
    cap-height="700"
    bbox="-527 -229 1177 892"
    underline-thickness="50"
    underline-position="-150"
    unicode-range="U+0020-FEFF"
  />
<missing-glyph horiz-adv-x="300" 
 />
    <glyph glyph-name="uniF350.var.accented" unicode="&#xf350;`" horiz-adv-x="558" 
d="M5 0l262 563h25l261 -563h-28l-82 176h-328l-82 -176h-28zM279 531l-153 -330h306zM386 762l-105 -142l-20 15l105 142z" />
    <glyph glyph-name="uniF355.var.accented" unicode="&#xf355;`" horiz-adv-x="538" 
d="M70 0v560h408v-25h-383v-238h359v-25h-359v-247h393v-25h-418zM372 762l-105 -142l-20 15l105 142z" />
    <glyph glyph-name="uniF358.var.accented" unicode="&#xf358;`" horiz-adv-x="620" 
d="M95 0h-25v560h25v-521l430 521h25v-560h-25v521zM403 762l-105 -142l-20 15l105 142z" />
    <glyph glyph-name="uniF35E.var.accented" unicode="&#xf35e;`" horiz-adv-x="668" 
d="M36 280q0 121 86 204t212 83q125 0 211 -81.5t86 -205.5q0 -123 -86 -205t-211 -82q-126 0 -212 81.5t-86 205.5zM61 280q0 -110 80 -186t193 -76q116 0 194 75.5t78 186.5q0 112 -79 187t-193 75t-193.5 -75t-79.5 -187zM427 762l-105 -142l-20 15l105 142z" />
    <glyph glyph-name="uniF363.var.accented" unicode="&#xf363;`" horiz-adv-x="551" 
d="M522 560h28l-234 -446q-34 -64 -60 -89t-57 -25q-37 0 -63 33l17 18q20 -26 45 -26q27 0 46.5 21.5t40.5 60.5l12 24l-297 429h31l279 -404zM368 762l-105 -142l-20 15l105 142z" />
    <glyph glyph-name="uniF36B.var.accented" unicode="&#xf36b;`" horiz-adv-x="700" 
d="M605 0v560h25v-560h-25zM70 0v560h25v-229h181q111 0 165.5 -43t54.5 -118q0 -170 -228 -170h-198zM276 306h-181v-281h175q201 0 201 145q0 136 -195 136zM443 762l-105 -142l-20 15l105 142z" />
    <glyph glyph-name="uniF36D.var.accented" unicode="&#xf36d;`" horiz-adv-x="583" 
d="M164 272v25h357q-6 116 -78.5 180.5t-189.5 64.5q-128 0 -217 -99l-18 17q42 50 106.5 78.5t128.5 28.5q134 0 213.5 -77.5t79.5 -207.5q0 -126 -80 -207.5t-221 -81.5q-65 0 -124 24.5t-99 69.5l17 18q35 -41 90.5 -64t116.5 -23q121 0 194.5 67.5t80.5 186.5h-357z
M354 762l-105 -142l-20 15l105 142z" />
    <glyph glyph-name="uniF36E.var.accented" unicode="&#xf36e;`" horiz-adv-x="833" 
d="M70 0v560h25v-258h140q5 115 83.5 190t196.5 75q122 0 201.5 -81t79.5 -206q0 -124 -79 -205.5t-202 -81.5t-200.5 81t-79.5 203h-140v-277h-25zM260 282q0 -113 71.5 -188.5t183.5 -75.5q114 0 185 74.5t71 187.5q0 114 -71.5 188t-184.5 74q-112 0 -183.5 -73
t-71.5 -187zM479 762l-105 -142l-20 15l105 142z" />
    <glyph glyph-name="uniF36F.var.accented" unicode="&#xf36f;`" horiz-adv-x="564" 
d="M469 0v228h-215l-210 -228h-34l211 229q-82 9 -128 51t-46 108q0 76 56 124t159 48h232v-560h-25zM238 251h231v284h-209q-94 0 -141 -40.5t-47 -106.5q0 -57 44.5 -95t121.5 -42zM355 762l-105 -142l-20 15l105 142z" />
    <glyph glyph-name="uniF371.var.accented" unicode="&#xf371;`" horiz-adv-x="538" 
d="M220 639l126 143l19 -16l-126 -144zM132 693q0 11 6.5 18.5t16.5 7.5t16.5 -7.5t6.5 -18.5t-6.5 -18.5t-16.5 -7.5t-16.5 7.5t-6.5 18.5zM388 693q0 11 6.5 18.5t16.5 7.5t16.5 -7.5t6.5 -18.5t-6.5 -18.5t-16.5 -7.5t-16.5 7.5t-6.5 18.5zM70 0v560h408v-25h-383v-238
h359v-25h-359v-247h393v-25h-418z" />
    <glyph glyph-name="afii10017.var.accented" unicode="&#x410;`" horiz-adv-x="656" 
d="M6 0l307 704h27l310 -704h-29l-100 228h-388l-99 -228h-28zM326 674l-181 -421h366zM303 789l159 90l12 -22l-159 -90z" />
    <glyph glyph-name="afii10022.var.accented" unicode="&#x415;`" horiz-adv-x="630" 
d="M84 0v700h480v-25h-453v-306h423v-25h-423v-319h463v-25h-490zM283 789l159 90l12 -22l-159 -90z" />
    <glyph glyph-name="afii10026.var.accented" unicode="&#x418;`" horiz-adv-x="731" 
d="M111 0h-27v700h27v-659l509 659h27v-700h-27v659zM311 789l159 90l12 -22l-159 -90z" />
    <glyph glyph-name="afii10032.var.accented" unicode="&#x41e;`" horiz-adv-x="785" 
d="M42 350q0 152 101 255.5t249 103.5t249 -102t101 -257q0 -153 -101.5 -256t-248.5 -103q-148 0 -249 102t-101 257zM69 350q0 -140 94.5 -237t228.5 -97q138 0 230.5 96.5t92.5 237.5t-94 237.5t-229 96.5t-229 -96.5t-94 -237.5zM337 789l159 90l12 -22l-159 -90z" />
    <glyph glyph-name="afii10037.var.accented" unicode="&#x423;`" horiz-adv-x="647" 
d="M205 6l11 23q12 -4 19 -4q30 0 56 33t61 105l-352 537h32l334 -508l252 508h29l-271 -545q-46 -93 -75 -124t-68 -31q-15 0 -28 6zM273 789l159 90l12 -22l-159 -90z" />
    <glyph glyph-name="afii10045.var.accented" unicode="&#x42b;`" horiz-adv-x="825" 
d="M714 0v700h27v-700h-27zM316 388h-205v-363h205q241 0 241 191q0 83 -62 127.5t-179 44.5zM111 700v-287h205q133 0 200.5 -51.5t67.5 -145.5q0 -216 -273 -216h-227v700h27zM358 789l159 90l12 -22l-159 -90z" />
    <glyph glyph-name="afii10047.var.accented" unicode="&#x42d;`" horiz-adv-x="684" 
d="M194 345v25h421q-8 146 -88 230t-222 84q-80 0 -150 -35t-112 -90l-20 16q50 65 127.5 99.5t154.5 34.5q157 0 247 -96t90 -260q0 -161 -91 -261.5t-255 -100.5q-78 0 -150.5 29.5t-118.5 87.5l18 18q94 -110 252 -110q143 0 226.5 84.5t91.5 244.5h-421zM253 789l159 90
l12 -22l-159 -90z" />
    <glyph glyph-name="afii10048.var.accented" unicode="&#x42e;`" horiz-adv-x="979" 
d="M84 0v700h27v-330h166q8 143 100 241t229 98q142 0 236 -101.5t94 -257.5q0 -155 -93.5 -257t-238.5 -102q-144 0 -233.5 99.5t-93.5 254.5h-166v-345h-27zM304 352q0 -149 83.5 -242.5t217.5 -93.5q135 0 219.5 95.5t84.5 238.5t-85.5 238.5t-216.5 95.5
q-130 0 -216.5 -95t-86.5 -237zM538 789l159 90l12 -22l-159 -90z" />
    <glyph glyph-name="afii10049.var.accented" unicode="&#x42f;`" horiz-adv-x="674" 
d="M563 0v286h-261l-247 -286h-33l249 289q-88 11 -146.5 64t-58.5 138q0 90 65.5 149.5t193.5 59.5h265v-700h-27zM563 675h-247q-111 0 -167 -53t-56 -131q0 -73 51 -121t145 -59h274v364zM336 789l159 90l12 -22l-159 -90z" />
    <glyph glyph-name="afii10023.var.accented" unicode="&#x401;`" horiz-adv-x="630" 
d="M263 747l129 145l19 -16l-129 -146zM175 797q0 9 7 15t17 6t17 -6t7 -15t-7 -15t-17 -6t-17 6t-7 15zM428 797q0 9 7 15t17 6t17 -6t7 -15t-7 -15t-17 -6t-17 6t-7 15zM84 0v700h480v-25h-453v-306h423v-25h-423v-319h463v-25h-490z" />
    <glyph glyph-name="afii10065.var.accented" unicode="&#x430;`" horiz-adv-x="528" 
d="M82 442l-15 18q34 34 85.5 53.5t97.5 19.5q215 0 215 -206v-327h-25v116q-69 -123 -213 -123q-90 0 -143.5 40t-53.5 107q0 80 56 117t176 37q103 0 178 -20v50q0 90 -45.5 137t-147.5 47q-90 0 -165 -66zM227 18q82 0 137 47t76 99v82q-75 23 -179 23q-105 0 -155.5 -31
t-50.5 -97q0 -58 48 -90.5t124 -32.5zM359 767l-109 -141l-20 15l109 141z" />
    <glyph glyph-name="afii10070.var.accented" unicode="&#x435;`" horiz-adv-x="570" 
d="M496 115l19 -14q-30 -54 -86.5 -83t-120.5 -29q-122 0 -195.5 73.5t-73.5 195.5q0 120 68.5 197.5t191.5 77.5q101 0 167 -64t66 -170q0 -24 -2 -40h-466q-3 -112 66 -178.5t181 -66.5q58 0 106.5 26t78.5 75zM292 508q-100 0 -160.5 -63.5t-66.5 -160.5h442
q2 102 -56 163t-159 61zM401 767l-109 -141l-20 15l109 141z" />
    <glyph glyph-name="afii10074.var.accented" unicode="&#x438;`" horiz-adv-x="608" 
d="M101 0h-25v520h25v-483l406 483h25v-520h-25v482zM404 767l-109 -141l-20 15l109 141z" />
    <glyph glyph-name="afii10080.var.accented" unicode="&#x43e;`" horiz-adv-x="618" 
d="M39 261q0 119 74.5 195.5t194.5 76.5t195.5 -76.5t75.5 -195.5t-75.5 -195.5t-195.5 -76.5t-194.5 76.5t-74.5 195.5zM64 261q0 -108 69 -177.5t175 -69.5q107 0 176.5 69.5t69.5 177.5q0 107 -70 177t-176 70t-175 -69.5t-69 -177.5zM409 767l-109 -141l-20 15l109 141z
" />
    <glyph glyph-name="afii10085.var.accented" unicode="&#x443;`" horiz-adv-x="524" 
d="M89 -202l7 25q18 -7 32 -7q42 0 74.5 35t72.5 136l6 15l-274 518h29l259 -490l199 490h27l-215 -529q-27 -65 -49.5 -106t-44 -61t-40 -26.5t-44.5 -6.5q-22 0 -39 7zM385 767l-109 -141l-20 15l109 141z" />
    <glyph glyph-name="afii10093.var.accented" unicode="&#x44b;`" horiz-adv-x="678" 
d="M577 0v520h25v-520h-25zM76 0v520h25v-186h150q108 0 157.5 -45.5t49.5 -119.5t-49 -121.5t-158 -47.5h-175zM247 309h-146v-284h149q183 0 183 144q0 140 -186 140zM410 767l-109 -141l-20 15l109 141z" />
    <glyph glyph-name="afii10095.var.accented" unicode="&#x44d;`" horiz-adv-x="534" 
d="M155 254v25h316q-2 102 -68.5 165.5t-166.5 63.5q-129 0 -203 -100l-19 17q82 108 222 108q114 0 187 -73.5t73 -196.5q0 -119 -70 -196.5t-189 -77.5q-141 0 -220 95l18 18q68 -88 203 -88q102 0 167.5 69.5t65.5 170.5h-316zM349 767l-109 -141l-20 15l109 141z" />
    <glyph glyph-name="afii10096.var.accented" unicode="&#x44e;`" horiz-adv-x="803" 
d="M76 0v520h25v-240h132q8 109 84.5 181t184.5 72q116 0 189 -75.5t73 -194.5q0 -118 -75.5 -196t-188.5 -78t-188 75.5t-79 190.5h-132v-255h-25zM258 261q0 -106 71 -176.5t172 -70.5q100 0 169 71t69 178q0 106 -67 175.5t-169 69.5t-173.5 -71t-71.5 -176zM487 767
l-109 -141l-20 15l109 141z" />
    <glyph glyph-name="afii10097.var.accented" unicode="&#x44f;`" horiz-adv-x="535" 
d="M249 520h209v-520h-25v211h-184l-201 -211h-34l203 213q-72 4 -120.5 42.5t-48.5 108.5q0 69 48.5 112.5t152.5 43.5zM73 364q0 -64 47.5 -96t128.5 -32h184v259h-184q-90 0 -133 -35t-43 -96zM419 767l-109 -141l-20 15l109 141z" />
    <glyph glyph-name="afii10071.var.accented" unicode="&#x451;`" horiz-adv-x="570" 
d="M228 649l126 143l19 -16l-126 -144zM141 703q0 11 6.5 18.5t16.5 7.5t17 -7.5t7 -18.5t-7 -18.5t-17 -7.5t-16.5 7.5t-6.5 18.5zM396 703q0 11 6.5 18.5t16.5 7.5t17 -7.5t7 -18.5t-7 -18.5t-17 -7.5t-16.5 7.5t-6.5 18.5zM496 115l19 -14q-30 -54 -86.5 -83t-120.5 -29
q-122 0 -195.5 73.5t-73.5 195.5q0 120 68.5 197.5t191.5 77.5q101 0 167 -64t66 -170q0 -24 -2 -40h-466q-3 -112 66 -178.5t181 -66.5q58 0 106.5 26t78.5 75zM292 508q-100 0 -160.5 -63.5t-66.5 -160.5h442q2 102 -56 163t-159 61z" />
    <glyph glyph-name="fi" unicode="fi" horiz-adv-x="538" 
d="M-1 495v25h119v37q0 181 158 181q37 0 70 -19l-12 -22q-25 16 -58 16q-62 0 -97.5 -33.5t-35.5 -125.5v-34h191v-25h-191v-495h-25v495h-119zM422 0v520h25v-520h-25zM409 698q0 11 7.5 19.5t17.5 8.5t18 -8.5t8 -19.5t-8 -19.5t-18 -8.5t-17.5 8.5t-7.5 19.5z" />
    <glyph glyph-name="fl" unicode="fl" horiz-adv-x="477" 
d="M-1 495v25h119v38q0 95 45 137.5t111 42.5q59 0 98 -36l25 28v-730h-25v666q-37 47 -99 47q-58 0 -94 -36.5t-36 -118.5v-38h146v-25h-146v-495h-25v495h-119z" />
    <glyph glyph-name=".notdef" horiz-adv-x="300" 
 />
    <glyph glyph-name=".null" horiz-adv-x="0" 
 />
    <glyph glyph-name="nonmarkingreturn" horiz-adv-x="333" 
 />
    <glyph glyph-name="space" unicode=" " horiz-adv-x="300" 
 />
    <glyph glyph-name="exclam" unicode="!" horiz-adv-x="310" 
d="M141 189v511h27v-511h-27zM124 28q0 13 8 22t20 9t20.5 -9t8.5 -22t-8.5 -21.5t-20.5 -8.5t-20 8.5t-8 21.5z" />
    <glyph glyph-name="quotedbl" unicode="&#x22;" horiz-adv-x="385" 
d="M110 509v191h25v-191h-25zM250 509v191h25v-191h-25z" />
    <glyph glyph-name="numbersign" unicode="#" horiz-adv-x="678" 
d="M40 460v25h204l82 222l24 -8l-80 -214h240l82 222l24 -8l-80 -214h103v-25h-112l-82 -221h194v-25h-203l-82 -221l-23 9l78 212h-239l-82 -221l-23 9l78 212h-103v25h113l81 221h-194zM261 460l-82 -221h240l81 221h-239z" />
    <glyph glyph-name="dollar" unicode="$" horiz-adv-x="600" 
d="M524 178q0 47 -26 79t-68 48t-92.5 27t-101 23.5t-92.5 30.5t-68 54.5t-26 89.5q0 76 64 125.5t169 53.5v84h27v-84q145 -3 222 -83l-16 -19q-44 39 -93.5 58t-123.5 19q-52 0 -99 -13t-85 -49t-38 -91q0 -48 26 -80.5t68 -48.5t92.5 -27t101 -23t92.5 -30t68 -53.5
t26 -88.5q0 -83 -68 -135.5t-173 -53.5v-94h-27v95q-80 5 -146 39.5t-100 84.5l20 17q35 -49 100 -83t155 -34q82 0 147 44.5t65 117.5z" />
    <glyph glyph-name="percent" unicode="%" horiz-adv-x="824" 
d="M56 547q0 65 48 110.5t115 45.5t115 -45.5t48 -110.5t-48 -110.5t-115 -45.5t-115 45.5t-48 110.5zM83 547q0 -54 39.5 -92.5t96.5 -38.5t96.5 38.5t39.5 92.5t-39.5 92.5t-96.5 38.5t-96.5 -38.5t-39.5 -92.5zM143 10l521 701l20 -15l-520 -700zM442 152q0 65 48 110.5
t115 45.5t115 -45.5t48 -110.5t-48 -110.5t-115 -45.5t-115 45.5t-48 110.5zM469 152q0 -54 39.5 -92.5t96.5 -38.5t96.5 38.5t39.5 92.5t-39.5 92.5t-96.5 38.5t-96.5 -38.5t-39.5 -92.5z" />
    <glyph glyph-name="ampersand" unicode="&#x26;" horiz-adv-x="783" 
d="M734 0h-40q-39 28 -116 101q-92 -110 -242 -110q-106 0 -174.5 55.5t-68.5 143.5q0 21 6 41.5t13.5 36.5t23.5 34t27 29t34 28t34 24.5t37.5 25t34.5 22.5q-22 31 -34.5 51.5t-24.5 53t-12 62.5q0 51 35 81t80 30q49 0 81.5 -29t32.5 -81q0 -84 -124 -175
q63 -89 108 -142.5t129 -141.5q45 66 62 146q17 83 16 151h25q-2 -93 -17 -157q-21 -92 -67 -158q19 -22 67.5 -64t73.5 -58zM339 16q137 0 221 103q-138 138 -244 291q-4 -3 -33 -21t-44 -28t-41.5 -32.5t-41 -41t-26.5 -45t-12 -52.5q0 -75 61.5 -124.5t159.5 -49.5z
M257 598q0 -61 67 -154q43 25 77.5 70t34.5 85q0 38 -23 61.5t-66 23.5q-39 0 -64.5 -22t-25.5 -64z" />
    <glyph glyph-name="quotesingle" unicode="'" horiz-adv-x="245" 
d="M109 509v191h27v-191h-27z" />
    <glyph glyph-name="parenleft" unicode="(" horiz-adv-x="263" 
d="M255 -189l-16 -19q-103 93 -149.5 214t-46.5 246q0 124 46.5 245t149.5 214l16 -18q-185 -171 -185 -441q0 -267 185 -441z" />
    <glyph glyph-name="parenright" unicode=")" horiz-adv-x="263" 
d="M24 -208l-16 19q185 171 185 441t-185 441l16 18q103 -93 149.5 -214t46.5 -245q0 -125 -46.5 -246t-149.5 -214z" />
    <glyph glyph-name="asterisk" unicode="*" horiz-adv-x="503" 
d="M264 700v-162l145 54l9 -23l-144 -54l90 -128l-21 -14l-92 131l-91 -131l-21 14l90 128l-144 54l9 23l145 -54v162h25z" />
    <glyph glyph-name="plus" unicode="+" horiz-adv-x="584" 
d="M75 347v25h205v206h25v-206h205v-25h-205v-206h-25v206h-205z" />
    <glyph glyph-name="comma" unicode="," horiz-adv-x="198" 
d="M114 6q-2 -15 -18 -15q-24 0 -24 28q0 11 8 19.5t24 8.5q19 0 34 -21.5t15 -59.5q0 -45 -25.5 -73.5t-54.5 -41.5l-11 20q11 4 24 13.5t27.5 31.5t14.5 47q0 34 -14 43z" />
    <glyph glyph-name="hyphen" unicode="-" horiz-adv-x="394" 
d="M92 256v25h209v-25h-209z" />
    <glyph glyph-name="period" unicode="." horiz-adv-x="177" 
d="M60 28q0 13 8 22t20 9t20.5 -9t8.5 -22t-8.5 -21.5t-20.5 -8.5t-20 8.5t-8 21.5z" />
    <glyph glyph-name="slash" unicode="/" horiz-adv-x="299" 
d="M330 696l-337 -908l-22 9l335 909z" />
    <glyph glyph-name="zero" unicode="0" horiz-adv-x="661" 
d="M55 350q0 162 70 260.5t204 98.5q135 0 206 -98.5t71 -260.5t-70 -260t-205 -98q-134 0 -205 98.5t-71 259.5zM82 350q0 -154 64 -243.5t185 -89.5t184.5 89t63.5 244q0 154 -64.5 244t-185.5 90t-184 -90t-63 -244z" />
    <glyph glyph-name="one" unicode="1" horiz-adv-x="413" 
d="M6 589l240 118h25v-707h-25v679l-229 -113z" />
    <glyph glyph-name="two" unicode="2" horiz-adv-x="575" 
d="M72 521l-23 6q13 71 75 126.5t157 55.5q103 0 164.5 -55.5t61.5 -151.5q0 -57 -32 -118t-79 -110.5t-112 -100t-118.5 -84t-110.5 -64.5h486v-25h-530v25q161 96 229 146q239 178 240 333q0 83 -52 131.5t-146 48.5q-92 0 -143 -49t-67 -114z" />
    <glyph glyph-name="three" unicode="3" 
d="M74 563l-21 12q24 50 84 92t144 42q103 0 167.5 -47.5t64.5 -133.5q0 -66 -42 -109.5t-114 -58.5q42 -3 80 -19.5t68 -55.5t30 -93q0 -95 -68 -148t-180 -53q-92 0 -161 41.5t-102 117.5l22 12q74 -146 241 -146q102 0 161.5 47.5t59.5 129.5q0 42 -23 73.5t-59 48
t-72.5 24t-71.5 7.5h-94v25h92q89 0 147.5 42.5t58.5 115.5q0 75 -57 115t-156 40q-65 0 -116.5 -32.5t-82.5 -88.5z" />
    <glyph glyph-name="four" unicode="4" horiz-adv-x="642" 
d="M459 0v164h-438v25l438 511h25v-511h142v-25h-142v-164h-25zM54 189h405v472z" />
    <glyph glyph-name="five" unicode="5" horiz-adv-x="581" 
d="M86 368l39 332h386v-25h-365l-30 -273q73 26 147 26q134 0 203 -56.5t69 -157.5q0 -102 -68 -162.5t-180 -60.5q-169 0 -241 126l20 16q74 -117 221 -117q100 0 160.5 55.5t60.5 142.5q0 94 -65 141.5t-180 47.5q-92 0 -177 -35z" />
    <glyph glyph-name="six" unicode="6" horiz-adv-x="632" 
d="M55 337q0 178 84.5 275t217.5 97q128 0 186 -77l-16 -17q-53 69 -173 69q-118 0 -196 -90t-78 -243q0 -15 2 -42q40 72 106 114.5t150 42.5q119 0 187.5 -62t68.5 -175q0 -102 -74 -170t-188 -68q-120 0 -198.5 88.5t-78.5 257.5zM86 267q7 -101 72.5 -176t173.5 -75
q107 0 171 60.5t64 152.5q0 104 -63 158.5t-165 54.5q-87 0 -157.5 -53t-95.5 -122z" />
    <glyph glyph-name="seven" unicode="7" horiz-adv-x="509" 
d="M-1 675v25h501v-20l-353 -680h-28l351 675h-471z" />
    <glyph glyph-name="eight" unicode="8" horiz-adv-x="642" 
d="M305 372h33q72 0 139.5 46t67.5 110q0 74 -59.5 115t-165.5 41q-107 0 -165 -42.5t-58 -116.5q0 -65 67.5 -109t140.5 -44zM343 347h-41q-82 0 -156 -48.5t-74 -122.5q0 -70 73 -115t176 -45q106 0 177.5 45t71.5 119q0 49 -35.5 88.5t-86.5 59t-105 19.5zM322 -9
q-118 0 -197.5 50t-79.5 135q0 70 60.5 121.5t132.5 62.5q-75 18 -121.5 63.5t-46.5 103.5q0 82 66.5 132t184.5 50q119 0 185 -48.5t66 -130.5q0 -62 -51.5 -108t-119.5 -61q82 -11 139 -60.5t57 -120.5q0 -87 -78.5 -138t-196.5 -51z" />
    <glyph glyph-name="nine" unicode="9" horiz-adv-x="635" 
d="M580 389q0 -194 -78 -296t-207 -102q-71 0 -129.5 27.5t-76.5 59.5l18 14q72 -76 188 -76q49 0 92.5 19t82 59t61 115t22.5 176q-36 -67 -108.5 -104t-148.5 -37q-123 0 -190.5 65t-67.5 161q0 99 74 169t177 70q140 0 215.5 -90.5t75.5 -229.5zM548 427
q-4 109 -71.5 183t-186.5 74q-94 0 -159.5 -62t-65.5 -153t63 -145.5t170 -54.5q82 0 155 47.5t95 110.5z" />
    <glyph glyph-name="colon" unicode=":" horiz-adv-x="330" 
d="M136 28q0 13 8 22t20 9t20.5 -9t8.5 -22t-8.5 -21.5t-20.5 -8.5t-20 8.5t-8 21.5zM135 490q0 13 8 22t20 9t20.5 -9t8.5 -22t-8.5 -21.5t-20.5 -8.5t-20 8.5t-8 21.5z" />
    <glyph glyph-name="semicolon" unicode=";" horiz-adv-x="334" 
d="M180 6q-2 -15 -18 -15q-24 0 -24 28q0 11 8 19.5t24 8.5q19 0 34 -21.5t15 -59.5q0 -45 -25.5 -73.5t-54.5 -41.5l-11 20q11 4 24 13.5t27.5 31.5t14.5 47q0 34 -14 43zM135 490q0 13 8 22t20 9t20.5 -9t8.5 -22t-8.5 -21.5t-20.5 -8.5t-20 8.5t-8 21.5z" />
    <glyph glyph-name="less" unicode="&#x3c;" horiz-adv-x="600" 
d="M482 103l-400 250v16l400 250v-29l-366 -229l366 -229v-29z" />
    <glyph glyph-name="equal" unicode="=" horiz-adv-x="600" 
d="M79 430v25h442v-25h-442zM79 264v25h442v-25h-442z" />
    <glyph glyph-name="greater" unicode="&#x3e;" horiz-adv-x="600" 
d="M517 353l-400 -250v29l366 229l-366 229v29l400 -250v-16z" />
    <glyph glyph-name="question" unicode="?" horiz-adv-x="556" 
d="M281 187h-25q-4 20 -4 40q0 42 25.5 73t62 51.5t73.5 41.5t62.5 55.5t25.5 81.5q0 71 -56 112.5t-148 41.5q-77 0 -132 -38.5t-85 -96.5l-20 11q27 61 91 105t147 44q111 0 169.5 -49.5t58.5 -127.5q0 -45 -18.5 -80t-46 -55t-60 -40t-60 -35t-46 -39.5t-18.5 -55.5
q0 -17 4 -40zM245 28q0 13 8 22t20 9t20.5 -9t8.5 -22t-8.5 -21.5t-20.5 -8.5t-20 8.5t-8 21.5z" />
    <glyph glyph-name="at" unicode="@" horiz-adv-x="1032" 
d="M681 0v60q-28 -31 -73.5 -50t-92.5 -19q-103 0 -163 62.5t-60 168.5q0 96 71.5 162.5t174.5 66.5q94 0 168 -44v-382q103 1 162 72t59 184q0 158 -111.5 256t-289.5 98q-182 0 -301.5 -118.5t-119.5 -295.5q0 -175 120.5 -294.5t300.5 -119.5q42 0 99 11l3 -25
q-53 -11 -102 -11q-191 0 -318.5 126.5t-127.5 312.5q0 182 127 310.5t319 128.5q184 0 305 -103t121 -276q0 -124 -67.5 -202.5t-185.5 -78.5h-18zM517 16q48 0 93 22.5t71 53.5v296q-63 38 -146 38q-92 0 -155 -60t-63 -145q0 -94 55 -149.5t145 -55.5z" />
    <glyph glyph-name="A" unicode="A" horiz-adv-x="656" 
d="M6 0l307 704h27l310 -704h-29l-100 228h-388l-99 -228h-28zM326 674l-181 -421h366z" />
    <glyph glyph-name="B" unicode="B" horiz-adv-x="658" 
d="M84 0v700h265q238 0 238 -169q0 -64 -34.5 -108.5t-101.5 -60.5q73 -4 118 -50.5t45 -119.5q0 -192 -262 -192h-268zM359 346h-248v-321h238q238 0 238 168q0 153 -228 153zM347 675h-236v-304h251q89 0 143.5 42t54.5 115q0 74 -49.5 110.5t-163.5 36.5z" />
    <glyph glyph-name="C" unicode="C" horiz-adv-x="681" 
d="M637 112l15 -16q-35 -46 -98.5 -75.5t-148.5 -29.5q-167 0 -265 97.5t-98 261.5q0 155 93.5 257t252.5 102q87 0 152.5 -30t103.5 -74l-14 -17q-54 48 -107.5 72t-137.5 24q-148 0 -232 -93.5t-84 -240.5q0 -152 89.5 -243t246.5 -91q143 0 232 96z" />
    <glyph glyph-name="D" unicode="D" horiz-adv-x="705" 
d="M84 0v700h209q98 0 171 -27t115 -75t62.5 -107.5t20.5 -130.5q0 -158 -96 -259t-279 -101h-203zM291 675h-180v-650h175q174 0 261.5 93t87.5 242q0 141 -84 228t-260 87z" />
    <glyph glyph-name="E" unicode="E" horiz-adv-x="630" 
d="M84 0v700h480v-25h-453v-306h423v-25h-423v-319h463v-25h-490z" />
    <glyph glyph-name="F" unicode="F" horiz-adv-x="595" 
d="M84 0v700h475v-25h-448v-327h416v-25h-416v-323h-27z" />
    <glyph glyph-name="G" unicode="G" horiz-adv-x="700" 
d="M422 299v25h235v-239q-112 -94 -258 -94q-156 0 -256.5 99.5t-100.5 259.5q0 150 103 254.5t249 104.5q160 0 246 -89l-13 -20q-86 84 -227 84q-143 0 -237 -95.5t-94 -238.5q0 -149 92.5 -241.5t239.5 -92.5q138 0 230 82v201h-209z" />
    <glyph glyph-name="H" unicode="H" horiz-adv-x="744" 
d="M633 0v346h-522v-346h-27v700h27v-329h522v329h27v-700h-27z" />
    <glyph glyph-name="I" unicode="I" horiz-adv-x="217" 
d="M95 0v700h27v-700h-27z" />
    <glyph glyph-name="J" unicode="J" horiz-adv-x="475" 
d="M400 700v-470q0 -121 -53.5 -180t-148.5 -59q-134 0 -194 120l21 16q55 -111 174 -111q79 0 126.5 53t47.5 161v470h27z" />
    <glyph glyph-name="K" unicode="K" horiz-adv-x="623" 
d="M84 0v700h27v-396l436 396h40l-358 -325l387 -375h-39l-368 356l-98 -89v-267h-27z" />
    <glyph glyph-name="L" unicode="L" horiz-adv-x="572" 
d="M84 0v700h27v-675h451v-25h-478z" />
    <glyph glyph-name="M" unicode="M" horiz-adv-x="824" 
d="M84 0v700h27l301 -437l301 437h27v-700h-27v653l-301 -433l-301 433v-653h-27z" />
    <glyph glyph-name="N" unicode="N" horiz-adv-x="734" 
d="M650 0h-27l-512 658v-658h-27v700h27l512 -658v658h27v-700z" />
    <glyph glyph-name="O" unicode="O" horiz-adv-x="785" 
d="M42 350q0 152 101 255.5t249 103.5t249 -102t101 -257q0 -153 -101.5 -256t-248.5 -103q-148 0 -249 102t-101 257zM69 350q0 -140 94.5 -237t228.5 -97q138 0 230.5 96.5t92.5 237.5t-94 237.5t-229 96.5t-229 -96.5t-94 -237.5z" />
    <glyph glyph-name="P" unicode="P" horiz-adv-x="666" 
d="M111 0h-27v700h262q83 0 140 -16.5t85.5 -46.5t40 -63t11.5 -74q0 -89 -66.5 -147t-211.5 -58h-234v-295zM351 675h-240v-355h232q128 0 190.5 49t62.5 132q0 174 -245 174z" />
    <glyph glyph-name="Q" unicode="Q" horiz-adv-x="785" 
d="M677 -43l-82 96q-87 -62 -203 -62q-146 0 -248 102t-102 257q0 152 101 255.5t249 103.5t249 -102t101 -257q0 -70 -32 -148.5t-96 -133.5l81 -94zM69 350q0 -140 95.5 -237t227.5 -97q103 0 185 58l-68 80l19 16l68 -81q56 48 87.5 116t31.5 145q0 141 -95 237.5
t-228 96.5t-228 -96.5t-95 -237.5z" />
    <glyph glyph-name="R" unicode="R" horiz-adv-x="668" 
d="M111 0h-27v700h253q258 0 258 -192q0 -80 -58 -131.5t-146 -61.5l252 -315h-33l-247 309h-252v-309zM337 675h-226v-341h227q101 0 165.5 48.5t64.5 125.5q0 167 -231 167z" />
    <glyph glyph-name="S" unicode="S" horiz-adv-x="616" 
d="M532 178q0 47 -26 79t-68 48t-92.5 27t-101 23.5t-92.5 30.5t-68 54.5t-26 89.5q0 79 68.5 129t180.5 50q153 0 233 -83l-16 -19q-44 39 -93.5 58t-123.5 19q-52 0 -99 -13t-85 -49t-38 -91q0 -48 26 -80.5t68 -48.5t92.5 -27t101 -23t92.5 -30t68 -53.5t26 -88.5
q0 -83 -69 -136t-174 -53q-88 0 -160.5 35.5t-110.5 89.5l20 17q35 -49 100 -83t155 -34q82 0 147 44.5t65 117.5z" />
    <glyph glyph-name="T" unicode="T" horiz-adv-x="563" 
d="M5 675v25h553v-25h-263v-675h-27v675h-263z" />
    <glyph glyph-name="U" unicode="U" horiz-adv-x="713" 
d="M72 291v409h25v-400q0 -134 70 -208.5t190 -74.5t189.5 74.5t69.5 208.5v400h25v-409q0 -77 -24.5 -136t-65.5 -93.5t-90 -52t-104 -17.5t-104 17.5t-90.5 52t-66 93.5t-24.5 136z" />
    <glyph glyph-name="V" unicode="V" horiz-adv-x="699" 
d="M696 700l-335 -700h-25l-334 700h27l320 -668l319 668h28z" />
    <glyph glyph-name="W" unicode="W" horiz-adv-x="957" 
d="M952 700l-219 -700h-25l-230 663l-230 -663h-25l-218 700h27l205 -660l228 660h27l229 -660l204 660h27z" />
    <glyph glyph-name="X" unicode="X" horiz-adv-x="613" 
d="M547 700h31l-256 -343l266 -357h-31l-250 336l-251 -336h-31l266 357l-255 343h31l240 -322z" />
    <glyph glyph-name="Y" unicode="Y" horiz-adv-x="585" 
d="M585 700l-280 -442v-258h-27v258l-278 442h33l259 -415l261 415h32z" />
    <glyph glyph-name="Z" unicode="Z" horiz-adv-x="626" 
d="M36 675v25h560v-23l-545 -652h555v-25h-590v22l546 653h-526z" />
    <glyph glyph-name="bracketleft" unicode="[" horiz-adv-x="274" 
d="M60 -206v916h209v-25h-184v-866h184v-25h-209z" />
    <glyph glyph-name="backslash" unicode="\" horiz-adv-x="299" 
d="M309 -212l-340 908l24 10l338 -909z" />
    <glyph glyph-name="bracketright" unicode="]" horiz-adv-x="274" 
d="M214 710v-916h-209v25h184v866h-184v25h209z" />
    <glyph glyph-name="asciicircum" unicode="^" horiz-adv-x="465" 
d="M59 464l158 245h32l158 -245h-29l-145 223l-145 -223h-29z" />
    <glyph glyph-name="underscore" unicode="_" horiz-adv-x="267" 
d="M0 -206v27h267v-27h-267z" />
    <glyph glyph-name="grave" unicode="`" horiz-adv-x="376" 
d="M271 781l105 -141l-20 -15l-105 141z" />
    <glyph glyph-name="a" unicode="a" horiz-adv-x="528" 
d="M82 442l-15 18q34 34 85.5 53.5t97.5 19.5q215 0 215 -206v-327h-25v116q-69 -123 -213 -123q-90 0 -143.5 40t-53.5 107q0 80 56 117t176 37q103 0 178 -20v50q0 90 -45.5 137t-147.5 47q-90 0 -165 -66zM227 18q82 0 137 47t76 99v82q-75 23 -179 23q-105 0 -155.5 -31
t-50.5 -97q0 -58 48 -90.5t124 -32.5z" />
    <glyph glyph-name="b" unicode="b" horiz-adv-x="595" 
d="M76 85v645h25v-322q33 59 92 92t124 33q108 0 174 -73.5t66 -189.5q0 -130 -70 -205.5t-193 -75.5q-67 0 -126.5 28.5t-91.5 67.5zM319 508q-74 0 -130 -40t-88 -102v-266q75 -86 196 -86q109 0 172 67.5t63 182.5q0 110 -60.5 177t-152.5 67z" />
    <glyph glyph-name="c" unicode="c" horiz-adv-x="530" 
d="M489 96l17 -14q-24 -43 -81 -68t-112 -25q-123 0 -198.5 74.5t-75.5 197.5q0 118 70.5 195t191.5 77q62 0 114 -21.5t79 -60.5l-20 -15q-54 72 -178 72q-102 0 -167 -67.5t-65 -179.5q0 -114 69 -180.5t180 -66.5q109 0 176 82z" />
    <glyph glyph-name="d" unicode="d" horiz-adv-x="598" 
d="M497 0v105q-16 -37 -70.5 -75.5t-129.5 -38.5q-119 0 -188.5 74t-69.5 196q0 118 81.5 195t190.5 77q57 0 106.5 -23t79.5 -62v282h25v-730h-25zM297 16q42 0 78 14t59.5 37t38.5 44t24 42v252q-29 50 -78.5 76.5t-108.5 26.5q-98 0 -172 -70t-74 -177
q0 -112 64.5 -178.5t168.5 -66.5z" />
    <glyph glyph-name="e" unicode="e" horiz-adv-x="570" 
d="M496 115l19 -14q-30 -54 -86.5 -83t-120.5 -29q-122 0 -195.5 73.5t-73.5 195.5q0 120 68.5 197.5t191.5 77.5q101 0 167 -64t66 -170q0 -24 -2 -40h-466q-3 -112 66 -178.5t181 -66.5q58 0 106.5 26t78.5 75zM292 508q-100 0 -160.5 -63.5t-66.5 -160.5h442
q2 102 -56 163t-159 61z" />
    <glyph glyph-name="f" unicode="f" horiz-adv-x="329" 
d="M-1 495v25h119v38q0 98 44.5 139t111.5 41q39 0 71 -17t48 -44l-17 -16q-36 52 -103 52q-130 0 -130 -155v-38h191v-25h-191v-495h-25v495h-119z" />
    <glyph glyph-name="g" unicode="g" horiz-adv-x="603" 
d="M526 520v-493q0 -65 -19.5 -112.5t-53 -73.5t-72 -38t-83.5 -12q-75 0 -129.5 28.5t-78.5 70.5l19 14q40 -44 66 -59q50 -29 123 -29q93 0 148 55t55 156v78q-22 -44 -74.5 -80t-128.5 -36q-119 0 -189 76t-70 196q0 117 77.5 194.5t190.5 77.5q64 0 119 -29.5t75 -63.5
v80h25zM299 14q72 0 123.5 38.5t78.5 99.5v245q-25 49 -76.5 80t-118.5 31q-101 0 -171.5 -66.5t-70.5 -180.5q0 -113 64 -180t171 -67z" />
    <glyph glyph-name="h" unicode="h" horiz-adv-x="596" 
d="M76 0v730h25v-322q31 56 88 90.5t123 34.5q96 0 158.5 -59.5t62.5 -175.5v-298h-25v290q0 105 -52 161.5t-143 56.5q-76 0 -128.5 -42t-83.5 -101v-365h-25z" />
    <glyph glyph-name="i" unicode="i" horiz-adv-x="207" 
d="M91 0v520h25v-520h-25zM78 698q0 11 7.5 19.5t17.5 8.5t18 -8.5t8 -19.5t-8 -19.5t-18 -8.5t-17.5 8.5t-7.5 19.5z" />
    <glyph glyph-name="j" unicode="j" horiz-adv-x="204" 
d="M116 520v-529q0 -200 -140 -200q-68 0 -108 45l15 21l6.5 -6.5t9.5 -8.5t12.5 -9t17 -9t21.5 -5.5t27 -2.5q56 0 85 45.5t29 129.5v529h25zM79 700q0 11 8 18.5t17 7.5t16.5 -7.5t7.5 -18.5q0 -13 -7.5 -21.5t-16.5 -8.5q-10 0 -17.5 8.5t-7.5 21.5z" />
    <glyph glyph-name="k" unicode="k" horiz-adv-x="516" 
d="M76 0v730h25v-496l330 286h37l-269 -233l306 -287h-36l-289 270l-79 -66v-204h-25z" />
    <glyph glyph-name="l" unicode="l" horiz-adv-x="185" 
d="M80 0v730h25v-730h-25z" />
    <glyph glyph-name="m" unicode="m" horiz-adv-x="907" 
d="M843 343v-343h-25v334q0 78 -42.5 126t-121.5 48q-71 0 -117 -38t-65 -89v-381h-25v360q0 64 -41.5 106t-112.5 42q-119 0 -192 -146v-362h-25v520h25v-114q28 55 78.5 91t114.5 36q63 0 107.5 -30.5t61.5 -80.5q29 51 79 81t111 30q34 0 65 -9.5t60.5 -29.5t47 -59
t17.5 -92z" />
    <glyph glyph-name="n" unicode="n" horiz-adv-x="596" 
d="M76 0v520h25v-112q74 125 226 125q93 0 149 -58t56 -176v-299h-25v292q0 107 -48 161.5t-136 54.5q-149 0 -222 -143v-365h-25z" />
    <glyph glyph-name="o" unicode="o" horiz-adv-x="618" 
d="M39 261q0 119 74.5 195.5t194.5 76.5t195.5 -76.5t75.5 -195.5t-75.5 -195.5t-195.5 -76.5t-194.5 76.5t-74.5 195.5zM64 261q0 -108 69 -177.5t175 -69.5q107 0 176.5 69.5t69.5 177.5q0 107 -70 177t-176 70t-175 -69.5t-69 -177.5z" />
    <glyph glyph-name="p" unicode="p" horiz-adv-x="602" 
d="M76 -200v720h25v-112q35 60 91 92.5t120 32.5q107 0 179.5 -75t72.5 -189q0 -120 -73.5 -200t-185.5 -80q-125 0 -204 90v-279h-25zM311 508q-132 0 -210 -142v-240q63 -112 210 -112q95 0 161.5 73t66.5 182q0 103 -67 171t-161 68z" />
    <glyph glyph-name="q" unicode="q" horiz-adv-x="603" 
d="M501 -200v305q-23 -46 -76.5 -81t-121.5 -35q-120 0 -192 74t-72 198q0 117 77 194.5t192 77.5q67 0 117 -28t76 -65v80h25v-720h-25zM303 14q69 0 121.5 40t76.5 98v245q-27 51 -79.5 81t-114.5 30q-109 0 -176 -72t-67 -176q0 -117 66.5 -181.5t172.5 -64.5z" />
    <glyph glyph-name="r" unicode="r" horiz-adv-x="337" 
d="M76 0v520h25v-76q20 42 58 65t76 23q70 0 108 -48l-16 -19q-33 42 -92 42q-50 0 -87 -37t-47 -88v-382h-25z" />
    <glyph glyph-name="s" unicode="s" horiz-adv-x="497" 
d="M431 135q0 43 -39 69.5t-94.5 39.5t-111 27t-94.5 45t-39 80q0 61 56.5 99t137.5 38q57 0 107.5 -22.5t77.5 -61.5l-18 -17q-23 35 -70 55.5t-97 20.5q-69 0 -119 -29t-50 -83q0 -41 39 -67t94.5 -39t111 -28t94.5 -46t39 -81q0 -67 -59.5 -106.5t-140.5 -39.5
q-69 0 -130.5 31.5t-88.5 88.5l19 17q24 -52 80.5 -82t119.5 -30t119 30.5t56 90.5z" />
    <glyph glyph-name="t" unicode="t" horiz-adv-x="378" 
d="M-1 495v25h116v125h25v-125h199v-25h-199v-295q0 -97 32.5 -141.5t96.5 -44.5q32 0 60.5 16t40.5 34l14 -21q-45 -54 -115 -54q-154 0 -154 209v297h-116z" />
    <glyph glyph-name="u" unicode="u" horiz-adv-x="587" 
d="M511 523v-523h-25v124q-27 -61 -84 -98t-127 -37q-103 0 -157 59t-54 169v306h25v-302q0 -207 186 -207q71 0 127 43t84 119v347h25z" />
    <glyph glyph-name="v" unicode="v" horiz-adv-x="501" 
d="M263 0h-24l-235 520h27l220 -486l219 486h27z" />
    <glyph glyph-name="w" unicode="w" horiz-adv-x="775" 
d="M197 0l-193 520h26l179 -480l170 480h24l171 -478l171 478h26l-187 -520h-21l-172 478l-170 -478h-24z" />
    <glyph glyph-name="x" unicode="x" horiz-adv-x="493" 
d="M434 520h33l-204 -253l215 -267h-32l-200 246l-199 -246h-32l215 267l-204 253h33l187 -233z" />
    <glyph glyph-name="y" unicode="y" horiz-adv-x="524" 
d="M89 -202l7 25q18 -7 32 -7q42 0 74.5 35t72.5 136l6 15l-274 518h29l259 -490l199 490h27l-215 -529q-27 -65 -49.5 -106t-44 -61t-40 -26.5t-44.5 -6.5q-22 0 -39 7z" />
    <glyph glyph-name="z" unicode="z" horiz-adv-x="478" 
d="M37 495v25h421v-23l-401 -472h394v-25h-431v23l404 472h-387z" />
    <glyph glyph-name="braceleft" unicode="{" horiz-adv-x="298" 
d="M115 -80v210q0 44 -22 75.5t-71 34.5v25q40 4 66.5 28.5t26.5 89.5v206q0 55 27.5 88t79.5 33h54v-25h-48q-86 0 -86 -107v-207q0 -102 -82 -118q39 -11 60.5 -36.5t21.5 -83.5v-205q0 -62 22 -85.5t72 -23.5h40v-25h-49q-112 0 -112 126z" />
    <glyph glyph-name="bar" unicode="|" horiz-adv-x="321" 
d="M147 0v700h27v-700h-27z" />
    <glyph glyph-name="braceright" unicode="}" horiz-adv-x="298" 
d="M183 130v-210q0 -126 -112 -126h-49v25h40q50 0 72 23.5t22 85.5v205q0 58 21.5 83.5t60.5 36.5q-82 16 -82 118v207q0 107 -86 107h-48v25h54q52 0 79.5 -33t27.5 -88v-206q0 -65 26.5 -89.5t66.5 -28.5v-25q-49 -3 -71 -34.5t-22 -75.5z" />
    <glyph glyph-name="asciitilde" unicode="~" horiz-adv-x="600" 
d="M85 334l-13 21q53 55 112 55q42 0 120 -38q72 -36 110 -36q22 0 50.5 12.5t49.5 31.5l13 -21q-51 -48 -113 -48q-38 0 -120 39q-72 35 -110 35q-51 0 -99 -51z" />
    <glyph glyph-name="uni00A0" unicode="&#xa0;" horiz-adv-x="300" 
 />
    <glyph glyph-name="exclamdown" unicode="&#xa1;" horiz-adv-x="310" 
d="M141 -182v511h27v-511h-27zM124 490q0 13 8 21.5t20 8.5t20.5 -8.5t8.5 -21.5t-8.5 -22t-20.5 -9t-20 9t-8 22z" />
    <glyph glyph-name="cent" unicode="&#xa2;" horiz-adv-x="600" 
d="M322 -200v191q-110 9 -176.5 82t-66.5 188q0 110 66 185.5t177 84.5v169h25v-167h3q126 0 184 -82l-20 -15q-54 70 -167 72v-494h6q109 0 176 82l17 -14q-24 -43 -81 -68t-112 -25h-6v-189h-25zM104 261q0 -106 59.5 -171t158.5 -75v492q-95 -8 -156.5 -75t-61.5 -171z
" />
    <glyph glyph-name="sterling" unicode="&#xa3;" horiz-adv-x="600" 
d="M86 291v25h89q-6 18 -25 58t-29.5 74t-10.5 70q0 76 57 133.5t147 57.5q102 0 174 -67l-13 -21q-70 63 -161 63q-74 0 -125.5 -48.5t-51.5 -117.5q0 -35 11 -68t28.5 -71t25.5 -63h176v-25h-170q5 -22 5 -50q0 -47 -16 -93t-34 -73q51 2 132.5 -26.5t115.5 -28.5
q60 0 112 43l13 -21q-53 -47 -128 -47q-36 0 -113 27t-120 27q-56 0 -109 -55l-14 20q34 36 77 54q57 75 57 172q0 24 -5 51h-95z" />
    <glyph glyph-name="currency" unicode="&#xa4;" horiz-adv-x="600" 
d="M541 88l-94 94q-60 -58 -150 -58q-88 0 -148 55l-91 -91l-18 18l91 91q-52 63 -52 150q0 88 53 150l-92 93l18 17l91 -92q61 55 148 55q89 0 149 -58l95 95l18 -17l-95 -96q51 -64 51 -147q0 -85 -51 -147l95 -94zM104 347q0 -85 54.5 -141.5t139.5 -56.5t138.5 56.5
t53.5 141.5t-53.5 141.5t-138.5 56.5t-139.5 -56.5t-54.5 -141.5z" />
    <glyph glyph-name="yen" unicode="&#xa5;" horiz-adv-x="600" 
d="M592 700l-265 -370h194v-25h-209v-142h209v-25h-209v-138h-27v138h-207v25h207v142h-207v25h191l-262 370h31l261 -368l262 368h31z" />
    <glyph glyph-name="brokenbar" unicode="&#xa6;" horiz-adv-x="321" 
d="M174 454h-27v246h27v-246zM147 246h27v-246h-27v246z" />
    <glyph glyph-name="section" unicode="&#xa7;" horiz-adv-x="530" 
d="M82 246q0 67 42 114t107 59q-98 48 -98 141q0 60 42.5 100t104.5 40q72 0 124 -52l-16 -19q-15 14 -24 21.5t-32.5 16t-51.5 8.5q-53 0 -87.5 -33t-34.5 -82q0 -47 33.5 -82t83.5 -56q77 -5 125 -54t48 -122q0 -67 -43.5 -114.5t-103.5 -58.5q95 -40 95 -133
q0 -63 -41 -104.5t-104 -41.5q-74 0 -124 47l16 19q44 -41 108 -41q50 0 85 33t35 88q0 50 -35 82t-83 48q-80 8 -125.5 55.5t-45.5 120.5zM107 246q0 -65 46 -108t112 -43q68 0 113 43t45 108t-45.5 108t-112.5 43t-112.5 -43t-45.5 -108z" />
    <glyph glyph-name="dieresis" unicode="&#xa8;" horiz-adv-x="456" 
d="M154 703q0 11 6.5 18.5t16.5 7.5t17 -7.5t7 -18.5t-7 -18.5t-17 -7.5t-16.5 7.5t-6.5 18.5zM409 703q0 11 6.5 18.5t16.5 7.5t17 -7.5t7 -18.5t-7 -18.5t-17 -7.5t-16.5 7.5t-6.5 18.5z" />
    <glyph glyph-name="copyright" unicode="&#xa9;" horiz-adv-x="1037" 
d="M675 79l10 -23q-60 -65 -158 -65q-103 0 -169 63.5t-66 166.5q0 96 70 163t167 67q85 0 147 -48l-10 -23q-57 44 -137 46q-86 0 -149 -58.5t-63 -147.5q0 -91 58.5 -148t150.5 -56q94 1 149 63zM86 216q0 180 126.5 307.5t305.5 127.5t306 -127.5t127 -307.5t-127 -307
t-306 -127t-305.5 127t-126.5 307zM111 216q0 -170 119 -289.5t288 -119.5t288.5 120t119.5 289q0 170 -119.5 290t-288.5 120t-288 -120t-119 -290z" />
    <glyph glyph-name="ordfeminine" unicode="&#xaa;" horiz-adv-x="429" 
d="M89 545l-13 21q26 21 63.5 32.5t68.5 11.5q70 0 109 -31.5t39 -88.5v-190h-25v60q-17 -28 -56.5 -47t-86.5 -19q-62 0 -96.5 29t-34.5 69q0 45 46 73t114 28q70 0 114 -18v5q0 56 -31 80.5t-91 24.5q-69 0 -120 -40zM187 319q96 0 144 78v53q-48 18 -114 18
q-54 0 -94.5 -18.5t-40.5 -59.5q0 -30 27 -50.5t78 -20.5z" />
    <glyph glyph-name="guillemotleft" unicode="&#xab;" horiz-adv-x="484" 
d="M233 38l-176 207v4l176 207l19 -16l-164 -193l164 -193zM390 38l-176 207v4l176 207l19 -16l-164 -193l164 -193z" />
    <glyph glyph-name="logicalnot" unicode="&#xac;" horiz-adv-x="600" 
d="M75 347v25h449v-159h-27v134h-422z" />
    <glyph glyph-name="uni00AD" unicode="&#xad;" horiz-adv-x="394" 
d="M92 257v25h209v-25h-209z" />
    <glyph glyph-name="registered" unicode="&#xae;" horiz-adv-x="578" 
d="M60 500q0 96 67 164t162 68t162 -68t67 -164t-67 -163.5t-162 -67.5t-162 67.5t-67 163.5zM85 500q0 -86 59.5 -146t144.5 -60t144.5 60t59.5 146t-59.5 146.5t-144.5 60.5t-144.5 -60.5t-59.5 -146.5zM233 367h-25v276h77q47 0 69.5 -21.5t22.5 -55.5q0 -67 -71 -80
l96 -119h-32l-92 114h-45v-114zM352 563q0 55 -68 55h-51v-112h52q26 0 46.5 13.5t20.5 43.5z" />
    <glyph glyph-name="macron" unicode="&#xaf;" horiz-adv-x="441" 
d="M197 669v25h244v-25h-244z" />
    <glyph glyph-name="degree" unicode="&#xb0;" horiz-adv-x="392" 
d="M60 576q0 57 39.5 97.5t95.5 40.5t96 -40.5t40 -97.5t-40 -97t-96 -40t-95.5 40t-39.5 97zM85 576q0 -47 32 -79.5t78 -32.5t78.5 33t32.5 79q0 47 -32.5 80t-78.5 33t-78 -33t-32 -80z" />
    <glyph glyph-name="plusminus" unicode="&#xb1;" horiz-adv-x="600" 
d="M79 430v25h209v204h25v-204h209v-25h-209v-153h-25v153h-209zM79 186v25h443v-25h-443z" />
    <glyph glyph-name="twosuperior" unicode="&#xb2;" horiz-adv-x="411" 
d="M68 613l-21 14q18 40 60.5 69t91.5 29q65 0 105.5 -35.5t40.5 -93.5q0 -74 -63 -131q-29 -27 -106 -79l-93 -61h264v-25h-308v23l118 78q70 46 107 80q56 51 56 115q0 44 -34 74t-87 30q-85 0 -131 -87z" />
    <glyph glyph-name="threesuperior" unicode="&#xb3;" horiz-adv-x="419" 
d="M81 633l-19 16q52 76 154 76q62 0 102.5 -29.5t40.5 -77.5q0 -37 -22 -63t-56 -37q92 -15 92 -100q0 -57 -47.5 -90t-110.5 -33q-115 0 -170 83l20 15q51 -73 150 -73q59 0 96 27t37 71q0 85 -125 85h-70v25h64q49 0 83 24.5t34 65.5q0 38 -32.5 60t-85.5 22
q-48 0 -79.5 -15.5t-55.5 -51.5z" />
    <glyph glyph-name="acute" unicode="&#xb4;" horiz-adv-x="428" 
d="M413 767l-109 -141l-20 15l109 141z" />
    <glyph glyph-name="mu" unicode="&#xb5;" horiz-adv-x="599" 
d="M523 520v-520h-25v92q-28 -44 -80 -73.5t-117 -29.5q-64 0 -117.5 29.5t-82.5 90.5v-309h-25v720h25v-291q0 -102 56.5 -158.5t144.5 -56.5q64 0 114.5 32.5t81.5 81.5v392h25z" />
    <glyph glyph-name="mu" unicode="&#x3bc;" horiz-adv-x="599" 
d="M523 520v-520h-25v92q-28 -44 -80 -73.5t-117 -29.5q-64 0 -117.5 29.5t-82.5 90.5v-309h-25v720h25v-291q0 -102 56.5 -158.5t144.5 -56.5q64 0 114.5 32.5t81.5 81.5v392h25z" />
    <glyph glyph-name="paragraph" unicode="&#xb6;" horiz-adv-x="431" 
d="M59 485q0 99 54.5 157t146.5 58h132v-25h-97v-663q0 -106 -13 -146q-27 -81 -121 -81q-54 0 -89 25l12 23q33 -23 77 -23q29 0 49 10t31 25t17.5 42.5t8 53t1.5 65.5v264q-90 -3 -149.5 55t-59.5 160z" />
    <glyph glyph-name="periodcentered" unicode="&#xb7;" horiz-adv-x="236" 
d="M97 292q0 11 7 19t17 8t17.5 -8t7.5 -19t-7 -18.5t-18 -7.5q-10 0 -17 7.5t-7 18.5z" />
    <glyph glyph-name="cedilla" unicode="&#xb8;" horiz-adv-x="393" 
d="M215 -180l8 23q31 -16 70 -16q75 0 75 50q0 21 -19 33.5t-52 12.5q-16 0 -23 -1v78h25v-54q46 1 70 -19t24 -50q0 -32 -25 -53.5t-75 -21.5q-46 0 -78 18z" />
    <glyph glyph-name="onesuperior" unicode="&#xb9;" horiz-adv-x="275" 
d="M10 653l155 72h25v-425h-25v397l-144 -67z" />
    <glyph glyph-name="ordmasculine" unicode="&#xba;" horiz-adv-x="460" 
d="M65 452q0 66 47 112t118 46t118 -46t47 -112t-47 -112t-118 -46t-118 46t-47 112zM90 452q0 -56 39.5 -94.5t100.5 -38.5q60 0 100 39t40 94q0 56 -39.5 94.5t-100.5 38.5t-100.5 -38.5t-39.5 -94.5z" />
    <glyph glyph-name="guillemotright" unicode="&#xbb;" horiz-adv-x="484" 
d="M427 245l-176 -207l-19 16l164 193l-164 193l19 16l176 -207v-4zM270 245l-176 -207l-19 16l164 193l-164 193l19 16l176 -207v-4z" />
    <glyph glyph-name="onequarter" unicode="&#xbc;" horiz-adv-x="851" 
d="M78 20l543 678l20 -15l-543 -679zM45 653l155 72h25v-425h-25v397l-144 -67zM682 0v109h-304v25l304 286h25v-286h99v-25h-99v-109h-25zM414 134h268v252z" />
    <glyph glyph-name="onehalf" unicode="&#xbd;" horiz-adv-x="862" 
d="M78 20l543 678l20 -15l-543 -679zM45 653l155 72h25v-425h-25v397l-144 -67zM498 313l-21 14q18 40 60.5 69t91.5 29q65 0 105.5 -35.5t40.5 -93.5q0 -74 -63 -131q-29 -27 -106 -79l-93 -61h264v-25h-308v23l118 78q70 46 107 80q56 51 56 115q0 44 -34 74t-87 30
q-85 0 -131 -87z" />
    <glyph glyph-name="threequarters" unicode="&#xbe;" horiz-adv-x="954" 
d="M181 20l543 678l20 -15l-543 -679zM785 0v109h-304v25l304 286h25v-286h99v-25h-99v-109h-25zM517 134h268v252zM81 633l-19 16q52 76 154 76q62 0 102.5 -29.5t40.5 -77.5q0 -37 -22 -63t-56 -37q92 -15 92 -100q0 -57 -47.5 -90t-110.5 -33q-115 0 -170 83l20 15
q51 -73 150 -73q59 0 96 27t37 71q0 85 -125 85h-70v25h64q49 0 83 24.5t34 65.5q0 38 -32.5 60t-85.5 22q-48 0 -79.5 -15.5t-55.5 -51.5z" />
    <glyph glyph-name="questiondown" unicode="&#xbf;" horiz-adv-x="556" 
d="M275 331h25q4 -20 4 -40q0 -42 -25.5 -73t-62 -51.5t-73.5 -41.5t-62.5 -55.5t-25.5 -81.5q0 -71 56 -112.5t148 -41.5q77 0 132 38.5t85 96.5l20 -11q-27 -61 -91 -105t-147 -44q-111 0 -169.5 49.5t-58.5 127.5q0 45 18.5 80t46 55t60 40t60 35t46 39.5t18.5 55.5
q0 17 -4 40zM311 490q0 -13 -8 -22t-20 -9t-20.5 9t-8.5 22t8.5 21.5t20.5 8.5t20 -8.5t8 -21.5z" />
    <glyph glyph-name="Agrave" unicode="&#xc0;" horiz-adv-x="656" 
d="M6 0l307 704h27l310 -704h-29l-100 228h-388l-99 -228h-28zM326 674l-181 -421h366zM355 767l-159 90l12 22l160 -90z" />
    <glyph glyph-name="Aacute" unicode="&#xc1;" horiz-adv-x="656" 
d="M6 0l307 704h27l310 -704h-29l-100 228h-388l-99 -228h-28zM326 674l-181 -421h366zM281 789l159 90l12 -22l-159 -90z" />
    <glyph glyph-name="Acircumflex" unicode="&#xc2;" horiz-adv-x="656" 
d="M6 0l307 704h27l310 -704h-29l-100 228h-388l-99 -228h-28zM326 674l-181 -421h366zM328 885l176 -96l-12 -22l-164 90l-164 -90l-12 22z" />
    <glyph glyph-name="Atilde" unicode="&#xc3;" horiz-adv-x="656" 
d="M6 0l307 704h27l310 -704h-29l-100 228h-388l-99 -228h-28zM326 674l-181 -421h366zM244 863q32 0 72 -19l43 -21q27 -13 54 -13q40 0 70 42l18 -17q-37 -50 -88 -50q-33 0 -66 16l-42 20q-34 17 -61 17q-40 0 -70 -42l-18 17q37 50 88 50z" />
    <glyph glyph-name="Adieresis" unicode="&#xc4;" horiz-adv-x="656" 
d="M6 0l307 704h27l310 -704h-29l-100 228h-388l-99 -228h-28zM326 674l-181 -421h366zM193 820q0 9 7 15t17 6t17 -6t7 -15t-7 -15t-17 -6t-17 6t-7 15zM416 820q0 9 7 15t17 6t17 -6t7 -15t-7 -15t-17 -6t-17 6t-7 15z" />
    <glyph glyph-name="Aring" unicode="&#xc5;" horiz-adv-x="656" 
d="M6 0l307 704h27l310 -704h-29l-100 228h-388l-99 -228h-28zM326 674l-181 -421h366zM244 811q0 34 24.5 57.5t59.5 23.5t60 -23.5t25 -57.5t-25 -57t-60 -23t-59.5 23t-24.5 57zM269 811q0 -23 17 -39t42 -16t42.5 16t17.5 39t-17.5 39.5t-42.5 16.5t-42 -16.5t-17 -39.5
z" />
    <glyph glyph-name="AE" unicode="&#xc6;" horiz-adv-x="1048" 
d="M502 0v226h-310l-161 -226h-31l502 700h480v-25h-453v-306h423v-25h-423v-319h463v-25h-490zM210 251h292v407z" />
    <glyph glyph-name="Ccedilla" unicode="&#xc7;" horiz-adv-x="681" 
d="M309 -180l8 23q31 -16 70 -16q75 0 75 50q0 21 -19 33.5t-52 12.5q-17 0 -24 -1v71q-151 10 -238 106t-87 251t93.5 257t252.5 102q87 0 152.5 -30t103.5 -74l-14 -17q-54 48 -107.5 72t-137.5 24q-148 0 -232 -93.5t-84 -240.5q0 -152 89.5 -243t246.5 -91q143 0 232 96
l15 -16q-35 -46 -98.5 -75.5t-148.5 -29.5q-2 0 -6 0.5t-5 0.5v-46q45 1 69 -19t24 -50q0 -32 -25 -53.5t-75 -21.5q-46 0 -78 18z" />
    <glyph glyph-name="Egrave" unicode="&#xc8;" horiz-adv-x="630" 
d="M84 0v700h480v-25h-453v-306h423v-25h-423v-319h463v-25h-490zM385 767l-159 90l12 22l160 -90z" />
    <glyph glyph-name="Eacute" unicode="&#xc9;" horiz-adv-x="630" 
d="M84 0v700h480v-25h-453v-306h423v-25h-423v-319h463v-25h-490zM273 789l159 90l12 -22l-159 -90z" />
    <glyph glyph-name="Ecircumflex" unicode="&#xca;" horiz-adv-x="630" 
d="M84 0v700h480v-25h-453v-306h423v-25h-423v-319h463v-25h-490zM330 885l176 -96l-12 -22l-164 90l-164 -90l-12 22z" />
    <glyph glyph-name="Edieresis" unicode="&#xcb;" horiz-adv-x="630" 
d="M84 0v700h480v-25h-453v-306h423v-25h-423v-319h463v-25h-490zM192 820q0 9 7 15t17 6t17 -6t7 -15t-7 -15t-17 -6t-17 6t-7 15zM415 820q0 9 7 15t17 6t17 -6t7 -15t-7 -15t-17 -6t-17 6t-7 15z" />
    <glyph glyph-name="Igrave" unicode="&#xcc;" horiz-adv-x="217" 
d="M95 0v700h27v-700h-27zM153 767l-159 90l12 22l160 -90z" />
    <glyph glyph-name="Iacute" unicode="&#xcd;" horiz-adv-x="217" 
d="M95 0v700h27v-700h-27zM51 789l159 90l12 -22l-159 -90z" />
    <glyph glyph-name="Icircumflex" unicode="&#xce;" horiz-adv-x="217" 
d="M95 0v700h27v-700h-27zM108 885l176 -96l-12 -22l-164 90l-164 -90l-12 22z" />
    <glyph glyph-name="Idieresis" unicode="&#xcf;" horiz-adv-x="217" 
d="M95 0v700h27v-700h-27zM-27 820q0 9 7 15t17 6t17 -6t7 -15t-7 -15t-17 -6t-17 6t-7 15zM196 820q0 9 7 15t17 6t17 -6t7 -15t-7 -15t-17 -6t-17 6t-7 15z" />
    <glyph glyph-name="Eth" unicode="&#xd0;" horiz-adv-x="755" 
d="M2 333v25h131v342h209q98 0 171 -27t115 -75t62.5 -107.5t20.5 -130.5q0 -158 -96 -259t-279 -101h-203v333h-131zM340 675h-180v-317h221v-25h-221v-308h175q174 0 261.5 93t87.5 242q0 141 -84 228t-260 87z" />
    <glyph glyph-name="Ntilde" unicode="&#xd1;" horiz-adv-x="734" 
d="M650 0h-27l-512 658v-658h-27v700h27l512 -658v658h27v-700zM283 863q32 0 72 -19l43 -21q27 -13 54 -13q40 0 70 42l18 -17q-37 -50 -88 -50q-33 0 -66 16l-42 20q-34 17 -61 17q-40 0 -70 -42l-18 17q37 50 88 50z" />
    <glyph glyph-name="Ograve" unicode="&#xd2;" horiz-adv-x="785" 
d="M42 350q0 152 101 255.5t249 103.5t249 -102t101 -257q0 -153 -101.5 -256t-248.5 -103q-148 0 -249 102t-101 257zM69 350q0 -140 94.5 -237t228.5 -97q138 0 230.5 96.5t92.5 237.5t-94 237.5t-229 96.5t-229 -96.5t-94 -237.5zM412 767l-159 90l12 22l160 -90z" />
    <glyph glyph-name="Oacute" unicode="&#xd3;" horiz-adv-x="785" 
d="M42 350q0 152 101 255.5t249 103.5t249 -102t101 -257q0 -153 -101.5 -256t-248.5 -103q-148 0 -249 102t-101 257zM69 350q0 -140 94.5 -237t228.5 -97q138 0 230.5 96.5t92.5 237.5t-94 237.5t-229 96.5t-229 -96.5t-94 -237.5zM355 789l159 90l12 -22l-159 -90z" />
    <glyph glyph-name="Ocircumflex" unicode="&#xd4;" horiz-adv-x="785" 
d="M42 350q0 152 101 255.5t249 103.5t249 -102t101 -257q0 -153 -101.5 -256t-248.5 -103q-148 0 -249 102t-101 257zM69 350q0 -140 94.5 -237t228.5 -97q138 0 230.5 96.5t92.5 237.5t-94 237.5t-229 96.5t-229 -96.5t-94 -237.5zM392 885l176 -96l-12 -22l-164 90
l-164 -90l-12 22z" />
    <glyph glyph-name="Otilde" unicode="&#xd5;" horiz-adv-x="785" 
d="M42 350q0 152 101 255.5t249 103.5t249 -102t101 -257q0 -153 -101.5 -256t-248.5 -103q-148 0 -249 102t-101 257zM69 350q0 -140 94.5 -237t228.5 -97q138 0 230.5 96.5t92.5 237.5t-94 237.5t-229 96.5t-229 -96.5t-94 -237.5zM308 863q32 0 72 -19l43 -21
q27 -13 54 -13q40 0 70 42l18 -17q-37 -50 -88 -50q-33 0 -66 16l-42 20q-34 17 -61 17q-40 0 -70 -42l-18 17q37 50 88 50z" />
    <glyph glyph-name="Odieresis" unicode="&#xd6;" horiz-adv-x="785" 
d="M42 350q0 152 101 255.5t249 103.5t249 -102t101 -257q0 -153 -101.5 -256t-248.5 -103q-148 0 -249 102t-101 257zM69 350q0 -140 94.5 -237t228.5 -97q138 0 230.5 96.5t92.5 237.5t-94 237.5t-229 96.5t-229 -96.5t-94 -237.5zM257 820q0 9 7 15t17 6t17 -6t7 -15
t-7 -15t-17 -6t-17 6t-7 15zM480 820q0 9 7 15t17 6t17 -6t7 -15t-7 -15t-17 -6t-17 6t-7 15z" />
    <glyph glyph-name="multiply" unicode="&#xd7;" horiz-adv-x="600" 
d="M137 504l18 17l145 -145l145 145l18 -17l-145 -145l146 -147l-18 -17l-146 146l-146 -146l-18 17l146 146z" />
    <glyph glyph-name="Oslash" unicode="&#xd8;" horiz-adv-x="785" 
d="M106 18l50 62q-114 103 -114 270q0 152 101 255.5t249 103.5q120 0 212 -70l45 57l20 -15l-46 -58q119 -104 119 -273q0 -153 -101.5 -256t-248.5 -103q-124 0 -217 73l-49 -62zM715 350q0 153 -109 252l-413 -516q87 -70 199 -70q138 0 230.5 96.5t92.5 237.5zM69 350
q0 -150 105 -247l412 515q-87 66 -194 66q-135 0 -229 -96.5t-94 -237.5z" />
    <glyph glyph-name="Ugrave" unicode="&#xd9;" horiz-adv-x="713" 
d="M72 291v409h25v-400q0 -134 70 -208.5t190 -74.5t189.5 74.5t69.5 208.5v400h25v-409q0 -77 -24.5 -136t-65.5 -93.5t-90 -52t-104 -17.5t-104 17.5t-90.5 52t-66 93.5t-24.5 136zM400 767l-159 90l12 22l160 -90z" />
    <glyph glyph-name="Uacute" unicode="&#xda;" horiz-adv-x="713" 
d="M72 291v409h25v-400q0 -134 70 -208.5t190 -74.5t189.5 74.5t69.5 208.5v400h25v-409q0 -77 -24.5 -136t-65.5 -93.5t-90 -52t-104 -17.5t-104 17.5t-90.5 52t-66 93.5t-24.5 136zM303 789l159 90l12 -22l-159 -90z" />
    <glyph glyph-name="Ucircumflex" unicode="&#xdb;" horiz-adv-x="713" 
d="M72 291v409h25v-400q0 -134 70 -208.5t190 -74.5t189.5 74.5t69.5 208.5v400h25v-409q0 -77 -24.5 -136t-65.5 -93.5t-90 -52t-104 -17.5t-104 17.5t-90.5 52t-66 93.5t-24.5 136zM357 885l176 -96l-12 -22l-164 90l-164 -90l-12 22z" />
    <glyph glyph-name="Udieresis" unicode="&#xdc;" horiz-adv-x="713" 
d="M72 291v409h25v-400q0 -134 70 -208.5t190 -74.5t189.5 74.5t69.5 208.5v400h25v-409q0 -77 -24.5 -136t-65.5 -93.5t-90 -52t-104 -17.5t-104 17.5t-90.5 52t-66 93.5t-24.5 136zM222 820q0 9 7 15t17 6t17 -6t7 -15t-7 -15t-17 -6t-17 6t-7 15zM445 820q0 9 7 15t17 6
t17 -6t7 -15t-7 -15t-17 -6t-17 6t-7 15z" />
    <glyph glyph-name="Yacute" unicode="&#xdd;" horiz-adv-x="585" 
d="M585 700l-280 -442v-258h-27v258l-278 442h33l259 -415l261 415h32zM251 789l159 90l12 -22l-159 -90z" />
    <glyph glyph-name="Thorn" unicode="&#xde;" horiz-adv-x="646" 
d="M111 0h-27v700h27v-125h215q83 0 140 -16.5t85.5 -46.5t40 -63t11.5 -74q0 -89 -66.5 -147t-211.5 -58h-214v-170zM331 550h-220v-355h212q127 -1 190 48t63 133q0 81 -59 127.5t-186 46.5z" />
    <glyph glyph-name="germandbls" unicode="&#xdf;" horiz-adv-x="546" 
d="M271 738q87 0 140.5 -53t53.5 -146q0 -58 -36.5 -109.5t-98.5 -71.5q82 -14 127 -61t45 -115q0 -89 -61 -140t-155 -51q-79 0 -134 31l12 22q56 -27 122 -27q84 0 137.5 45t53.5 120q0 66 -58 113.5t-159 47.5h-65v25h65q75 0 127.5 51.5t52.5 119.5q0 78 -44.5 126
t-124.5 48q-170 0 -170 -204v-509h-25v527q0 51 14 90t34.5 61t48 36.5t51 19t47.5 4.5z" />
    <glyph glyph-name="agrave" unicode="&#xe0;" horiz-adv-x="528" 
d="M82 442l-15 18q34 34 85.5 53.5t97.5 19.5q215 0 215 -206v-327h-25v116q-69 -123 -213 -123q-90 0 -143.5 40t-53.5 107q0 80 56 117t176 37q103 0 178 -20v50q0 90 -45.5 137t-147.5 47q-90 0 -165 -66zM227 18q82 0 137 47t76 99v82q-75 23 -179 23q-105 0 -155.5 -31
t-50.5 -97q0 -58 48 -90.5t124 -32.5zM177 782l104 -145l-21 -15l-103 145z" />
    <glyph glyph-name="aacute" unicode="&#xe1;" horiz-adv-x="528" 
d="M82 442l-15 18q34 34 85.5 53.5t97.5 19.5q215 0 215 -206v-327h-25v116q-69 -123 -213 -123q-90 0 -143.5 40t-53.5 107q0 80 56 117t176 37q103 0 178 -20v50q0 90 -45.5 137t-147.5 47q-90 0 -165 -66zM227 18q82 0 137 47t76 99v82q-75 23 -179 23q-105 0 -155.5 -31
t-50.5 -97q0 -58 48 -90.5t124 -32.5zM243 637l104 145l20 -15l-103 -145z" />
    <glyph glyph-name="acircumflex" unicode="&#xe2;" horiz-adv-x="528" 
d="M82 442l-15 18q34 34 85.5 53.5t97.5 19.5q215 0 215 -206v-327h-25v116q-69 -123 -213 -123q-90 0 -143.5 40t-53.5 107q0 80 56 117t176 37q103 0 178 -20v50q0 90 -45.5 137t-147.5 47q-90 0 -165 -66zM227 18q82 0 137 47t76 99v82q-75 23 -179 23q-105 0 -155.5 -31
t-50.5 -97q0 -58 48 -90.5t124 -32.5zM376 637l-115 103l-115 -103l-17 19l132 119l132 -119z" />
    <glyph glyph-name="atilde" unicode="&#xe3;" horiz-adv-x="528" 
d="M82 442l-15 18q34 34 85.5 53.5t97.5 19.5q215 0 215 -206v-327h-25v116q-69 -123 -213 -123q-90 0 -143.5 40t-53.5 107q0 80 56 117t176 37q103 0 178 -20v50q0 90 -45.5 137t-147.5 47q-90 0 -165 -66zM227 18q82 0 137 47t76 99v82q-75 23 -179 23q-105 0 -155.5 -31
t-50.5 -97q0 -58 48 -90.5t124 -32.5zM191 712q24 0 65 -24l11 -7q36 -22 54 -22q37 0 67 42l18 -17q-37 -50 -85 -50q-24 0 -65 24l-11 7q-36 22 -54 22q-37 0 -67 -42l-18 17q37 50 85 50z" />
    <glyph glyph-name="adieresis" unicode="&#xe4;" horiz-adv-x="528" 
d="M82 442l-15 18q34 34 85.5 53.5t97.5 19.5q215 0 215 -206v-327h-25v116q-69 -123 -213 -123q-90 0 -143.5 40t-53.5 107q0 80 56 117t176 37q103 0 178 -20v50q0 90 -45.5 137t-147.5 47q-90 0 -165 -66zM227 18q82 0 137 47t76 99v82q-75 23 -179 23q-105 0 -155.5 -31
t-50.5 -97q0 -58 48 -90.5t124 -32.5zM98 703q0 11 6.5 18.5t16.5 7.5t17 -7.5t7 -18.5t-7 -18.5t-17 -7.5t-16.5 7.5t-6.5 18.5zM353 703q0 11 6.5 18.5t16.5 7.5t17 -7.5t7 -18.5t-7 -18.5t-17 -7.5t-16.5 7.5t-6.5 18.5z" />
    <glyph glyph-name="aring" unicode="&#xe5;" horiz-adv-x="528" 
d="M82 442l-15 18q34 34 85.5 53.5t97.5 19.5q215 0 215 -206v-327h-25v116q-69 -123 -213 -123q-90 0 -143.5 40t-53.5 107q0 80 56 117t176 37q103 0 178 -20v50q0 90 -45.5 137t-147.5 47q-90 0 -165 -66zM227 18q82 0 137 47t76 99v82q-75 23 -179 23q-105 0 -155.5 -31
t-50.5 -97q0 -58 48 -90.5t124 -32.5zM171 701q0 35 23.5 59.5t57.5 24.5t57.5 -24.5t23.5 -59.5t-23.5 -59t-57.5 -24t-57.5 24t-23.5 59zM196 701q0 -25 16.5 -41.5t39.5 -16.5t39.5 16.5t16.5 41.5t-16.5 42t-39.5 17t-39.5 -17t-16.5 -42z" />
    <glyph glyph-name="ae" unicode="&#xe6;" horiz-adv-x="972" 
d="M82 442l-15 18q34 34 85.5 53.5t97.5 19.5q186 0 211 -155q28 72 89 113.5t150 41.5q101 0 167 -64t66 -170q0 -24 -2 -40h-466q-3 -112 66 -178.5t181 -66.5q58 0 106.5 26t78.5 75l19 -14q-30 -54 -86.5 -83t-120.5 -29q-91 0 -156 41.5t-94 115.5q-28 -67 -92.5 -110
t-139.5 -43q-90 0 -143.5 40t-53.5 107q0 151 261 151q85 0 149 -17v50q0 90 -45.5 137t-147.5 47q-90 0 -165 -66zM693 508q-100 0 -160.5 -63.5t-66.5 -160.5h442q2 102 -56 163t-159 61zM227 18q84 0 136.5 44t76.5 102v82q-65 20 -151 20q-234 0 -234 -125
q0 -58 48 -90.5t124 -32.5z" />
    <glyph glyph-name="ccedilla" unicode="&#xe7;" horiz-adv-x="530" 
d="M228 -180l8 23q31 -16 70 -16q75 0 75 50q0 21 -19 33.5t-52 12.5q-16 0 -23 -1v68q-112 8 -180 81.5t-68 189.5q0 118 70.5 195t191.5 77q62 0 114 -21.5t79 -60.5l-20 -15q-54 72 -178 72q-102 0 -167 -67.5t-65 -179.5q0 -114 69 -180.5t180 -66.5q109 0 176 82
l17 -14q-24 -43 -81 -68t-112 -25h-1v-43q46 1 70 -19t24 -50q0 -32 -25 -53.5t-75 -21.5q-46 0 -78 18z" />
    <glyph glyph-name="egrave" unicode="&#xe8;" horiz-adv-x="570" 
d="M496 115l19 -14q-30 -54 -86.5 -83t-120.5 -29q-122 0 -195.5 73.5t-73.5 195.5q0 120 68.5 197.5t191.5 77.5q101 0 167 -64t66 -170q0 -24 -2 -40h-466q-3 -112 66 -178.5t181 -66.5q58 0 106.5 26t78.5 75zM292 508q-100 0 -160.5 -63.5t-66.5 -160.5h442
q2 102 -56 163t-159 61zM222 782l104 -145l-21 -15l-103 145z" />
    <glyph glyph-name="eacute" unicode="&#xe9;" horiz-adv-x="570" 
d="M496 115l19 -14q-30 -54 -86.5 -83t-120.5 -29q-122 0 -195.5 73.5t-73.5 195.5q0 120 68.5 197.5t191.5 77.5q101 0 167 -64t66 -170q0 -24 -2 -40h-466q-3 -112 66 -178.5t181 -66.5q58 0 106.5 26t78.5 75zM292 508q-100 0 -160.5 -63.5t-66.5 -160.5h442
q2 102 -56 163t-159 61zM266 637l104 145l20 -15l-103 -145z" />
    <glyph glyph-name="ecircumflex" unicode="&#xea;" horiz-adv-x="570" 
d="M496 115l19 -14q-30 -54 -86.5 -83t-120.5 -29q-122 0 -195.5 73.5t-73.5 195.5q0 120 68.5 197.5t191.5 77.5q101 0 167 -64t66 -170q0 -24 -2 -40h-466q-3 -112 66 -178.5t181 -66.5q58 0 106.5 26t78.5 75zM292 508q-100 0 -160.5 -63.5t-66.5 -160.5h442
q2 102 -56 163t-159 61zM422 637l-115 103l-115 -103l-17 19l132 119l132 -119z" />
    <glyph glyph-name="edieresis" unicode="&#xeb;" horiz-adv-x="570" 
d="M496 115l19 -14q-30 -54 -86.5 -83t-120.5 -29q-122 0 -195.5 73.5t-73.5 195.5q0 120 68.5 197.5t191.5 77.5q101 0 167 -64t66 -170q0 -24 -2 -40h-466q-3 -112 66 -178.5t181 -66.5q58 0 106.5 26t78.5 75zM292 508q-100 0 -160.5 -63.5t-66.5 -160.5h442
q2 102 -56 163t-159 61zM133 703q0 11 6.5 18.5t16.5 7.5t17 -7.5t7 -18.5t-7 -18.5t-17 -7.5t-16.5 7.5t-6.5 18.5zM388 703q0 11 6.5 18.5t16.5 7.5t17 -7.5t7 -18.5t-7 -18.5t-17 -7.5t-16.5 7.5t-6.5 18.5z" />
    <glyph glyph-name="igrave" unicode="&#xec;" horiz-adv-x="211" 
d="M93 0v520h25v-520h-25zM37 782l104 -145l-21 -15l-103 145z" />
    <glyph glyph-name="iacute" unicode="&#xed;" horiz-adv-x="211" 
d="M93 0v520h25v-520h-25zM84 637l104 145l20 -15l-103 -145z" />
    <glyph glyph-name="icircumflex" unicode="&#xee;" horiz-adv-x="211" 
d="M93 0v520h25v-520h-25zM227 637l-115 103l-115 -103l-17 19l132 119l132 -119z" />
    <glyph glyph-name="idieresis" unicode="&#xef;" horiz-adv-x="211" 
d="M93 0v520h25v-520h-25zM-39 703q0 11 6.5 18.5t16.5 7.5t17 -7.5t7 -18.5t-7 -18.5t-17 -7.5t-16.5 7.5t-6.5 18.5zM216 703q0 11 6.5 18.5t16.5 7.5t17 -7.5t7 -18.5t-7 -18.5t-17 -7.5t-16.5 7.5t-6.5 18.5z" />
    <glyph glyph-name="eth" unicode="&#xf0;" horiz-adv-x="618" 
d="M241 601l42 91q-63 18 -128 22l2 25q77 -8 136 -25l35 76l23 -10l-34 -74q66 -24 119 -65q143 -111 143 -349q0 -132 -75.5 -217.5t-195.5 -85.5q-119 0 -194 77t-75 195q0 117 75.5 189.5t193.5 72.5q67 0 129.5 -24.5t102.5 -72.5q-26 120 -122 197q-50 39 -111 61
l-43 -93zM64 261q0 -108 69 -177.5t175 -69.5q113 0 179.5 80t66.5 198q0 60 -8 89q-31 52 -96 84.5t-145 32.5q-105 0 -173 -65t-68 -172z" />
    <glyph glyph-name="ntilde" unicode="&#xf1;" horiz-adv-x="596" 
d="M76 0v520h25v-112q74 125 226 125q93 0 149 -58t56 -176v-299h-25v292q0 107 -48 161.5t-136 54.5q-149 0 -222 -143v-365h-25zM239 712q24 0 65 -24l11 -7q36 -22 54 -22q37 0 67 42l18 -17q-37 -50 -85 -50q-24 0 -65 24l-11 7q-36 22 -54 22q-37 0 -67 -42l-18 17
q37 50 85 50z" />
    <glyph glyph-name="ograve" unicode="&#xf2;" horiz-adv-x="618" 
d="M39 261q0 119 74.5 195.5t194.5 76.5t195.5 -76.5t75.5 -195.5t-75.5 -195.5t-195.5 -76.5t-194.5 76.5t-74.5 195.5zM64 261q0 -108 69 -177.5t175 -69.5q107 0 176.5 69.5t69.5 177.5q0 107 -70 177t-176 70t-175 -69.5t-69 -177.5zM250 782l104 -145l-21 -15l-103 145
z" />
    <glyph glyph-name="oacute" unicode="&#xf3;" horiz-adv-x="618" 
d="M39 261q0 119 74.5 195.5t194.5 76.5t195.5 -76.5t75.5 -195.5t-75.5 -195.5t-195.5 -76.5t-194.5 76.5t-74.5 195.5zM64 261q0 -108 69 -177.5t175 -69.5q107 0 176.5 69.5t69.5 177.5q0 107 -70 177t-176 70t-175 -69.5t-69 -177.5zM265 637l104 145l20 -15l-103 -145z
" />
    <glyph glyph-name="ocircumflex" unicode="&#xf4;" horiz-adv-x="618" 
d="M39 261q0 119 74.5 195.5t194.5 76.5t195.5 -76.5t75.5 -195.5t-75.5 -195.5t-195.5 -76.5t-194.5 76.5t-74.5 195.5zM64 261q0 -108 69 -177.5t175 -69.5q107 0 176.5 69.5t69.5 177.5q0 107 -70 177t-176 70t-175 -69.5t-69 -177.5zM424 637l-115 103l-115 -103l-17 19
l132 119l132 -119z" />
    <glyph glyph-name="otilde" unicode="&#xf5;" horiz-adv-x="618" 
d="M39 261q0 119 74.5 195.5t194.5 76.5t195.5 -76.5t75.5 -195.5t-75.5 -195.5t-195.5 -76.5t-194.5 76.5t-74.5 195.5zM64 261q0 -108 69 -177.5t175 -69.5q107 0 176.5 69.5t69.5 177.5q0 107 -70 177t-176 70t-175 -69.5t-69 -177.5zM244 712q24 0 65 -24l11 -7
q36 -22 54 -22q37 0 67 42l18 -17q-37 -50 -85 -50q-24 0 -65 24l-11 7q-36 22 -54 22q-37 0 -67 -42l-18 17q37 50 85 50z" />
    <glyph glyph-name="odieresis" unicode="&#xf6;" horiz-adv-x="618" 
d="M39 261q0 119 74.5 195.5t194.5 76.5t195.5 -76.5t75.5 -195.5t-75.5 -195.5t-195.5 -76.5t-194.5 76.5t-74.5 195.5zM64 261q0 -108 69 -177.5t175 -69.5q107 0 176.5 69.5t69.5 177.5q0 107 -70 177t-176 70t-175 -69.5t-69 -177.5zM158 703q0 11 6.5 18.5t16.5 7.5
t17 -7.5t7 -18.5t-7 -18.5t-17 -7.5t-16.5 7.5t-6.5 18.5zM413 703q0 11 6.5 18.5t16.5 7.5t17 -7.5t7 -18.5t-7 -18.5t-17 -7.5t-16.5 7.5t-6.5 18.5z" />
    <glyph glyph-name="divide" unicode="&#xf7;" horiz-adv-x="600" 
d="M84 347v25h433v-25h-433zM279 152q0 10 6 16.5t15 6.5t15 -6.5t6 -16.5t-6 -16.5t-15 -6.5t-15 6.5t-6 16.5zM279 567q0 10 6 16.5t15 6.5t15 -6.5t6 -16.5t-6 -16.5t-15 -6.5t-15 6.5t-6 16.5z" />
    <glyph glyph-name="oslash" unicode="&#xf8;" horiz-adv-x="618" 
d="M39 261q0 119 74.5 195.5t194.5 76.5q89 0 159 -46l66 83l20 -15l-66 -84q92 -76 92 -210q0 -119 -75.5 -195.5t-195.5 -76.5q-96 0 -165 50l-65 -81l-20 16l65 82q-84 78 -84 205zM554 261q0 118 -84 189l-311 -390q63 -46 149 -46q107 0 176.5 69.5t69.5 177.5zM64 261
q0 -115 76 -185l310 390q-65 42 -142 42q-106 0 -175 -69.5t-69 -177.5z" />
    <glyph glyph-name="ugrave" unicode="&#xf9;" horiz-adv-x="587" 
d="M511 523v-523h-25v124q-27 -61 -84 -98t-127 -37q-103 0 -157 59t-54 169v306h25v-302q0 -207 186 -207q71 0 127 43t84 119v347h25zM231 782l104 -145l-21 -15l-103 145z" />
    <glyph glyph-name="uacute" unicode="&#xfa;" horiz-adv-x="587" 
d="M511 523v-523h-25v124q-27 -61 -84 -98t-127 -37q-103 0 -157 59t-54 169v306h25v-302q0 -207 186 -207q71 0 127 43t84 119v347h25zM252 637l104 145l20 -15l-103 -145z" />
    <glyph glyph-name="ucircumflex" unicode="&#xfb;" horiz-adv-x="587" 
d="M511 523v-523h-25v124q-27 -61 -84 -98t-127 -37q-103 0 -157 59t-54 169v306h25v-302q0 -207 186 -207q71 0 127 43t84 119v347h25zM408 637l-115 103l-115 -103l-17 19l132 119l132 -119z" />
    <glyph glyph-name="udieresis" unicode="&#xfc;" horiz-adv-x="587" 
d="M511 523v-523h-25v124q-27 -61 -84 -98t-127 -37q-103 0 -157 59t-54 169v306h25v-302q0 -207 186 -207q71 0 127 43t84 119v347h25zM136 703q0 11 6.5 18.5t16.5 7.5t17 -7.5t7 -18.5t-7 -18.5t-17 -7.5t-16.5 7.5t-6.5 18.5zM391 703q0 11 6.5 18.5t16.5 7.5t17 -7.5
t7 -18.5t-7 -18.5t-17 -7.5t-16.5 7.5t-6.5 18.5z" />
    <glyph glyph-name="yacute" unicode="&#xfd;" horiz-adv-x="524" 
d="M89 -202l7 25q18 -7 32 -7q42 0 74.5 35t72.5 136l6 15l-274 518h29l259 -490l199 490h27l-215 -529q-27 -65 -49.5 -106t-44 -61t-40 -26.5t-44.5 -6.5q-22 0 -39 7zM241 637l104 145l20 -15l-103 -145z" />
    <glyph glyph-name="thorn" unicode="&#xfe;" horiz-adv-x="602" 
d="M76 -200v930h25v-322q35 60 91 92.5t120 32.5q107 0 179.5 -75t72.5 -189q0 -120 -73.5 -200t-185.5 -80q-125 0 -204 90v-279h-25zM311 508q-132 0 -210 -142v-240q63 -112 210 -112q95 0 161.5 73t66.5 182q0 103 -67 171t-161 68z" />
    <glyph glyph-name="ydieresis" unicode="&#xff;" horiz-adv-x="524" 
d="M89 -202l7 25q18 -7 32 -7q42 0 74.5 35t72.5 136l6 15l-274 518h29l259 -490l199 490h27l-215 -529q-27 -65 -49.5 -106t-44 -61t-40 -26.5t-44.5 -6.5q-22 0 -39 7zM117 703q0 11 6.5 18.5t16.5 7.5t17 -7.5t7 -18.5t-7 -18.5t-17 -7.5t-16.5 7.5t-6.5 18.5zM372 703
q0 11 6.5 18.5t16.5 7.5t17 -7.5t7 -18.5t-7 -18.5t-17 -7.5t-16.5 7.5t-6.5 18.5z" />
    <glyph glyph-name="Amacron" unicode="&#x100;" horiz-adv-x="656" 
d="M6 0l307 704h27l310 -704h-29l-100 228h-388l-99 -228h-28zM326 674l-181 -421h366zM184 810v25h289v-25h-289z" />
    <glyph glyph-name="amacron" unicode="&#x101;" horiz-adv-x="528" 
d="M82 442l-15 18q34 34 85.5 53.5t97.5 19.5q215 0 215 -206v-327h-25v116q-69 -123 -213 -123q-90 0 -143.5 40t-53.5 107q0 80 56 117t176 37q103 0 178 -20v50q0 90 -45.5 137t-147.5 47q-90 0 -165 -66zM227 18q82 0 137 47t76 99v82q-75 23 -179 23q-105 0 -155.5 -31
t-50.5 -97q0 -58 48 -90.5t124 -32.5zM140 669v25h244v-25h-244z" />
    <glyph glyph-name="Abreve" unicode="&#x102;" horiz-adv-x="656" 
d="M6 0l307 704h27l310 -704h-29l-100 228h-388l-99 -228h-28zM326 674l-181 -421h366zM469 886l19 -16q-59 -79 -160 -79t-160 79l19 16q54 -70 141 -70t141 70z" />
    <glyph glyph-name="abreve" unicode="&#x103;" horiz-adv-x="528" 
d="M82 442l-15 18q34 34 85.5 53.5t97.5 19.5q215 0 215 -206v-327h-25v116q-69 -123 -213 -123q-90 0 -143.5 40t-53.5 107q0 80 56 117t176 37q103 0 178 -20v50q0 90 -45.5 137t-147.5 47q-90 0 -165 -66zM227 18q82 0 137 47t76 99v82q-75 23 -179 23q-105 0 -155.5 -31
t-50.5 -97q0 -58 48 -90.5t124 -32.5zM113 735l20 15q41 -65 119 -65t119 65l20 -15q-51 -75 -139 -75t-139 75z" />
    <glyph glyph-name="Aogonek" unicode="&#x104;" horiz-adv-x="656" 
d="M640 -164l5 -24q-22 -12 -54 -12q-38 0 -70 26t-32 72q0 58 51 95q28 20 71 28l-90 207h-388l-99 -228h-28l307 704h27l299 -679l11 -25h-11q-50 0 -84 -25q-41 -30 -41 -77q0 -30 21 -51.5t58 -21.5q25 0 47 11zM326 677l-181 -424h366z" />
    <glyph glyph-name="aogonek" unicode="&#x105;" horiz-adv-x="528" 
d="M473 -168l5 -24q-21 -8 -44 -8q-36 0 -64.5 21t-28.5 66q0 42 27.5 75.5t71.5 52.5v101q-69 -123 -213 -123q-90 0 -143.5 40t-53.5 107q0 80 56 117t176 37q103 0 178 -20v50q0 90 -45.5 137t-147.5 47q-90 0 -165 -66l-15 18q34 34 85.5 53.5t97.5 19.5q215 0 215 -206
v-327q-39 -10 -69 -43t-30 -70q0 -29 19 -45.5t51 -16.5q23 0 37 7zM227 18q82 0 137 47t76 99v82q-75 23 -179 23q-105 0 -155.5 -31t-50.5 -97q0 -58 48 -90.5t124 -32.5z" />
    <glyph glyph-name="Cacute" unicode="&#x106;" horiz-adv-x="681" 
d="M637 112l15 -16q-35 -46 -98.5 -75.5t-148.5 -29.5q-167 0 -265 97.5t-98 261.5q0 155 93.5 257t252.5 102q87 0 152.5 -30t103.5 -74l-14 -17q-54 48 -107.5 72t-137.5 24q-148 0 -232 -93.5t-84 -240.5q0 -152 89.5 -243t246.5 -91q143 0 232 96zM333 789l159 90
l12 -22l-159 -90z" />
    <glyph glyph-name="cacute" unicode="&#x107;" horiz-adv-x="530" 
d="M489 96l17 -14q-24 -43 -81 -68t-112 -25q-123 0 -198.5 74.5t-75.5 197.5q0 118 70.5 195t191.5 77q62 0 114 -21.5t79 -60.5l-20 -15q-54 72 -178 72q-102 0 -167 -67.5t-65 -179.5q0 -114 69 -180.5t180 -66.5q109 0 176 82zM268 637l104 145l20 -15l-103 -145z" />
    <glyph glyph-name="Ccircumflex" unicode="&#x108;" horiz-adv-x="681" 
d="M637 112l15 -16q-35 -46 -98.5 -75.5t-148.5 -29.5q-167 0 -265 97.5t-98 261.5q0 155 93.5 257t252.5 102q87 0 152.5 -30t103.5 -74l-14 -17q-54 48 -107.5 72t-137.5 24q-148 0 -232 -93.5t-84 -240.5q0 -152 89.5 -243t246.5 -91q143 0 232 96zM400 885l176 -96
l-12 -22l-164 90l-164 -90l-12 22z" />
    <glyph glyph-name="ccircumflex" unicode="&#x109;" horiz-adv-x="530" 
d="M489 96l17 -14q-24 -43 -81 -68t-112 -25q-123 0 -198.5 74.5t-75.5 197.5q0 118 70.5 195t191.5 77q62 0 114 -21.5t79 -60.5l-20 -15q-54 72 -178 72q-102 0 -167 -67.5t-65 -179.5q0 -114 69 -180.5t180 -66.5q109 0 176 82zM434 637l-115 103l-115 -103l-17 19
l132 119l132 -119z" />
    <glyph glyph-name="Cdotaccent" unicode="&#x10a;" horiz-adv-x="681" 
d="M637 112l15 -16q-35 -46 -98.5 -75.5t-148.5 -29.5q-167 0 -265 97.5t-98 261.5q0 155 93.5 257t252.5 102q87 0 152.5 -30t103.5 -74l-14 -17q-54 48 -107.5 72t-137.5 24q-148 0 -232 -93.5t-84 -240.5q0 -152 89.5 -243t246.5 -91q143 0 232 96zM370 823
q0 11 7.5 19.5t17.5 8.5t17.5 -8.5t7.5 -19.5t-7.5 -19.5t-17.5 -8.5t-17.5 8.5t-7.5 19.5z" />
    <glyph glyph-name="cdotaccent" unicode="&#x10b;" horiz-adv-x="530" 
d="M489 96l17 -14q-24 -43 -81 -68t-112 -25q-123 0 -198.5 74.5t-75.5 197.5q0 118 70.5 195t191.5 77q62 0 114 -21.5t79 -60.5l-20 -15q-54 72 -178 72q-102 0 -167 -67.5t-65 -179.5q0 -114 69 -180.5t180 -66.5q109 0 176 82zM286 704q0 11 7 19t17 8t17.5 -8t7.5 -19
t-7 -18.5t-18 -7.5q-10 0 -17 7.5t-7 18.5z" />
    <glyph glyph-name="Ccaron" unicode="&#x10c;" horiz-adv-x="681" 
d="M637 112l15 -16q-35 -46 -98.5 -75.5t-148.5 -29.5q-167 0 -265 97.5t-98 261.5q0 155 93.5 257t252.5 102q87 0 152.5 -30t103.5 -74l-14 -17q-54 48 -107.5 72t-137.5 24q-148 0 -232 -93.5t-84 -240.5q0 -152 89.5 -243t246.5 -91q143 0 232 96zM579 863l-176 -96
l-176 96l12 22l164 -90l164 90z" />
    <glyph glyph-name="ccaron" unicode="&#x10d;" horiz-adv-x="530" 
d="M489 96l17 -14q-24 -43 -81 -68t-112 -25q-123 0 -198.5 74.5t-75.5 197.5q0 118 70.5 195t191.5 77q62 0 114 -21.5t79 -60.5l-20 -15q-54 72 -178 72q-102 0 -167 -67.5t-65 -179.5q0 -114 69 -180.5t180 -66.5q109 0 176 82zM435 755l-132 -118l-132 118l17 19
l115 -104l115 104z" />
    <glyph glyph-name="Dcaron" unicode="&#x10e;" horiz-adv-x="705" 
d="M84 0v700h209q98 0 171 -27t115 -75t62.5 -107.5t20.5 -130.5q0 -158 -96 -259t-279 -101h-203zM291 675h-180v-650h175q174 0 261.5 93t87.5 242q0 141 -84 228t-260 87zM466 863l-176 -96l-176 96l12 22l164 -90l164 90z" />
    <glyph glyph-name="dcaron" unicode="&#x10f;" horiz-adv-x="598" 
d="M497 0v105q-16 -37 -70.5 -75.5t-129.5 -38.5q-119 0 -188.5 74t-69.5 196q0 118 81.5 195t190.5 77q57 0 106.5 -23t79.5 -62v282h25v-730h-25zM297 16q42 0 78 14t59.5 37t38.5 44t24 42v252q-29 50 -78.5 76.5t-108.5 26.5q-98 0 -172 -70t-74 -177
q0 -112 64.5 -178.5t168.5 -66.5zM611 729h28q11 -33 11 -59q0 -37 -20.5 -69.5t-45.5 -50.5l-15 20q26 18 41 45.5t15 54.5q0 33 -14 59z" />
    <glyph glyph-name="Dcroat" unicode="&#x110;" horiz-adv-x="754" 
d="M2 333v25h131v342h209q98 0 171 -27t115 -75t62.5 -107.5t20.5 -130.5q0 -158 -96 -259t-279 -101h-203v333h-131zM340 675h-180v-317h221v-25h-221v-308h175q174 0 261.5 93t87.5 242q0 141 -84 228t-260 87z" />
    <glyph glyph-name="dcroat" unicode="&#x111;" horiz-adv-x="598" 
d="M389 611v25h108v94h25v-94h76v-25h-76v-611h-25v105q-16 -37 -70.5 -75.5t-129.5 -38.5q-119 0 -188.5 74t-69.5 196q0 118 81.5 195t190.5 77q57 0 106.5 -23t79.5 -62v163h-108zM297 16q42 0 78 14t59.5 37t38.5 44t24 42v252q-29 50 -78.5 76.5t-108.5 26.5
q-98 0 -172 -70t-74 -177q0 -112 64.5 -178.5t168.5 -66.5z" />
    <glyph glyph-name="Emacron" unicode="&#x112;" horiz-adv-x="630" 
d="M84 0v700h480v-25h-453v-306h423v-25h-423v-319h463v-25h-490zM192 810v25h289v-25h-289z" />
    <glyph glyph-name="emacron" unicode="&#x113;" horiz-adv-x="570" 
d="M496 115l19 -14q-30 -54 -86.5 -83t-120.5 -29q-122 0 -195.5 73.5t-73.5 195.5q0 120 68.5 197.5t191.5 77.5q101 0 167 -64t66 -170q0 -24 -2 -40h-466q-3 -112 66 -178.5t181 -66.5q58 0 106.5 26t78.5 75zM292 508q-100 0 -160.5 -63.5t-66.5 -160.5h442
q2 102 -56 163t-159 61zM185 669v25h244v-25h-244z" />
    <glyph glyph-name="Edotaccent" unicode="&#x116;" horiz-adv-x="630" 
d="M84 0v700h480v-25h-453v-306h423v-25h-423v-319h463v-25h-490zM300 823q0 11 7.5 19.5t17.5 8.5t17.5 -8.5t7.5 -19.5t-7.5 -19.5t-17.5 -8.5t-17.5 8.5t-7.5 19.5z" />
    <glyph glyph-name="edotaccent" unicode="&#x117;" horiz-adv-x="570" 
d="M496 115l19 -14q-30 -54 -86.5 -83t-120.5 -29q-122 0 -195.5 73.5t-73.5 195.5q0 120 68.5 197.5t191.5 77.5q101 0 167 -64t66 -170q0 -24 -2 -40h-466q-3 -112 66 -178.5t181 -66.5q58 0 106.5 26t78.5 75zM292 508q-100 0 -160.5 -63.5t-66.5 -160.5h442
q2 102 -56 163t-159 61zM280 704q0 11 7 19t17 8t17.5 -8t7.5 -19t-7 -18.5t-18 -7.5q-10 0 -17 7.5t-7 18.5z" />
    <glyph glyph-name="Eogonek" unicode="&#x118;" horiz-adv-x="630" 
d="M84 0v700h480v-25h-453v-306h423v-25h-423v-319h463v-25h-6q-50 0 -84 -25q-41 -30 -41 -77q0 -30 21 -51.5t58 -21.5q25 0 47 11l5 -24q-22 -12 -54 -12q-38 0 -70 26t-32 72q0 58 51 95q1 1 10 7h-395z" />
    <glyph glyph-name="eogonek" unicode="&#x119;" horiz-adv-x="570" 
d="M496 115l19 -14q-32 -57 -113 -95q-28 -14 -52 -38q-34 -34 -34 -72q0 -31 18.5 -51t54.5 -20q20 0 34 7l5 -24q-21 -8 -41 -8q-38 0 -67 24.5t-29 71.5q0 56 53 95q-22 -2 -36 -2q-122 0 -195.5 73.5t-73.5 195.5q0 120 68.5 197.5t191.5 77.5q101 0 167 -64t66 -170
q0 -24 -2 -40h-466q-3 -112 66 -178.5t181 -66.5q58 0 106.5 26t78.5 75zM292 508q-100 0 -160.5 -63.5t-66.5 -160.5h442q2 102 -56 163t-159 61z" />
    <glyph glyph-name="Ecaron" unicode="&#x11a;" horiz-adv-x="630" 
d="M84 0v700h480v-25h-453v-306h423v-25h-423v-319h463v-25h-490zM509 863l-176 -96l-176 96l12 22l164 -90l164 90z" />
    <glyph glyph-name="ecaron" unicode="&#x11b;" horiz-adv-x="570" 
d="M496 115l19 -14q-30 -54 -86.5 -83t-120.5 -29q-122 0 -195.5 73.5t-73.5 195.5q0 120 68.5 197.5t191.5 77.5q101 0 167 -64t66 -170q0 -24 -2 -40h-466q-3 -112 66 -178.5t181 -66.5q58 0 106.5 26t78.5 75zM292 508q-100 0 -160.5 -63.5t-66.5 -160.5h442
q2 102 -56 163t-159 61zM418 755l-132 -118l-132 118l17 19l115 -104l115 104z" />
    <glyph glyph-name="Gcircumflex" unicode="&#x11c;" horiz-adv-x="700" 
d="M422 299v25h235v-239q-112 -94 -258 -94q-156 0 -256.5 99.5t-100.5 259.5q0 150 103 254.5t249 104.5q160 0 246 -89l-13 -20q-86 84 -227 84q-143 0 -237 -95.5t-94 -238.5q0 -149 92.5 -241.5t239.5 -92.5q138 0 230 82v201h-209zM380 885l176 -96l-12 -22l-164 90
l-164 -90l-12 22z" />
    <glyph glyph-name="gcircumflex" unicode="&#x11d;" horiz-adv-x="603" 
d="M526 520v-493q0 -65 -19.5 -112.5t-53 -73.5t-72 -38t-83.5 -12q-75 0 -129.5 28.5t-78.5 70.5l19 14q40 -44 66 -59q50 -29 123 -29q93 0 148 55t55 156v78q-22 -44 -74.5 -80t-128.5 -36q-119 0 -189 76t-70 196q0 117 77.5 194.5t190.5 77.5q64 0 119 -29.5t75 -63.5
v80h25zM299 14q72 0 123.5 38.5t78.5 99.5v245q-25 49 -76.5 80t-118.5 31q-101 0 -171.5 -66.5t-70.5 -180.5q0 -113 64 -180t171 -67zM413 637l-115 103l-115 -103l-17 19l132 119l132 -119z" />
    <glyph glyph-name="Gbreve" unicode="&#x11e;" horiz-adv-x="700" 
d="M422 299v25h235v-239q-112 -94 -258 -94q-156 0 -256.5 99.5t-100.5 259.5q0 150 103 254.5t249 104.5q160 0 246 -89l-13 -20q-86 84 -227 84q-143 0 -237 -95.5t-94 -238.5q0 -149 92.5 -241.5t239.5 -92.5q138 0 230 82v201h-209zM524 886l19 -16q-59 -79 -160 -79
t-160 79l19 16q54 -70 141 -70t141 70z" />
    <glyph glyph-name="gbreve" unicode="&#x11f;" horiz-adv-x="603" 
d="M526 520v-493q0 -65 -19.5 -112.5t-53 -73.5t-72 -38t-83.5 -12q-75 0 -129.5 28.5t-78.5 70.5l19 14q40 -44 66 -59q50 -29 123 -29q93 0 148 55t55 156v78q-22 -44 -74.5 -80t-128.5 -36q-119 0 -189 76t-70 196q0 117 77.5 194.5t190.5 77.5q64 0 119 -29.5t75 -63.5
v80h25zM299 14q72 0 123.5 38.5t78.5 99.5v245q-25 49 -76.5 80t-118.5 31q-101 0 -171.5 -66.5t-70.5 -180.5q0 -113 64 -180t171 -67zM162 735l20 15q41 -65 119 -65t119 65l20 -15q-51 -75 -139 -75t-139 75z" />
    <glyph glyph-name="Gdotaccent" unicode="&#x120;" horiz-adv-x="700" 
d="M422 299v25h235v-239q-112 -94 -258 -94q-156 0 -256.5 99.5t-100.5 259.5q0 150 103 254.5t249 104.5q160 0 246 -89l-13 -20q-86 84 -227 84q-143 0 -237 -95.5t-94 -238.5q0 -149 92.5 -241.5t239.5 -92.5q138 0 230 82v201h-209zM362 823q0 11 7.5 19.5t17.5 8.5
t17.5 -8.5t7.5 -19.5t-7.5 -19.5t-17.5 -8.5t-17.5 8.5t-7.5 19.5z" />
    <glyph glyph-name="gdotaccent" unicode="&#x121;" horiz-adv-x="603" 
d="M526 520v-493q0 -65 -19.5 -112.5t-53 -73.5t-72 -38t-83.5 -12q-75 0 -129.5 28.5t-78.5 70.5l19 14q40 -44 66 -59q50 -29 123 -29q93 0 148 55t55 156v78q-22 -44 -74.5 -80t-128.5 -36q-119 0 -189 76t-70 196q0 117 77.5 194.5t190.5 77.5q64 0 119 -29.5t75 -63.5
v80h25zM299 14q72 0 123.5 38.5t78.5 99.5v245q-25 49 -76.5 80t-118.5 31q-101 0 -171.5 -66.5t-70.5 -180.5q0 -113 64 -180t171 -67zM287 704q0 11 7 19t17 8t17.5 -8t7.5 -19t-7 -18.5t-18 -7.5q-10 0 -17 7.5t-7 18.5z" />
    <glyph glyph-name="Gcommaaccent" unicode="&#x122;" horiz-adv-x="700" 
d="M422 299v25h235v-239q-112 -94 -258 -94q-156 0 -256.5 99.5t-100.5 259.5q0 150 103 254.5t249 104.5q160 0 246 -89l-13 -20q-86 84 -227 84q-143 0 -237 -95.5t-94 -238.5q0 -149 92.5 -241.5t239.5 -92.5q138 0 230 82v201h-209zM402 -73l21 14q27 -27 27 -65
q0 -29 -14 -54t-21.5 -31.5t-23.5 -19.5l-14 21q48 30 48 82q0 25 -23 53z" />
    <glyph glyph-name="gcommaaccent" unicode="&#x123;" horiz-adv-x="603" 
d="M312 637l-19 -16q-27 36 -27 66q0 59 59 104l14 -21q-48 -35 -48 -81q0 -23 21 -52zM526 520v-493q0 -65 -19.5 -112.5t-53 -73.5t-72 -38t-83.5 -12q-145 0 -208 109l19 14q65 -98 189 -98q93 0 148 55t55 156v78q-22 -44 -74.5 -80t-128.5 -36q-119 0 -189 76t-70 196
q0 117 77.5 194.5t190.5 77.5q64 0 119 -29.5t75 -63.5v80h25zM299 14q72 0 123.5 38.5t78.5 99.5v245q-25 49 -76.5 80t-118.5 31q-101 0 -171.5 -66.5t-70.5 -180.5q0 -113 64 -180t171 -67z" />
    <glyph glyph-name="Hcircumflex" unicode="&#x124;" horiz-adv-x="744" 
d="M633 0v346h-522v-346h-27v700h27v-329h522v329h27v-700h-27zM371 885l176 -96l-12 -22l-164 90l-164 -90l-12 22z" />
    <glyph glyph-name="hcircumflex" unicode="&#x125;" horiz-adv-x="596" 
d="M76 0v730h25v-322q31 56 88 90.5t123 34.5q96 0 158.5 -59.5t62.5 -175.5v-298h-25v290q0 105 -52 161.5t-143 56.5q-76 0 -128.5 -42t-83.5 -101v-365h-25zM97 846l176 -96l-12 -22l-164 90l-164 -90l-12 22z" />
    <glyph glyph-name="Hbar" unicode="&#x126;" horiz-adv-x="743" 
d="M0 531v25h83v144h27v-144h522v144h27v-144h84v-25h-84v-531h-27v346h-522v-346h-27v531h-83zM110 371h522v160h-522v-160z" />
    <glyph glyph-name="hbar" unicode="&#x127;" horiz-adv-x="596" 
d="M-1 611v25h77v94h25v-94h107v-25h-107v-203q31 56 88 90.5t123 34.5q96 0 158.5 -59.5t62.5 -175.5v-298h-25v290q0 105 -52 161.5t-143 56.5q-76 0 -128.5 -42t-83.5 -101v-365h-25v611h-77z" />
    <glyph glyph-name="Imacron" unicode="&#x12a;" horiz-adv-x="217" 
d="M95 0v700h27v-700h-27zM-36 810v25h289v-25h-289z" />
    <glyph glyph-name="imacron" unicode="&#x12b;" horiz-adv-x="211" 
d="M93 0v520h25v-520h-25zM-10 669v25h244v-25h-244z" />
    <glyph glyph-name="Iogonek" unicode="&#x12e;" horiz-adv-x="217" 
d="M123 -164l5 -24q-22 -12 -54 -12q-38 0 -70 26t-32 72q0 58 51 95q26 20 72 28v679h27v-700q-50 0 -84 -25q-41 -30 -41 -77q0 -30 21 -51.5t58 -21.5q25 0 47 11z" />
    <glyph glyph-name="iogonek" unicode="&#x12f;" horiz-adv-x="211" 
d="M126 -168l5 -24q-21 -8 -44 -8q-36 0 -64.5 21t-28.5 66q0 42 27.5 75.5t71.5 52.5v505h25v-520q-39 -10 -69 -43t-30 -70q0 -29 19 -45.5t51 -16.5q23 0 37 7zM80 698q0 11 7.5 19.5t17.5 8.5t18 -8.5t8 -19.5t-8 -19.5t-18 -8.5t-17.5 8.5t-7.5 19.5z" />
    <glyph glyph-name="Idotaccent" unicode="&#x130;" horiz-adv-x="217" 
d="M95 0v700h27v-700h-27zM83 823q0 11 7.5 19.5t17.5 8.5t17.5 -8.5t7.5 -19.5t-7.5 -19.5t-17.5 -8.5t-17.5 8.5t-7.5 19.5z" />
    <glyph glyph-name="dotlessi" unicode="&#x131;" horiz-adv-x="211" 
d="M93 0v520h25v-520h-25z" />
    <glyph glyph-name="Jcircumflex" unicode="&#x134;" horiz-adv-x="475" 
d="M400 700v-470q0 -121 -53.5 -180t-148.5 -59q-134 0 -194 120l21 16q55 -111 174 -111q79 0 126.5 53t47.5 161v470h27zM384 885l176 -96l-12 -22l-164 90l-164 -90l-12 22z" />
    <glyph glyph-name="jcircumflex" unicode="&#x135;" horiz-adv-x="216" 
d="M128 520v-529q0 -200 -140 -200q-68 0 -108 45l15 21l6.5 -6.5t9.5 -8.5t12.5 -9t17 -9t21.5 -5.5t27 -2.5q56 0 85 45.5t29 129.5v529h25zM228 637l-115 103l-115 -103l-17 19l132 119l132 -119z" />
    <glyph glyph-name="Kcommaaccent" unicode="&#x136;" horiz-adv-x="623" 
d="M84 0v700h27v-396l436 396h40l-358 -325l387 -375h-39l-368 356l-98 -89v-267h-27zM317 -73l21 14q27 -27 27 -65q0 -29 -14 -54t-21.5 -31.5t-23.5 -19.5l-14 21q48 30 48 82q0 25 -23 53z" />
    <glyph glyph-name="kcommaaccent" unicode="&#x137;" horiz-adv-x="516" 
d="M76 0v730h25v-496l330 286h37l-269 -233l306 -287h-36l-289 270l-79 -66v-204h-25zM269 -73l21 14q27 -27 27 -65q0 -29 -14 -54t-21.5 -31.5t-23.5 -19.5l-14 21q48 30 48 82q0 25 -23 53z" />
    <glyph glyph-name="Lacute" unicode="&#x139;" horiz-adv-x="572" 
d="M84 0v700h27v-675h451v-25h-478zM241 789l159 90l12 -22l-159 -90z" />
    <glyph glyph-name="lacute" unicode="&#x13a;" horiz-adv-x="185" 
d="M80 0v730h25v-730h-25zM74 784l159 90l12 -22l-159 -90z" />
    <glyph glyph-name="Lcommaaccent" unicode="&#x13b;" horiz-adv-x="572" 
d="M84 0v700h27v-675h451v-25h-478zM318 -73l21 14q27 -27 27 -65q0 -29 -14 -54t-21.5 -31.5t-23.5 -19.5l-14 21q48 30 48 82q0 25 -23 53z" />
    <glyph glyph-name="lcommaaccent" unicode="&#x13c;" horiz-adv-x="185" 
d="M80 0v730h25v-730h-25zM80 -73l21 14q27 -27 27 -65q0 -29 -14 -54t-21.5 -31.5t-23.5 -19.5l-14 21q48 30 48 82q0 25 -23 53z" />
    <glyph glyph-name="Lcaron" unicode="&#x13d;" horiz-adv-x="572" 
d="M84 0v700h27v-675h451v-25h-478zM391 699h28q11 -33 11 -59q0 -37 -20.5 -69.5t-45.5 -50.5l-15 20q26 18 41 45.5t15 54.5q0 33 -14 59z" />
    <glyph glyph-name="lcaron" unicode="&#x13e;" horiz-adv-x="185" 
d="M80 0v730h25v-730h-25zM192 729h28q11 -33 11 -59q0 -37 -20.5 -69.5t-45.5 -50.5l-15 20q26 18 41 45.5t15 54.5q0 33 -14 59z" />
    <glyph glyph-name="Ldot" unicode="&#x13f;" horiz-adv-x="572" 
d="M84 0v700h27v-675h451v-25h-478zM360 362q0 11 7 19t17 8t17.5 -8t7.5 -19t-7 -18.5t-18 -7.5q-10 0 -17 7.5t-7 18.5z" />
    <glyph glyph-name="ldot" unicode="&#x140;" horiz-adv-x="231" 
d="M80 0v730h25v-730h-25zM189 369q0 11 7 19t17 8t17.5 -8t7.5 -19t-7 -18.5t-18 -7.5q-10 0 -17 7.5t-7 18.5z" />
    <glyph glyph-name="Lslash" unicode="&#x141;" horiz-adv-x="575" 
d="M0 179v31l87 65v425h27v-405l223 167v-31l-223 -167v-239h451v-25h-478v244z" />
    <glyph glyph-name="lslash" unicode="&#x142;" horiz-adv-x="185" 
d="M0 238v31l80 60v401h25v-382l138 104v-31l-138 -104v-317h-25v298z" />
    <glyph glyph-name="Nacute" unicode="&#x143;" horiz-adv-x="734" 
d="M650 0h-27l-512 658v-658h-27v700h27l512 -658v658h27v-700zM348 789l159 90l12 -22l-159 -90z" />
    <glyph glyph-name="nacute" unicode="&#x144;" horiz-adv-x="596" 
d="M76 0v520h25v-112q74 125 226 125q93 0 149 -58t56 -176v-299h-25v292q0 107 -48 161.5t-136 54.5q-149 0 -222 -143v-365h-25zM281 637l104 145l20 -15l-103 -145z" />
    <glyph glyph-name="Ncommaaccent" unicode="&#x145;" horiz-adv-x="734" 
d="M650 0h-27l-512 658v-658h-27v700h27l512 -658v658h27v-700zM353 -73l21 14q27 -27 27 -65q0 -29 -14 -54t-21.5 -31.5t-23.5 -19.5l-14 21q48 30 48 82q0 25 -23 53z" />
    <glyph glyph-name="ncommaaccent" unicode="&#x146;" horiz-adv-x="596" 
d="M76 0v520h25v-112q74 125 226 125q93 0 149 -58t56 -176v-299h-25v292q0 107 -48 161.5t-136 54.5q-149 0 -222 -143v-365h-25zM290 -73l21 14q27 -27 27 -65q0 -29 -14 -54t-21.5 -31.5t-23.5 -19.5l-14 21q48 30 48 82q0 25 -23 53z" />
    <glyph glyph-name="Ncaron" unicode="&#x147;" horiz-adv-x="734" 
d="M650 0h-27l-512 658v-658h-27v700h27l512 -658v658h27v-700zM542 863l-176 -96l-176 96l12 22l164 -90l164 90z" />
    <glyph glyph-name="ncaron" unicode="&#x148;" horiz-adv-x="596" 
d="M76 0v520h25v-112q74 125 226 125q93 0 149 -58t56 -176v-299h-25v292q0 107 -48 161.5t-136 54.5q-149 0 -222 -143v-365h-25zM430 755l-132 -118l-132 118l17 19l115 -104l115 104z" />
    <glyph glyph-name="Omacron" unicode="&#x14c;" horiz-adv-x="785" 
d="M42 350q0 152 101 255.5t249 103.5t249 -102t101 -257q0 -153 -101.5 -256t-248.5 -103q-148 0 -249 102t-101 257zM69 350q0 -140 94.5 -237t228.5 -97q138 0 230.5 96.5t92.5 237.5t-94 237.5t-229 96.5t-229 -96.5t-94 -237.5zM248 810v25h289v-25h-289z" />
    <glyph glyph-name="omacron" unicode="&#x14d;" horiz-adv-x="618" 
d="M39 261q0 119 74.5 195.5t194.5 76.5t195.5 -76.5t75.5 -195.5t-75.5 -195.5t-195.5 -76.5t-194.5 76.5t-74.5 195.5zM64 261q0 -108 69 -177.5t175 -69.5q107 0 176.5 69.5t69.5 177.5q0 107 -70 177t-176 70t-175 -69.5t-69 -177.5zM187 669v25h244v-25h-244z" />
    <glyph glyph-name="Ohungarumlaut" unicode="&#x150;" horiz-adv-x="785" 
d="M42 350q0 152 101 255.5t249 103.5t249 -102t101 -257q0 -153 -101.5 -256t-248.5 -103q-148 0 -249 102t-101 257zM69 350q0 -140 94.5 -237t228.5 -97q138 0 230.5 96.5t92.5 237.5t-94 237.5t-229 96.5t-229 -96.5t-94 -237.5zM274 793l167 88l12 -22l-167 -88z
M426 793l167 88l12 -22l-167 -88z" />
    <glyph glyph-name="ohungarumlaut" unicode="&#x151;" horiz-adv-x="618" 
d="M39 261q0 119 74.5 195.5t194.5 76.5t195.5 -76.5t75.5 -195.5t-75.5 -195.5t-195.5 -76.5t-194.5 76.5t-74.5 195.5zM64 261q0 -108 69 -177.5t175 -69.5q107 0 176.5 69.5t69.5 177.5q0 107 -70 177t-176 70t-175 -69.5t-69 -177.5zM212 640l126 169l20 -15l-126 -169z
M341 640l126 169l20 -15l-126 -169z" />
    <glyph glyph-name="OE" unicode="&#x152;" horiz-adv-x="1227" 
d="M681 0v144q-49 -71 -124.5 -112t-164.5 -41q-148 0 -249 102t-101 257q0 152 101 255.5t249 103.5q88 0 164 -42t125 -114v147h480v-25h-453v-306h423v-25h-423v-319h463v-25h-490zM69 350q0 -140 94.5 -237t228.5 -97q95 0 172 49t117 131v305q-40 83 -117.5 133
t-171.5 50q-135 0 -229 -96.5t-94 -237.5z" />
    <glyph glyph-name="oe" unicode="&#x153;" horiz-adv-x="998" 
d="M923 115l19 -14q-30 -54 -86.5 -83t-120.5 -29q-142 0 -216 96q-30 -44 -87 -70t-124 -26q-120 0 -194.5 76.5t-74.5 195.5t74.5 195.5t194.5 76.5q136 0 212 -96q70 96 206 96q101 0 167 -64t66 -170q0 -24 -2 -40h-466q-3 -112 66 -178.5t181 -66.5q58 0 106.5 26
t78.5 75zM64 261q0 -108 69 -177.5t175 -69.5q130 0 198 90q-40 65 -40 154q0 93 40 158q-71 92 -198 92q-106 0 -175 -69.5t-69 -177.5zM719 508q-100 0 -160.5 -63.5t-66.5 -160.5h442q2 102 -56 163t-159 61z" />
    <glyph glyph-name="Racute" unicode="&#x154;" horiz-adv-x="668" 
d="M111 0h-27v700h253q258 0 258 -192q0 -80 -58 -131.5t-146 -61.5l252 -315h-33l-247 309h-252v-309zM337 675h-226v-341h227q101 0 165.5 48.5t64.5 125.5q0 167 -231 167zM251 789l159 90l12 -22l-159 -90z" />
    <glyph glyph-name="racute" unicode="&#x155;" horiz-adv-x="337" 
d="M76 0v520h25v-76q20 42 58 65t76 23q70 0 108 -48l-16 -19q-33 42 -92 42q-50 0 -87 -37t-47 -88v-382h-25zM176 637l104 145l20 -15l-103 -145z" />
    <glyph glyph-name="Rcommaaccent" unicode="&#x156;" horiz-adv-x="668" 
d="M111 0h-27v700h253q258 0 258 -192q0 -80 -58 -131.5t-146 -61.5l252 -315h-33l-247 309h-252v-309zM337 675h-226v-341h227q101 0 165.5 48.5t64.5 125.5q0 167 -231 167zM319 -73l21 14q27 -27 27 -65q0 -29 -14 -54t-21.5 -31.5t-23.5 -19.5l-14 21q48 30 48 82
q0 25 -23 53z" />
    <glyph glyph-name="rcommaaccent" unicode="&#x157;" horiz-adv-x="337" 
d="M76 0v520h25v-76q20 42 58 65t76 23q70 0 108 -48l-16 -19q-33 42 -92 42q-50 0 -87 -37t-47 -88v-382h-25zM122 -73l21 14q27 -27 27 -65q0 -29 -14 -54t-21.5 -31.5t-23.5 -19.5l-14 21q48 30 48 82q0 25 -23 53z" />
    <glyph glyph-name="Rcaron" unicode="&#x158;" horiz-adv-x="668" 
d="M111 0h-27v700h253q258 0 258 -192q0 -80 -58 -131.5t-146 -61.5l252 -315h-33l-247 309h-252v-309zM337 675h-226v-341h227q101 0 165.5 48.5t64.5 125.5q0 167 -231 167zM476 863l-176 -96l-176 96l12 22l164 -90l164 90z" />
    <glyph glyph-name="rcaron" unicode="&#x159;" horiz-adv-x="337" 
d="M76 0v520h25v-76q20 42 58 65t76 23q70 0 108 -48l-16 -19q-33 42 -92 42q-50 0 -87 -37t-47 -88v-382h-25zM339 755l-132 -118l-132 118l17 19l115 -104l115 104z" />
    <glyph glyph-name="Sacute" unicode="&#x15a;" horiz-adv-x="616" 
d="M532 178q0 47 -26 79t-68 48t-92.5 27t-101 23.5t-92.5 30.5t-68 54.5t-26 89.5q0 79 68.5 129t180.5 50q153 0 233 -83l-16 -19q-44 39 -93.5 58t-123.5 19q-52 0 -99 -13t-85 -49t-38 -91q0 -48 26 -80.5t68 -48.5t92.5 -27t101 -23t92.5 -30t68 -53.5t26 -88.5
q0 -83 -69 -136t-174 -53q-88 0 -160.5 35.5t-110.5 89.5l20 17q35 -49 100 -83t155 -34q82 0 147 44.5t65 117.5zM274 789l159 90l12 -22l-159 -90z" />
    <glyph glyph-name="sacute" unicode="&#x15b;" horiz-adv-x="497" 
d="M431 135q0 43 -39 69.5t-94.5 39.5t-111 27t-94.5 45t-39 80q0 61 56.5 99t137.5 38q57 0 107.5 -22.5t77.5 -61.5l-18 -17q-23 35 -70 55.5t-97 20.5q-69 0 -119 -29t-50 -83q0 -41 39 -67t94.5 -39t111 -28t94.5 -46t39 -81q0 -67 -59.5 -106.5t-140.5 -39.5
q-69 0 -130.5 31.5t-88.5 88.5l19 17q24 -52 80.5 -82t119.5 -30t119 30.5t56 90.5zM230 637l104 145l20 -15l-103 -145z" />
    <glyph glyph-name="Scircumflex" unicode="&#x15c;" horiz-adv-x="616" 
d="M532 178q0 47 -26 79t-68 48t-92.5 27t-101 23.5t-92.5 30.5t-68 54.5t-26 89.5q0 79 68.5 129t180.5 50q153 0 233 -83l-16 -19q-44 39 -93.5 58t-123.5 19q-52 0 -99 -13t-85 -49t-38 -91q0 -48 26 -80.5t68 -48.5t92.5 -27t101 -23t92.5 -30t68 -53.5t26 -88.5
q0 -83 -69 -136t-174 -53q-88 0 -160.5 35.5t-110.5 89.5l20 17q35 -49 100 -83t155 -34q82 0 147 44.5t65 117.5zM303 885l176 -96l-12 -22l-164 90l-164 -90l-12 22z" />
    <glyph glyph-name="scircumflex" unicode="&#x15d;" horiz-adv-x="497" 
d="M431 135q0 43 -39 69.5t-94.5 39.5t-111 27t-94.5 45t-39 80q0 61 56.5 99t137.5 38q57 0 107.5 -22.5t77.5 -61.5l-18 -17q-23 35 -70 55.5t-97 20.5q-69 0 -119 -29t-50 -83q0 -41 39 -67t94.5 -39t111 -28t94.5 -46t39 -81q0 -67 -59.5 -106.5t-140.5 -39.5
q-69 0 -130.5 31.5t-88.5 88.5l19 17q24 -52 80.5 -82t119.5 -30t119 30.5t56 90.5zM360 637l-115 103l-115 -103l-17 19l132 119l132 -119z" />
    <glyph glyph-name="Scedilla" unicode="&#x15e;" horiz-adv-x="616" 
d="M221 -180l8 23q31 -16 70 -16q75 0 75 50q0 21 -19 33.5t-52 12.5q-17 0 -24 -1v71q-77 7 -138.5 40.5t-95.5 82.5l20 17q35 -49 100 -83t155 -34q82 0 147 44.5t65 117.5q0 47 -26 79t-68 48t-92.5 27t-101 23.5t-92.5 30.5t-68 54.5t-26 89.5q0 79 68.5 129t180.5 50
q153 0 233 -83l-16 -19q-44 39 -93.5 58t-123.5 19q-52 0 -99 -13t-85 -49t-38 -91q0 -48 26 -80.5t68 -48.5t92.5 -27t101 -23t92.5 -30t68 -53.5t26 -88.5q0 -83 -69 -136t-174 -53h-10v-45q45 1 69 -19t24 -50q0 -32 -25 -53.5t-75 -21.5q-46 0 -78 18z" />
    <glyph glyph-name="scedilla" unicode="&#x15f;" horiz-adv-x="497" 
d="M169 -180l8 23q31 -16 70 -16q75 0 75 50q0 21 -19 33.5t-52 12.5q-16 0 -23 -1v69q-63 6 -115 36.5t-76 81.5l19 17q24 -52 80.5 -82t119.5 -30t119 30.5t56 90.5q0 43 -39 69.5t-94.5 39.5t-111 27t-94.5 45t-39 80q0 61 56.5 99t137.5 38q57 0 107.5 -22.5t77.5 -61.5
l-18 -17q-23 35 -70 55.5t-97 20.5q-69 0 -119 -29t-50 -83q0 -41 39 -67t94.5 -39t111 -28t94.5 -46t39 -81q0 -67 -59.5 -106.5t-140.5 -39.5h-3v-43q46 1 70 -19t24 -50q0 -32 -25 -53.5t-75 -21.5q-46 0 -78 18z" />
    <glyph glyph-name="Scaron" unicode="&#x160;" horiz-adv-x="616" 
d="M532 178q0 47 -26 79t-68 48t-92.5 27t-101 23.5t-92.5 30.5t-68 54.5t-26 89.5q0 79 68.5 129t180.5 50q153 0 233 -83l-16 -19q-44 39 -93.5 58t-123.5 19q-52 0 -99 -13t-85 -49t-38 -91q0 -48 26 -80.5t68 -48.5t92.5 -27t101 -23t92.5 -30t68 -53.5t26 -88.5
q0 -83 -69 -136t-174 -53q-88 0 -160.5 35.5t-110.5 89.5l20 17q35 -49 100 -83t155 -34q82 0 147 44.5t65 117.5zM484 863l-176 -96l-176 96l12 22l164 -90l164 90z" />
    <glyph glyph-name="scaron" unicode="&#x161;" horiz-adv-x="497" 
d="M431 135q0 43 -39 69.5t-94.5 39.5t-111 27t-94.5 45t-39 80q0 61 56.5 99t137.5 38q57 0 107.5 -22.5t77.5 -61.5l-18 -17q-23 35 -70 55.5t-97 20.5q-69 0 -119 -29t-50 -83q0 -41 39 -67t94.5 -39t111 -28t94.5 -46t39 -81q0 -67 -59.5 -106.5t-140.5 -39.5
q-69 0 -130.5 31.5t-88.5 88.5l19 17q24 -52 80.5 -82t119.5 -30t119 30.5t56 90.5zM380 755l-132 -118l-132 118l17 19l115 -104l115 104z" />
    <glyph glyph-name="Tcedilla" unicode="&#x162;" horiz-adv-x="563" 
d="M210 -180l8 23q31 -16 70 -16q75 0 75 50q0 21 -19 33.5t-52 12.5q-17 0 -24 -1v753h-263v25h553v-25h-263v-729q45 1 69 -19t24 -50q0 -32 -25 -53.5t-75 -21.5q-46 0 -78 18z" />
    <glyph glyph-name="tcedilla" unicode="&#x163;" horiz-adv-x="378" 
d="M166 -180l8 23q31 -16 70 -16q75 0 75 50q0 21 -19 33.5t-52 12.5q-16 0 -23 -1v72q-110 26 -110 204v297h-116v25h116v125h25v-125h199v-25h-199v-295q0 -97 32.5 -141.5t96.5 -44.5q32 0 60.5 16t40.5 34l14 -21q-45 -54 -115 -54q-13 0 -19 1v-44q46 1 70 -19t24 -50
q0 -32 -25 -53.5t-75 -21.5q-46 0 -78 18z" />
    <glyph glyph-name="Tcaron" unicode="&#x164;" horiz-adv-x="563" 
d="M5 675v25h553v-25h-263v-675h-27v675h-263zM457 863l-176 -96l-176 96l12 22l164 -90l164 90z" />
    <glyph glyph-name="tcaron" unicode="&#x165;" horiz-adv-x="378" 
d="M-1 495v25h116v125h25v-439q0 -104 32.5 -148t99.5 -44q31 0 58 16.5t40 33.5l14 -21q-50 -54 -116 -54q-153 0 -153 215v291h-116zM249 737h28q11 -33 11 -59q0 -37 -20.5 -69.5t-45.5 -50.5l-15 20q26 18 41 45.5t15 54.5q0 33 -14 59z" />
    <glyph glyph-name="Umacron" unicode="&#x16a;" horiz-adv-x="713" 
d="M72 291v409h25v-400q0 -134 70 -208.5t190 -74.5t189.5 74.5t69.5 208.5v400h25v-409q0 -77 -24.5 -136t-65.5 -93.5t-90 -52t-104 -17.5t-104 17.5t-90.5 52t-66 93.5t-24.5 136zM212 810v25h289v-25h-289z" />
    <glyph glyph-name="umacron" unicode="&#x16b;" horiz-adv-x="587" 
d="M511 523v-523h-25v124q-27 -61 -84 -98t-127 -37q-103 0 -157 59t-54 169v306h25v-302q0 -207 186 -207q71 0 127 43t84 119v347h25zM172 669v25h244v-25h-244z" />
    <glyph glyph-name="Ubreve" unicode="&#x16c;" horiz-adv-x="713" 
d="M72 291v409h25v-400q0 -134 70 -208.5t190 -74.5t189.5 74.5t69.5 208.5v400h25v-409q0 -77 -24.5 -136t-65.5 -93.5t-90 -52t-104 -17.5t-104 17.5t-90.5 52t-66 93.5t-24.5 136zM497 886l19 -16q-59 -79 -160 -79t-160 79l19 16q54 -70 141 -70t141 70z" />
    <glyph glyph-name="ubreve" unicode="&#x16d;" horiz-adv-x="587" 
d="M511 523v-523h-25v124q-27 -61 -84 -98t-127 -37q-103 0 -157 59t-54 169v306h25v-302q0 -207 186 -207q71 0 127 43t84 119v347h25zM152 735l20 15q41 -65 119 -65t119 65l20 -15q-51 -75 -139 -75t-139 75z" />
    <glyph glyph-name="Uring" unicode="&#x16e;" horiz-adv-x="713" 
d="M72 291v409h25v-400q0 -134 70 -208.5t190 -74.5t189.5 74.5t69.5 208.5v400h25v-409q0 -77 -24.5 -136t-65.5 -93.5t-90 -52t-104 -17.5t-104 17.5t-90.5 52t-66 93.5t-24.5 136zM272 811q0 34 24.5 57.5t59.5 23.5t60 -23.5t25 -57.5t-25 -57t-60 -23t-59.5 23
t-24.5 57zM297 811q0 -23 17 -39t42 -16t42.5 16t17.5 39t-17.5 39.5t-42.5 16.5t-42 -16.5t-17 -39.5z" />
    <glyph glyph-name="uring" unicode="&#x16f;" horiz-adv-x="587" 
d="M511 523v-523h-25v124q-27 -61 -84 -98t-127 -37q-103 0 -157 59t-54 169v306h25v-302q0 -207 186 -207q71 0 127 43t84 119v347h25zM213 701q0 35 23.5 59.5t57.5 24.5t57.5 -24.5t23.5 -59.5t-23.5 -59t-57.5 -24t-57.5 24t-23.5 59zM238 701q0 -25 16.5 -41.5
t39.5 -16.5t39.5 16.5t16.5 41.5t-16.5 42t-39.5 17t-39.5 -17t-16.5 -42z" />
    <glyph glyph-name="Uhungarumlaut" unicode="&#x170;" horiz-adv-x="713" 
d="M72 291v409h25v-400q0 -134 70 -208.5t190 -74.5t189.5 74.5t69.5 208.5v400h25v-409q0 -77 -24.5 -136t-65.5 -93.5t-90 -52t-104 -17.5t-104 17.5t-90.5 52t-66 93.5t-24.5 136zM245 793l167 88l12 -22l-167 -88zM397 793l167 88l12 -22l-167 -88z" />
    <glyph glyph-name="uhungarumlaut" unicode="&#x171;" horiz-adv-x="587" 
d="M511 523v-523h-25v124q-27 -61 -84 -98t-127 -37q-103 0 -157 59t-54 169v306h25v-302q0 -207 186 -207q71 0 127 43t84 119v347h25zM190 640l126 169l20 -15l-126 -169zM319 640l126 169l20 -15l-126 -169z" />
    <glyph glyph-name="Uogonek" unicode="&#x172;" horiz-adv-x="714" 
d="M455 -164l5 -24q-22 -12 -57 -12q-39 0 -69 23t-30 68q0 60 54 101q-127 0 -206.5 79t-79.5 220v409h27v-400q0 -134 69 -208.5t189 -74.5t188.5 74.5t68.5 208.5v400h27v-409q0 -138 -72.5 -213t-173.5 -85q-27 -15 -46.5 -42.5t-19.5 -59.5q0 -29 19.5 -47.5
t56.5 -18.5q28 0 50 11z" />
    <glyph glyph-name="uogonek" unicode="&#x173;" horiz-adv-x="587" 
d="M519 -168l5 -24q-21 -8 -44 -8q-36 0 -64.5 21t-28.5 66q0 42 27.5 75.5t71.5 52.5v109q-27 -61 -84 -98t-127 -37q-103 0 -157 59t-54 169v306h25v-302q0 -207 186 -207q71 0 127 43t84 119v347h25v-523q-39 -10 -69 -43t-30 -70q0 -29 19 -45.5t51 -16.5q23 0 37 7z
" />
    <glyph glyph-name="Ydieresis" unicode="&#x178;" horiz-adv-x="585" 
d="M585 700l-280 -442v-258h-27v258l-278 442h33l259 -415l261 415h32zM158 820q0 9 7 15t17 6t17 -6t7 -15t-7 -15t-17 -6t-17 6t-7 15zM381 820q0 9 7 15t17 6t17 -6t7 -15t-7 -15t-17 -6t-17 6t-7 15z" />
    <glyph glyph-name="Zacute" unicode="&#x179;" horiz-adv-x="626" 
d="M36 675v25h560v-23l-545 -652h555v-25h-590v22l546 653h-526zM291 789l159 90l12 -22l-159 -90z" />
    <glyph glyph-name="zacute" unicode="&#x17a;" horiz-adv-x="478" 
d="M37 495v25h421v-23l-401 -472h394v-25h-431v23l404 472h-387zM207 637l104 145l20 -15l-103 -145z" />
    <glyph glyph-name="Zdotaccent" unicode="&#x17b;" horiz-adv-x="626" 
d="M36 675v25h560v-23l-545 -652h555v-25h-590v22l546 653h-526zM288 823q0 11 7.5 19.5t17.5 8.5t17.5 -8.5t7.5 -19.5t-7.5 -19.5t-17.5 -8.5t-17.5 8.5t-7.5 19.5z" />
    <glyph glyph-name="zdotaccent" unicode="&#x17c;" horiz-adv-x="478" 
d="M37 495v25h421v-23l-401 -472h394v-25h-431v23l404 472h-387zM224 704q0 11 7 19t17 8t17.5 -8t7.5 -19t-7 -18.5t-18 -7.5q-10 0 -17 7.5t-7 18.5z" />
    <glyph glyph-name="Zcaron" unicode="&#x17d;" horiz-adv-x="626" 
d="M36 675v25h560v-23l-545 -652h555v-25h-590v22l546 653h-526zM489 863l-176 -96l-176 96l12 22l164 -90l164 90z" />
    <glyph glyph-name="zcaron" unicode="&#x17e;" horiz-adv-x="478" 
d="M37 495v25h421v-23l-401 -472h394v-25h-431v23l404 472h-387zM371 755l-132 -118l-132 118l17 19l115 -104l115 104z" />
    <glyph glyph-name="uni018F" unicode="&#x18f;" horiz-adv-x="746" 
d="M32 328q0 5 0.5 21.5t0.5 20.5h643q-8 145 -91.5 229.5t-229.5 84.5q-152 0 -252 -127l-19 18q102 134 272 134q161 0 254 -96t93 -260q0 -157 -93 -259.5t-242 -102.5q-84 0 -150.5 31.5t-105.5 82t-59.5 108t-20.5 115.5zM676 345h-617v-17q0 -127 87 -219.5t222 -92.5
q133 0 220 92.5t88 236.5z" />
    <glyph glyph-name="florin" unicode="&#x192;" horiz-adv-x="600" 
d="M360 526q-3 -13 -7.5 -39.5t-6.5 -39.5h177v-25h-181l-71 -404q-1 -5 -5.5 -30t-6 -32t-6.5 -29.5t-9 -31t-11.5 -27t-15 -26.5t-19 -20t-24 -17t-29.5 -9.5t-36 -4.5q-46 0 -79 21l10 23q28 -19 68 -19q59 0 87 38t42 116l80 452h-167v25h171l15 85q33 177 164 177
q63 0 105 -36l-12 -20q-40 31 -95 31t-88.5 -37.5t-49.5 -120.5z" />
    <glyph glyph-name="uni01DD" unicode="&#x1dd;" horiz-adv-x="570" 
d="M75 407l-19 14q35 56 92 84t122 28q121 0 191.5 -73.5t70.5 -195.5q0 -119 -66.5 -197t-184.5 -78q-103 0 -172.5 65t-69.5 177q0 27 2 43h466q0 110 -68 172t-169 62q-130 0 -195 -101zM283 14q105 0 162.5 67.5t60.5 167.5h-442q-5 -106 56 -170.5t163 -64.5z" />
    <glyph glyph-name="Scommaaccent" unicode="&#x218;" horiz-adv-x="616" 
d="M532 178q0 47 -26 79t-68 48t-92.5 27t-101 23.5t-92.5 30.5t-68 54.5t-26 89.5q0 79 68.5 129t180.5 50q153 0 233 -83l-16 -19q-44 39 -93.5 58t-123.5 19q-52 0 -99 -13t-85 -49t-38 -91q0 -48 26 -80.5t68 -48.5t92.5 -27t101 -23t92.5 -30t68 -53.5t26 -88.5
q0 -83 -69 -136t-174 -53q-88 0 -160.5 35.5t-110.5 89.5l20 17q35 -49 100 -83t155 -34q82 0 147 44.5t65 117.5zM294 -73l21 14q27 -27 27 -65q0 -29 -14 -54t-21.5 -31.5t-23.5 -19.5l-14 21q48 30 48 82q0 25 -23 53z" />
    <glyph glyph-name="scommaaccent" unicode="&#x219;" horiz-adv-x="497" 
d="M431 135q0 43 -39 69.5t-94.5 39.5t-111 27t-94.5 45t-39 80q0 61 56.5 99t137.5 38q57 0 107.5 -22.5t77.5 -61.5l-18 -17q-23 35 -70 55.5t-97 20.5q-69 0 -119 -29t-50 -83q0 -41 39 -67t94.5 -39t111 -28t94.5 -46t39 -81q0 -67 -59.5 -106.5t-140.5 -39.5
q-69 0 -130.5 31.5t-88.5 88.5l19 17q24 -52 80.5 -82t119.5 -30t119 30.5t56 90.5zM235 -73l21 14q27 -27 27 -65q0 -29 -14 -54t-21.5 -31.5t-23.5 -19.5l-14 21q48 30 48 82q0 25 -23 53z" />
    <glyph glyph-name="Tcommaaccent" unicode="&#x21a;" horiz-adv-x="563" 
d="M5 675v25h553v-25h-263v-675h-27v675h-263zM267 -73l21 14q27 -27 27 -65q0 -29 -14 -54t-21.5 -31.5t-23.5 -19.5l-14 21q48 30 48 82q0 25 -23 53z" />
    <glyph glyph-name="tcommaaccent" unicode="&#x21b;" horiz-adv-x="378" 
d="M-1 495v25h116v125h25v-125h199v-25h-199v-295q0 -97 32.5 -141.5t96.5 -44.5q32 0 60.5 16t40.5 34l14 -21q-45 -54 -115 -54q-154 0 -154 209v297h-116zM228 -73l21 14q27 -27 27 -65q0 -29 -14 -54t-21.5 -31.5t-23.5 -19.5l-14 21q48 30 48 82q0 25 -23 53z" />
    <glyph glyph-name="uni0237" unicode="&#x237;" horiz-adv-x="216" 
d="M128 520v-529q0 -200 -140 -200q-68 0 -108 45l15 21l6.5 -6.5t9.5 -8.5t12.5 -9t17 -9t21.5 -5.5t27 -2.5q56 0 85 45.5t29 129.5v529h25z" />
    <glyph glyph-name="uni0259" unicode="&#x259;" horiz-adv-x="570" 
d="M75 407l-19 14q35 56 92 84t122 28q121 0 191.5 -73.5t70.5 -195.5q0 -119 -66.5 -197t-184.5 -78q-103 0 -172.5 65t-69.5 177q0 27 2 43h466q0 110 -68 172t-169 62q-130 0 -195 -101zM283 14q105 0 162.5 67.5t60.5 167.5h-442q-5 -106 56 -170.5t163 -64.5z" />
    <glyph glyph-name="afii57929" unicode="&#x2bc;" horiz-adv-x="148" 
d="M106 711l21 14q21 -28 21 -65q0 -67 -63 -114l-14 21q52 37 52 91q0 29 -17 53z" />
    <glyph glyph-name="circumflex" unicode="&#x2c6;" horiz-adv-x="443" 
d="M425 637l-115 103l-115 -103l-17 19l132 119l132 -119z" />
    <glyph glyph-name="caron" unicode="&#x2c7;" horiz-adv-x="440" 
d="M440 755l-132 -118l-132 118l17 19l115 -104l115 104z" />
    <glyph glyph-name="breve" unicode="&#x2d8;" horiz-adv-x="436" 
d="M158 735l20 15q41 -65 119 -65t119 65l20 -15q-51 -75 -139 -75t-139 75z" />
    <glyph glyph-name="dotaccent" unicode="&#x2d9;" horiz-adv-x="250" 
d="M88 704q0 11 7 19t17 8t17.5 -8t7.5 -19t-7 -18.5t-18 -7.5q-10 0 -17 7.5t-7 18.5z" />
    <glyph glyph-name="ring" unicode="&#x2da;" horiz-adv-x="393" 
d="M231 701q0 35 23.5 59.5t57.5 24.5t57.5 -24.5t23.5 -59.5t-23.5 -59t-57.5 -24t-57.5 24t-23.5 59zM256 701q0 -25 16.5 -41.5t39.5 -16.5t39.5 16.5t16.5 41.5t-16.5 42t-39.5 17t-39.5 -17t-16.5 -42z" />
    <glyph glyph-name="ogonek" unicode="&#x2db;" horiz-adv-x="354" 
d="M349 -168l5 -24q-21 -8 -44 -8q-36 0 -64.5 21t-28.5 66q0 47 36 84.5t88 53.5v-25q-39 -10 -69 -43t-30 -70q0 -29 19 -45.5t51 -16.5q23 0 37 7z" />
    <glyph glyph-name="tilde" unicode="&#x2dc;" horiz-adv-x="455" 
d="M240 712q24 0 65 -24l11 -7q36 -22 54 -22q37 0 67 42l18 -17q-37 -50 -85 -50q-24 0 -65 24l-11 7q-36 22 -54 22q-37 0 -67 -42l-18 17q37 50 85 50z" />
    <glyph glyph-name="hungarumlaut" unicode="&#x2dd;" horiz-adv-x="518" 
d="M243 640l126 169l20 -15l-126 -169zM372 640l126 169l20 -15l-126 -169z" />
    <glyph glyph-name="gravecomb" unicode="&#x300;" horiz-adv-x="0" 
d="M-352 782l104 -145l-21 -15l-103 145z" />
    <glyph glyph-name="acutecomb" unicode="&#x301;" horiz-adv-x="0" 
d="M-332 637l104 145l20 -15l-103 -145z" />
    <glyph glyph-name="uni0394" unicode="&#x394;" horiz-adv-x="708" 
d="M40 0l300 708h27l301 -708h-628zM354 676l-276 -651h552z" />
    <glyph glyph-name="uni0394" unicode="&#x2206;" horiz-adv-x="708" 
d="M40 0l300 708h27l301 -708h-628zM354 676l-276 -651h552z" />
    <glyph glyph-name="uni03A9" unicode="&#x3a9;" horiz-adv-x="798" 
d="M87 350q0 -72 26 -132t67.5 -98t81.5 -61t79 -34v-25h-228v25h164q-88 36 -152.5 119.5t-64.5 205.5q0 151 99 254t240 103t240 -103t99 -254q0 -122 -64.5 -205.5t-152.5 -119.5h164v-25h-228v25q39 11 79 34t81.5 61t67.5 98t26 132q0 144 -93.5 238t-218.5 94
t-218.5 -94t-93.5 -238z" />
    <glyph glyph-name="uni03A9" unicode="&#x2126;" horiz-adv-x="798" 
d="M87 350q0 -72 26 -132t67.5 -98t81.5 -61t79 -34v-25h-228v25h164q-88 36 -152.5 119.5t-64.5 205.5q0 151 99 254t240 103t240 -103t99 -254q0 -122 -64.5 -205.5t-152.5 -119.5h164v-25h-228v25q39 11 79 34t81.5 61t67.5 98t26 132q0 144 -93.5 238t-218.5 94
t-218.5 -94t-93.5 -238z" />
    <glyph glyph-name="pi" unicode="&#x3c0;" horiz-adv-x="730" 
d="M52 495v25h640v-25h-147v-359q0 -111 89 -111q34 0 65 23l8 -24q-31 -24 -73 -24q-49 0 -81.5 32t-32.5 95v368h-299v-71q0 -199 -29 -286q-21 -62 -63.5 -98t-99.5 -40v25q98 5 139 120q28 77 28 271v79h-144z" />
    <glyph glyph-name="afii10023" unicode="&#x401;" horiz-adv-x="630" 
d="M84 0v700h480v-25h-453v-306h423v-25h-423v-319h463v-25h-490zM195 820q0 9 7 15t17 6t17 -6t7 -15t-7 -15t-17 -6t-17 6t-7 15zM418 820q0 9 7 15t17 6t17 -6t7 -15t-7 -15t-17 -6t-17 6t-7 15z" />
    <glyph glyph-name="afii10051" unicode="&#x402;" horiz-adv-x="717" 
d="M647 204q0 185 -172 185q-49 0 -97 -25.5t-82 -74.5v-289h-27v675h-264v25h554v-25h-263v-350q74 89 181 89q92 0 144.5 -53.5t52.5 -162.5q0 -105 -43.5 -156t-108.5 -51q-55 0 -89 41l20 18q25 -34 66 -34q60 0 94 45.5t34 142.5z" />
    <glyph glyph-name="afii10052" unicode="&#x403;" horiz-adv-x="554" 
d="M84 0v700h470v-25h-443v-675h-27zM275 789l159 90l12 -22l-159 -90z" />
    <glyph glyph-name="afii10053" unicode="&#x404;" horiz-adv-x="679" 
d="M472 370v-26h-403q3 -153 93.5 -240.5t239.5 -87.5q150 0 235 96l15 -16q-39 -52 -106 -78.5t-138 -26.5q-169 0 -267.5 97.5t-98.5 261.5q0 158 94.5 258.5t259.5 100.5q70 0 135.5 -26t112.5 -78l-14 -17q-104 96 -234 96q-155 0 -237 -86t-89 -228h402z" />
    <glyph glyph-name="afii10054" unicode="&#x405;" horiz-adv-x="616" 
d="M532 178q0 47 -26 79t-68 48t-92.5 27t-101 23.5t-92.5 30.5t-68 54.5t-26 89.5q0 79 68.5 129t180.5 50q153 0 233 -83l-16 -19q-44 39 -93.5 58t-123.5 19q-52 0 -99 -13t-85 -49t-38 -91q0 -48 26 -80.5t68 -48.5t92.5 -27t101 -23t92.5 -30t68 -53.5t26 -88.5
q0 -83 -69 -136t-174 -53q-88 0 -160.5 35.5t-110.5 89.5l20 17q35 -49 100 -83t155 -34q82 0 147 44.5t65 117.5z" />
    <glyph glyph-name="afii10055" unicode="&#x406;" horiz-adv-x="217" 
d="M95 0v700h27v-700h-27z" />
    <glyph glyph-name="afii10056" unicode="&#x407;" horiz-adv-x="217" 
d="M22 801q0 9 6 15.5t14 6.5t14 -6.5t6 -15.5t-6 -15.5t-14 -6.5t-14 6.5t-6 15.5zM155 801q0 9 6 15.5t14 6.5t14 -6.5t6 -15.5t-6 -15.5t-14 -6.5t-14 6.5t-6 15.5zM95 0v700h27v-700h-27z" />
    <glyph glyph-name="afii10057" unicode="&#x408;" horiz-adv-x="475" 
d="M400 700v-470q0 -121 -53.5 -180t-148.5 -59q-134 0 -194 120l21 16q55 -111 174 -111q79 0 126.5 53t47.5 161v470h27z" />
    <glyph glyph-name="afii10058" unicode="&#x409;" horiz-adv-x="1010" 
d="M535 0v675h-322l-10 -146q-18 -236 -46 -342q-51 -188 -144 -188q-3 0 -7 0.5t-6 0.5v25q85 -3 130 168q32 123 48 373l9 134h375v-287h166q121 0 185 -53.5t64 -148.5q0 -105 -68.5 -158t-193.5 -53h-180zM728 388h-166v-363h152q113 0 174.5 46.5t61.5 139.5
q0 84 -57.5 130.5t-164.5 46.5z" />
    <glyph glyph-name="afii10059" unicode="&#x40a;" horiz-adv-x="1046" 
d="M597 398h166q124 0 187 -50t63 -142q0 -104 -68.5 -155t-193.5 -51h-181v373h-459v-373h-27v700h27v-302h459v302h27v-302zM761 373h-164v-348h152q237 0 237 181q0 83 -57.5 125t-167.5 42z" />
    <glyph glyph-name="afii10060" unicode="&#x40b;" horiz-adv-x="725" 
d="M5 675v25h554v-25h-263v-349q73 88 191 88q87 0 141.5 -54.5t54.5 -165.5v-194h-27v185q0 102 -42 153t-134 51q-55 0 -104 -27.5t-80 -72.5v-289h-27v675h-264z" />
    <glyph glyph-name="afii10061" unicode="&#x40c;" horiz-adv-x="623" 
d="M84 0v700h27v-396l436 396h40l-358 -325l387 -375h-39l-368 356l-98 -89v-267h-27zM272 789l159 90l12 -22l-159 -90z" />
    <glyph glyph-name="afii10062" unicode="&#x40e;" horiz-adv-x="647" 
d="M205 6l11 23q12 -4 19 -4q30 0 56 33t61 105l-352 537h32l334 -508l252 508h29l-271 -545q-46 -93 -75 -124t-68 -31q-15 0 -28 6zM174 838l22 8q36 -75 138 -75t138 74l22 -7q-37 -92 -160 -92q-124 0 -160 92z" />
    <glyph glyph-name="afii10145" unicode="&#x40f;" horiz-adv-x="701" 
d="M84 0v700h27v-675h479v675h27v-700h-253v-162h-27v162h-253z" />
    <glyph glyph-name="afii10017" unicode="&#x410;" horiz-adv-x="656" 
d="M6 0l307 704h27l310 -704h-29l-100 228h-388l-99 -228h-28zM326 674l-181 -421h366z" />
    <glyph glyph-name="afii10018" unicode="&#x411;" horiz-adv-x="655" 
d="M556 700v-25h-445v-288h250q250 0 250 -185q0 -102 -66.5 -152t-190.5 -50h-270v700h472zM367 362h-256v-337h250q223 0 223 176q0 161 -217 161z" />
    <glyph glyph-name="afii10019" unicode="&#x412;" horiz-adv-x="658" 
d="M84 0v700h265q238 0 238 -169q0 -64 -34.5 -108.5t-101.5 -60.5q73 -4 118 -50.5t45 -119.5q0 -192 -262 -192h-268zM359 346h-248v-321h238q238 0 238 168q0 153 -228 153zM347 675h-236v-304h251q89 0 143.5 42t54.5 115q0 74 -49.5 110.5t-163.5 36.5z" />
    <glyph glyph-name="afii10020" unicode="&#x413;" horiz-adv-x="554" 
d="M84 0v700h470v-25h-443v-675h-27z" />
    <glyph glyph-name="afii10021" unicode="&#x414;" horiz-adv-x="728" 
d="M0 -138v163h72q33 49 55.5 111.5t35 140.5t18 131t10.5 138l5 154h426v-675h96v-163h-27v138h-664v-138h-27zM222 675l-6 -150q-7 -104 -15.5 -173.5t-33 -163t-64.5 -163.5h492v650h-373z" />
    <glyph glyph-name="afii10022" unicode="&#x415;" horiz-adv-x="630" 
d="M84 0v700h480v-25h-453v-306h423v-25h-423v-319h463v-25h-490z" />
    <glyph glyph-name="afii10024" unicode="&#x416;" horiz-adv-x="890" 
d="M431 339v361h27v-361l376 361h36l-332 -319l346 -381h-34l-330 363l-62 -59v-304h-27v304l-62 59l-330 -363h-34l346 381l-332 319h36z" />
    <glyph glyph-name="afii10025" unicode="&#x417;" horiz-adv-x="636" 
d="M204 371h136q70 0 129 40t59 109q0 77 -62.5 120.5t-157.5 43.5q-158 0 -253 -128l-19 17q98 136 272 136q109 0 178 -50t69 -139q0 -58 -39 -100.5t-97 -58.5q71 -13 116.5 -55t45.5 -112q0 -94 -76.5 -148.5t-190.5 -54.5q-185 0 -289 131l18 18q53 -63 114 -93.5
t158 -30.5q103 0 171 47.5t68 130.5q0 51 -32.5 87t-78 50.5t-97.5 14.5h-142v25z" />
    <glyph glyph-name="afii10026" unicode="&#x418;" horiz-adv-x="731" 
d="M111 0h-27v700h27v-659l509 659h27v-700h-27v659z" />
    <glyph glyph-name="afii10027" unicode="&#x419;" horiz-adv-x="731" 
d="M111 0h-27v700h27v-659l509 659h27v-700h-27v659zM205 838l22 8q36 -75 138 -75t138 74l22 -7q-37 -92 -160 -92q-124 0 -160 92z" />
    <glyph glyph-name="afii10028" unicode="&#x41a;" horiz-adv-x="623" 
d="M84 0v700h27v-396l436 396h40l-358 -325l387 -375h-39l-368 356l-98 -89v-267h-27z" />
    <glyph glyph-name="afii10029" unicode="&#x41b;" horiz-adv-x="692" 
d="M581 0v675h-383l-5 -146q-1 -35 -2 -57.5t-3.5 -63.5t-6 -70.5t-8.5 -70t-12 -69.5t-16.5 -62t-22.5 -56t-28.5 -42.5t-36 -29t-43.5 -9.5q-2 0 -14 1v24h6q27 0 49 15t38 46t28 62.5t20 81.5t12.5 85.5t8 92.5t4.5 83.5t2 75.5l4 134h436v-700h-27z" />
    <glyph glyph-name="afii10030" unicode="&#x41c;" horiz-adv-x="824" 
d="M84 0v700h27l301 -437l301 437h27v-700h-27v653l-301 -433l-301 433v-653h-27z" />
    <glyph glyph-name="afii10031" unicode="&#x41d;" horiz-adv-x="744" 
d="M633 0v346h-522v-346h-27v700h27v-329h522v329h27v-700h-27z" />
    <glyph glyph-name="afii10032" unicode="&#x41e;" horiz-adv-x="785" 
d="M42 350q0 152 101 255.5t249 103.5t249 -102t101 -257q0 -153 -101.5 -256t-248.5 -103q-148 0 -249 102t-101 257zM69 350q0 -140 94.5 -237t228.5 -97q138 0 230.5 96.5t92.5 237.5t-94 237.5t-229 96.5t-229 -96.5t-94 -237.5z" />
    <glyph glyph-name="afii10033" unicode="&#x41f;" horiz-adv-x="736" 
d="M625 0v675h-514v-675h-27v700h568v-700h-27z" />
    <glyph glyph-name="afii10034" unicode="&#x420;" horiz-adv-x="666" 
d="M111 0h-27v700h262q83 0 140 -16.5t85.5 -46.5t40 -63t11.5 -74q0 -89 -66.5 -147t-211.5 -58h-234v-295zM351 675h-240v-355h232q128 0 190.5 49t62.5 132q0 174 -245 174z" />
    <glyph glyph-name="afii10035" unicode="&#x421;" horiz-adv-x="681" 
d="M637 112l15 -16q-35 -46 -98.5 -75.5t-148.5 -29.5q-167 0 -265 97.5t-98 261.5q0 155 93.5 257t252.5 102q87 0 152.5 -30t103.5 -74l-14 -17q-54 48 -107.5 72t-137.5 24q-148 0 -232 -93.5t-84 -240.5q0 -152 89.5 -243t246.5 -91q143 0 232 96z" />
    <glyph glyph-name="afii10036" unicode="&#x422;" horiz-adv-x="563" 
d="M5 675v25h553v-25h-263v-675h-27v675h-263z" />
    <glyph glyph-name="afii10037" unicode="&#x423;" horiz-adv-x="647" 
d="M205 6l11 23q12 -4 19 -4q30 0 56 33t61 105l-352 537h32l334 -508l252 508h29l-271 -545q-46 -93 -75 -124t-68 -31q-15 0 -28 6z" />
    <glyph glyph-name="afii10038" unicode="&#x424;" horiz-adv-x="871" 
d="M422 -15v90q-177 0 -279 74t-102 211q0 96 53 162t137 95t191 28v70h27v-70q77 0 143 -16t120.5 -48.5t86 -88.5t31.5 -130q0 -137 -102 -212t-279 -75v-90h-27zM449 620v-520q165 0 259.5 67t94.5 195q0 125 -94.5 191.5t-259.5 66.5zM422 620q-74 0 -136 -14
t-112 -43.5t-78 -81t-28 -121.5q0 -129 95 -194.5t259 -65.5v520z" />
    <glyph glyph-name="afii10039" unicode="&#x425;" horiz-adv-x="613" 
d="M547 700h31l-256 -343l266 -357h-31l-250 336l-251 -336h-31l266 357l-255 343h31l240 -322z" />
    <glyph glyph-name="afii10040" unicode="&#x426;" horiz-adv-x="740" 
d="M84 0v700h27v-675h496v675h27v-675h96v-163h-27v138h-619z" />
    <glyph glyph-name="afii10041" unicode="&#x427;" horiz-adv-x="662" 
d="M578 700v-700h-27v332q-43 -26 -109.5 -43.5t-130.5 -17.5q-259 0 -259 213v216h27v-217q0 -187 232 -187q60 0 126 17t114 47v340h27z" />
    <glyph glyph-name="afii10042" unicode="&#x428;" horiz-adv-x="913" 
d="M84 0v700h27v-675h332v675h27v-675h332v675h27v-700h-745z" />
    <glyph glyph-name="afii10043" unicode="&#x429;" horiz-adv-x="935" 
d="M84 0v700h27v-675h332v675h27v-675h332v675h27v-675h96v-163h-27v138h-814z" />
    <glyph glyph-name="afii10044" unicode="&#x42a;" horiz-adv-x="744" 
d="M0 675v25h209v-287h234q133 0 200.5 -52t67.5 -146q0 -215 -273 -215h-256v675h-182zM443 388h-234v-363h234q241 0 241 190q0 83 -62 128t-179 45z" />
    <glyph glyph-name="afii10045" unicode="&#x42b;" horiz-adv-x="825" 
d="M714 0v700h27v-700h-27zM316 388h-205v-363h205q241 0 241 191q0 83 -62 127.5t-179 44.5zM111 700v-287h205q133 0 200.5 -51.5t67.5 -145.5q0 -216 -273 -216h-227v700h27z" />
    <glyph glyph-name="afii10046" unicode="&#x42c;" horiz-adv-x="646" 
d="M345 388h-234v-363h234q241 0 241 190q0 83 -62 128t-179 45zM111 700v-287h234q133 0 200.5 -52t67.5 -146q0 -215 -273 -215h-256v700h27z" />
    <glyph glyph-name="afii10047" unicode="&#x42d;" horiz-adv-x="684" 
d="M194 345v25h421q-8 146 -88 230t-222 84q-80 0 -150 -35t-112 -90l-20 16q50 65 127.5 99.5t154.5 34.5q157 0 247 -96t90 -260q0 -161 -91 -261.5t-255 -100.5q-78 0 -150.5 29.5t-118.5 87.5l18 18q94 -110 252 -110q143 0 226.5 84.5t91.5 244.5h-421z" />
    <glyph glyph-name="afii10048" unicode="&#x42e;" horiz-adv-x="979" 
d="M84 0v700h27v-330h166q8 143 100 241t229 98q142 0 236 -101.5t94 -257.5q0 -155 -93.5 -257t-238.5 -102q-144 0 -233.5 99.5t-93.5 254.5h-166v-345h-27zM304 352q0 -149 83.5 -242.5t217.5 -93.5q135 0 219.5 95.5t84.5 238.5t-85.5 238.5t-216.5 95.5
q-130 0 -216.5 -95t-86.5 -237z" />
    <glyph glyph-name="afii10049" unicode="&#x42f;" horiz-adv-x="674" 
d="M563 0v286h-261l-247 -286h-33l249 289q-88 11 -146.5 64t-58.5 138q0 90 65.5 149.5t193.5 59.5h265v-700h-27zM563 675h-247q-111 0 -167 -53t-56 -131q0 -73 51 -121t145 -59h274v364z" />
    <glyph glyph-name="afii10065" unicode="&#x430;" horiz-adv-x="528" 
d="M82 442l-15 18q34 34 85.5 53.5t97.5 19.5q215 0 215 -206v-327h-25v116q-69 -123 -213 -123q-90 0 -143.5 40t-53.5 107q0 80 56 117t176 37q103 0 178 -20v50q0 90 -45.5 137t-147.5 47q-90 0 -165 -66zM227 18q82 0 137 47t76 99v82q-75 23 -179 23q-105 0 -155.5 -31
t-50.5 -97q0 -58 48 -90.5t124 -32.5z" />
    <glyph glyph-name="afii10066" unicode="&#x431;" horiz-adv-x="605" 
d="M500 743l3 -24q-37 -12 -106.5 -19.5t-127 -19.5t-89.5 -37q-105 -83 -118 -273h4q37 71 103 108t141 37q121 0 189 -70t68 -190q0 -109 -75 -187t-184 -78q-123 0 -197 81.5t-74 230.5q0 128 29 214t97 141q39 31 99 44t129.5 20.5t108.5 21.5zM62 295q1 -136 70 -208
t175 -72q99 0 167 70.5t68 169.5q0 109 -61.5 172t-170.5 63q-102 0 -167 -60t-81 -135z" />
    <glyph glyph-name="afii10067" unicode="&#x432;" horiz-adv-x="548" 
d="M76 0v520h209q197 0 197 -133q0 -45 -26 -76t-73 -42q120 -24 120 -125q0 -144 -215 -144h-212zM311 254h-210v-229h188q98 0 143.5 29t45.5 90q0 110 -167 110zM286 495h-185v-216h209q70 0 108.5 27t38.5 81q0 59 -44 83.5t-127 24.5z" />
    <glyph glyph-name="afii10068" unicode="&#x433;" horiz-adv-x="428" 
d="M76 0v520h354v-25h-329v-495h-25z" />
    <glyph glyph-name="afii10069" unicode="&#x434;" horiz-adv-x="596" 
d="M4 -140v165h55q56 86 75.5 189.5t19.5 250.5v55h351v-495h80v-165h-25v140h-531v-140h-25zM179 495v-35q0 -152 -19 -248.5t-71 -186.5h391v470h-301z" />
    <glyph glyph-name="afii10070" unicode="&#x435;" horiz-adv-x="570" 
d="M496 115l19 -14q-30 -54 -86.5 -83t-120.5 -29q-122 0 -195.5 73.5t-73.5 195.5q0 120 68.5 197.5t191.5 77.5q101 0 167 -64t66 -170q0 -24 -2 -40h-466q-3 -112 66 -178.5t181 -66.5q58 0 106.5 26t78.5 75zM292 508q-100 0 -160.5 -63.5t-66.5 -160.5h442
q2 102 -56 163t-159 61z" />
    <glyph glyph-name="afii10072" unicode="&#x436;" horiz-adv-x="745" 
d="M357 244v276h25v-276l300 276h37l-266 -245l283 -275h-36l-268 260l-50 -46v-214h-25v214l-51 47l-267 -261h-36l283 275l-266 245h37z" />
    <glyph glyph-name="afii10073" unicode="&#x437;" horiz-adv-x="522" 
d="M257 -11q-79 0 -137.5 30t-90.5 78l20 15q68 -98 207 -98q85 0 140.5 38.5t55.5 97.5q0 50 -40 76.5t-112 26.5h-129v25h123q59 0 96.5 31.5t37.5 85.5t-42.5 83.5t-122.5 29.5q-126 0 -192 -85l-20 15q75 95 212 95q90 0 142 -38t52 -100q0 -44 -25.5 -78.5t-70.5 -47.5
q59 -9 87.5 -41.5t28.5 -77.5q0 -76 -66.5 -118.5t-153.5 -42.5z" />
    <glyph glyph-name="afii10074" unicode="&#x438;" horiz-adv-x="608" 
d="M101 0h-25v520h25v-483l406 483h25v-520h-25v482z" />
    <glyph glyph-name="afii10075" unicode="&#x439;" horiz-adv-x="608" 
d="M101 0h-25v520h25v-483l406 483h25v-520h-25v482zM154 708h25q1 -49 35.5 -80.5t89.5 -31.5t89.5 31.5t35.5 80.5h25q-1 -58 -42 -97.5t-108 -39.5t-108 39.5t-42 97.5z" />
    <glyph glyph-name="afii10076" unicode="&#x43a;" horiz-adv-x="510" 
d="M76 0v520h25v-280l341 280h39l-300 -246l321 -274h-38l-306 258l-57 -46v-212h-25z" />
    <glyph glyph-name="afii10077" unicode="&#x43b;" horiz-adv-x="584" 
d="M483 0v495h-313v-24q0 -84 -2.5 -144.5t-9 -118t-18 -94.5t-30 -65.5t-45 -40.5t-62.5 -11l-1 25q37 -3 62.5 15t41.5 52t25 93.5t12 126.5t3 165v46h362v-520h-25z" />
    <glyph glyph-name="afii10078" unicode="&#x43c;" horiz-adv-x="677" 
d="M76 0v520h25l237 -317l237 317h25v-520h-25v478l-237 -317l-237 317v-478h-25z" />
    <glyph glyph-name="afii10079" unicode="&#x43d;" horiz-adv-x="600" 
d="M499 0v254h-398v-254h-25v520h25v-241h398v241h25v-520h-25z" />
    <glyph glyph-name="afii10080" unicode="&#x43e;" horiz-adv-x="618" 
d="M39 261q0 119 74.5 195.5t194.5 76.5t195.5 -76.5t75.5 -195.5t-75.5 -195.5t-195.5 -76.5t-194.5 76.5t-74.5 195.5zM64 261q0 -108 69 -177.5t175 -69.5q107 0 176.5 69.5t69.5 177.5q0 107 -70 177t-176 70t-175 -69.5t-69 -177.5z" />
    <glyph glyph-name="afii10081" unicode="&#x43f;" horiz-adv-x="594" 
d="M493 0v495h-392v-495h-25v520h442v-520h-25z" />
    <glyph glyph-name="afii10082" unicode="&#x440;" horiz-adv-x="602" 
d="M76 -200v720h25v-112q35 60 91 92.5t120 32.5q107 0 179.5 -75t72.5 -189q0 -120 -73.5 -200t-185.5 -80q-125 0 -204 90v-279h-25zM311 508q-132 0 -210 -142v-240q63 -112 210 -112q95 0 161.5 73t66.5 182q0 103 -67 171t-161 68z" />
    <glyph glyph-name="afii10083" unicode="&#x441;" horiz-adv-x="530" 
d="M489 96l17 -14q-24 -43 -81 -68t-112 -25q-123 0 -198.5 74.5t-75.5 197.5q0 118 70.5 195t191.5 77q62 0 114 -21.5t79 -60.5l-20 -15q-54 72 -178 72q-102 0 -167 -67.5t-65 -179.5q0 -114 69 -180.5t180 -66.5q109 0 176 82z" />
    <glyph glyph-name="afii10084" unicode="&#x442;" horiz-adv-x="454" 
d="M-6 495v25h466v-25h-222v-495h-25v495h-219z" />
    <glyph glyph-name="afii10085" unicode="&#x443;" horiz-adv-x="524" 
d="M89 -202l7 25q18 -7 32 -7q42 0 74.5 35t72.5 136l6 15l-274 518h29l259 -490l199 490h27l-215 -529q-27 -65 -49.5 -106t-44 -61t-40 -26.5t-44.5 -6.5q-22 0 -39 7z" />
    <glyph glyph-name="afii10086" unicode="&#x444;" horiz-adv-x="691" 
d="M333 -200v190q-138 0 -216.5 75t-78.5 194q0 114 77 192t218 78v201h25v-201q138 0 216.5 -75.5t78.5 -194.5t-79.5 -194t-215.5 -75v-190h-25zM63 259q0 -109 70 -176.5t200 -67.5v489q-126 0 -198 -69.5t-72 -175.5zM358 504v-489q128 0 199 68t71 176q0 102 -70 173.5
t-200 71.5z" />
    <glyph glyph-name="afii10087" unicode="&#x445;" horiz-adv-x="493" 
d="M434 520h33l-204 -253l215 -267h-32l-200 246l-199 -246h-32l215 267l-204 253h33l187 -233z" />
    <glyph glyph-name="afii10088" unicode="&#x446;" horiz-adv-x="607" 
d="M76 0v520h25v-495h389v495h25v-495h81v-165h-25v140h-495z" />
    <glyph glyph-name="afii10089" unicode="&#x447;" horiz-adv-x="536" 
d="M460 520v-520h-25v226q-91 -42 -185 -42q-104 0 -155 45.5t-51 144.5v146h25v-147q0 -90 45 -127t134 -37q101 0 187 44v267h25z" />
    <glyph glyph-name="afii10090" unicode="&#x448;" horiz-adv-x="747" 
d="M76 0v520h25v-495h260v495h25v-495h260v495h25v-520h-595z" />
    <glyph glyph-name="afii10091" unicode="&#x449;" horiz-adv-x="764" 
d="M77 0v520h25v-495h260v495h25v-495h260v495h25v-495h81v-165h-25v140h-651z" />
    <glyph glyph-name="afii10092" unicode="&#x44a;" horiz-adv-x="589" 
d="M150 0v495h-151v25h176v-186h174q108 0 157.5 -45.5t49.5 -119.5t-49 -121.5t-158 -47.5h-199zM345 309h-170v-284h173q183 0 183 144q0 140 -186 140z" />
    <glyph glyph-name="afii10093" unicode="&#x44b;" horiz-adv-x="678" 
d="M577 0v520h25v-520h-25zM76 0v520h25v-186h150q108 0 157.5 -45.5t49.5 -119.5t-49 -121.5t-158 -47.5h-175zM247 309h-146v-284h149q183 0 183 144q0 140 -186 140z" />
    <glyph glyph-name="afii10094" unicode="&#x44c;" horiz-adv-x="515" 
d="M76 0v520h25v-186h174q108 0 157.5 -45.5t49.5 -119.5t-49 -121.5t-158 -47.5h-199zM271 309h-170v-284h173q183 0 183 144q0 140 -186 140z" />
    <glyph glyph-name="afii10095" unicode="&#x44d;" horiz-adv-x="534" 
d="M155 254v25h316q-2 102 -68.5 165.5t-166.5 63.5q-129 0 -203 -100l-19 17q82 108 222 108q114 0 187 -73.5t73 -196.5q0 -119 -70 -196.5t-189 -77.5q-141 0 -220 95l18 18q68 -88 203 -88q102 0 167.5 69.5t65.5 170.5h-316z" />
    <glyph glyph-name="afii10096" unicode="&#x44e;" horiz-adv-x="803" 
d="M76 0v520h25v-240h132q8 109 84.5 181t184.5 72q116 0 189 -75.5t73 -194.5q0 -118 -75.5 -196t-188.5 -78t-188 75.5t-79 190.5h-132v-255h-25zM258 261q0 -106 71 -176.5t172 -70.5q100 0 169 71t69 178q0 106 -67 175.5t-169 69.5t-173.5 -71t-71.5 -176z" />
    <glyph glyph-name="afii10097" unicode="&#x44f;" horiz-adv-x="535" 
d="M249 520h209v-520h-25v211h-184l-201 -211h-34l203 213q-72 4 -120.5 42.5t-48.5 108.5q0 69 48.5 112.5t152.5 43.5zM73 364q0 -64 47.5 -96t128.5 -32h184v259h-184q-90 0 -133 -35t-43 -96z" />
    <glyph glyph-name="afii10071" unicode="&#x451;" horiz-adv-x="570" 
d="M496 115l19 -14q-30 -54 -86.5 -83t-120.5 -29q-122 0 -195.5 73.5t-73.5 195.5q0 120 68.5 197.5t191.5 77.5q101 0 167 -64t66 -170q0 -24 -2 -40h-466q-3 -112 66 -178.5t181 -66.5q58 0 106.5 26t78.5 75zM292 508q-100 0 -160.5 -63.5t-66.5 -160.5h442
q2 102 -56 163t-159 61zM142 703q0 11 6.5 18.5t16.5 7.5t17 -7.5t7 -18.5t-7 -18.5t-17 -7.5t-16.5 7.5t-6.5 18.5zM397 703q0 11 6.5 18.5t16.5 7.5t17 -7.5t7 -18.5t-7 -18.5t-17 -7.5t-16.5 7.5t-6.5 18.5z" />
    <glyph glyph-name="afii10099" unicode="&#x452;" horiz-adv-x="649" 
d="M0 521v25h152v184h25v-184h246v-25h-246v-249q33 56 88.5 90.5t115.5 34.5q104 0 165.5 -58.5t61.5 -174.5q0 -129 -55.5 -218t-171.5 -146l-10 25q98 40 155 125.5t57 198.5q0 223 -202 223q-64 0 -118.5 -42t-85.5 -100v-230h-25v521h-152z" />
    <glyph glyph-name="afii10100" unicode="&#x453;" horiz-adv-x="428" 
d="M76 0v520h354v-25h-329v-495h-25zM369 767l-109 -141l-20 15l109 141z" />
    <glyph glyph-name="afii10101" unicode="&#x454;" horiz-adv-x="542" 
d="M365 279v-25h-301q4 -115 74 -177.5t177 -62.5q109 0 174 84l16 -16q-66 -93 -200 -93q-117 0 -191.5 76t-74.5 196q0 121 76 196.5t198 75.5t183 -85l-16 -18q-54 78 -169 78q-104 0 -172 -61t-75 -168h301z" />
    <glyph glyph-name="afii10102" unicode="&#x455;" horiz-adv-x="497" 
d="M431 135q0 43 -39 69.5t-94.5 39.5t-111 27t-94.5 45t-39 80q0 61 56.5 99t137.5 38q57 0 107.5 -22.5t77.5 -61.5l-18 -17q-23 35 -70 55.5t-97 20.5q-69 0 -119 -29t-50 -83q0 -41 39 -67t94.5 -39t111 -28t94.5 -46t39 -81q0 -67 -59.5 -106.5t-140.5 -39.5
q-69 0 -130.5 31.5t-88.5 88.5l19 17q24 -52 80.5 -82t119.5 -30t119 30.5t56 90.5z" />
    <glyph glyph-name="afii10103" unicode="&#x456;" horiz-adv-x="207" 
d="M91 0v520h25v-520h-25zM78 698q0 11 7.5 19.5t17.5 8.5t18 -8.5t8 -19.5t-8 -19.5t-18 -8.5t-17.5 8.5t-7.5 19.5z" />
    <glyph glyph-name="afii10104" unicode="&#x457;" horiz-adv-x="225" 
d="M100 0v520h25v-520h-25zM21 703q0 11 6 18.5t15 7.5q10 0 16 -7.5t6 -18.5t-6 -18.5t-16 -7.5q-9 0 -15 7.5t-6 18.5zM161 703q0 11 6 18.5t15 7.5q10 0 16 -7.5t6 -18.5t-6 -18.5t-16 -7.5q-9 0 -15 7.5t-6 18.5z" />
    <glyph glyph-name="afii10105" unicode="&#x458;" horiz-adv-x="204" 
d="M116 520v-529q0 -200 -140 -200q-68 0 -108 45l15 21l6.5 -6.5t9.5 -8.5t12.5 -9t17 -9t21.5 -5.5t27 -2.5q56 0 85 45.5t29 129.5v529h25zM79 700q0 11 8 18.5t17 7.5t16.5 -7.5t7.5 -18.5q0 -13 -7.5 -21.5t-16.5 -8.5q-10 0 -17.5 8.5t-7.5 21.5z" />
    <glyph glyph-name="afii10106" unicode="&#x459;" horiz-adv-x="843" 
d="M483 0v495h-303l-7 -139q-6 -143 -29 -209q-16 -47 -43.5 -82t-48 -48t-39.5 -20l-11 25q84 28 120 138q17 52 26 205l8 155h352v-186h106q196 0 196 -164q0 -75 -48 -122.5t-157 -47.5h-122zM614 309h-106v-284h96q181 0 181 145q0 68 -38.5 103.5t-132.5 35.5z" />
    <glyph glyph-name="afii10107" unicode="&#x45a;" horiz-adv-x="860" 
d="M76 0v520h25v-225h398v225h25v-225h104q110 0 154.5 -37.5t44.5 -109.5q0 -148 -208 -148h-120v270h-398v-270h-25zM626 270h-102v-245h93q99 0 142 31t43 92q0 65 -39.5 93.5t-136.5 28.5z" />
    <glyph glyph-name="afii10108" unicode="&#x45b;" horiz-adv-x="650" 
d="M0 521v25h152v184h25v-184h246v-25h-246v-249q35 61 91.5 93t115.5 32q100 0 162 -58.5t62 -175.5v-163h-25v154q0 108 -53 163t-146 55q-63 0 -117 -38t-90 -104v-230h-25v521h-152z" />
    <glyph glyph-name="afii10109" unicode="&#x45c;" horiz-adv-x="510" 
d="M76 0v520h25v-280l341 280h39l-300 -246l321 -274h-38l-306 258l-57 -46v-212h-25zM387 767l-109 -141l-20 15l109 141z" />
    <glyph glyph-name="afii10110" unicode="&#x45e;" horiz-adv-x="524" 
d="M89 -202l7 25q18 -7 32 -7q42 0 74.5 35t72.5 136l6 15l-274 518h29l259 -490l199 490h27l-215 -529q-27 -65 -49.5 -106t-44 -61t-40 -26.5t-44.5 -6.5q-22 0 -39 7zM116 708h25q1 -49 35.5 -80.5t89.5 -31.5t89.5 31.5t35.5 80.5h25q-1 -58 -42 -97.5t-108 -39.5
t-108 39.5t-42 97.5z" />
    <glyph glyph-name="afii10193" unicode="&#x45f;" horiz-adv-x="577" 
d="M76 0v520h25v-495h375v495h25v-520h-200v-161h-25v161h-200z" />
    <glyph glyph-name="afii10146" unicode="&#x462;" horiz-adv-x="718" 
d="M183 700v-125h259v-25h-259v-137h234q133 0 200.5 -52t67.5 -146q0 -215 -273 -215h-256v550h-156v25h156v125h27zM417 388h-234v-363h234q241 0 241 190q0 83 -62 128t-179 45z" />
    <glyph glyph-name="afii10194" unicode="&#x463;" horiz-adv-x="568" 
d="M129 0v495h-130v25h130v210h25v-210h205v-25h-205v-161h174q108 0 157.5 -45.5t49.5 -119.5t-49 -121.5t-158 -47.5h-199zM324 309h-170v-284h173q183 0 183 144q0 140 -186 140z" />
    <glyph glyph-name="afii10147" unicode="&#x472;" horiz-adv-x="785" 
d="M42 350q0 152 101 255.5t249 103.5t249 -102t101 -257q0 -153 -101.5 -256t-248.5 -103q-148 0 -249 102t-101 257zM392 16q134 0 226 93t96 231h-645q4 -137 98 -230.5t225 -93.5zM392 684q-130 0 -223.5 -91.5t-99.5 -227.5h645q-5 136 -98.5 227.5t-223.5 91.5z" />
    <glyph glyph-name="afii10195" unicode="&#x473;" horiz-adv-x="618" 
d="M39 261q0 119 74.5 195.5t194.5 76.5t195.5 -76.5t75.5 -195.5t-75.5 -195.5t-195.5 -76.5t-194.5 76.5t-74.5 195.5zM308 14q104 0 173 67t73 171h-490q3 -105 72 -171.5t172 -66.5zM308 508q-101 0 -169.5 -64.5t-74.5 -166.5h489q-5 100 -74.5 165.5t-170.5 65.5z" />
    <glyph glyph-name="afii10148" unicode="&#x474;" horiz-adv-x="769" 
d="M632 566l-271 -566h-25l-334 700h27l320 -668l267 558q32 68 59 91.5t60 23.5q30 0 51 -18l-15 -20q-15 13 -37 13q-29 0 -51 -25.5t-51 -88.5z" />
    <glyph glyph-name="afii10196" unicode="&#x475;" horiz-adv-x="561" 
d="M442 400l-180 -400h-24l-239 520h27l224 -486l170 378q48 107 110 107q28 0 47 -18l-15 -20q-15 13 -32 13q-24 0 -45 -22.5t-43 -71.5z" />
    <glyph glyph-name="afii10050" unicode="&#x490;" horiz-adv-x="554" 
d="M84 0v700h443v136h27v-161h-443v-675h-27z" />
    <glyph glyph-name="afii10098" unicode="&#x491;" horiz-adv-x="428" 
d="M76 0v520h329v116h25v-141h-329v-495h-25z" />
    <glyph glyph-name="uni1E9E" unicode="&#x1e9e;" horiz-adv-x="654" 
d="M322 708q94 0 150.5 -40t79.5 -98l-193 -204q123 0 181 -53.5t58 -130.5q0 -84 -57.5 -137.5t-160.5 -53.5q-72 0 -120 27l11 23q52 -25 109 -25q85 0 138 44.5t53 121.5q0 69 -52 114t-160 45h-34v25l195 207q-53 110 -198 110q-40 0 -74.5 -9.5t-66.5 -32.5t-50.5 -68
t-18.5 -109v-464h-27v476q0 65 22 112.5t58 72t75.5 36t81.5 11.5z" />
    <glyph glyph-name="uni2010" unicode="&#x2010;" horiz-adv-x="400" 
d="M92 256v25h209v-25h-209z" />
    <glyph glyph-name="uni2011" unicode="&#x2011;" horiz-adv-x="400" 
d="M92 256v25h209v-25h-209z" />
    <glyph glyph-name="figuredash" unicode="&#x2012;" horiz-adv-x="590" 
d="M97 339v25h388v-25h-388z" />
    <glyph glyph-name="endash" unicode="&#x2013;" horiz-adv-x="583" 
d="M97 255v25h388v-25h-388z" />
    <glyph glyph-name="emdash" unicode="&#x2014;" horiz-adv-x="795" 
d="M97 255v25h600v-25h-600z" />
    <glyph glyph-name="quoteleft" unicode="&#x2018;" horiz-adv-x="235" 
d="M132 562l-21 -14q-21 28 -21 65q0 67 63 114l14 -21q-52 -37 -52 -91q0 -29 17 -53z" />
    <glyph glyph-name="quoteright" unicode="&#x2019;" horiz-adv-x="235" 
d="M103 711l21 14q21 -28 21 -65q0 -67 -63 -114l-14 21q52 37 52 91q0 29 -17 53z" />
    <glyph glyph-name="quotesinglbase" unicode="&#x201a;" horiz-adv-x="235" 
d="M103 24l21 14q21 -28 21 -65q0 -67 -63 -114l-14 21q52 37 52 91q0 29 -17 53z" />
    <glyph glyph-name="quotedblleft" unicode="&#x201c;" horiz-adv-x="347" 
d="M244 562l-21 -14q-21 28 -21 65q0 67 63 114l14 -21q-52 -37 -52 -91q0 -29 17 -53zM132 562l-21 -14q-21 28 -21 65q0 67 63 114l14 -21q-52 -37 -52 -91q0 -29 17 -53z" />
    <glyph glyph-name="quotedblright" unicode="&#x201d;" horiz-adv-x="347" 
d="M103 711l21 14q21 -28 21 -65q0 -67 -63 -114l-14 21q52 37 52 91q0 29 -17 53zM215 711l21 14q21 -28 21 -65q0 -67 -63 -114l-14 21q52 37 52 91q0 29 -17 53z" />
    <glyph glyph-name="quotedblbase" unicode="&#x201e;" horiz-adv-x="347" 
d="M103 24l21 14q21 -28 21 -65q0 -67 -63 -114l-14 21q52 37 52 91q0 29 -17 53zM215 24l21 14q21 -28 21 -65q0 -67 -63 -114l-14 21q52 37 52 91q0 29 -17 53z" />
    <glyph glyph-name="dagger" unicode="&#x2020;" horiz-adv-x="423" 
d="M45 435v25h153v240h25v-240h155v-25h-155v-538h-25v538h-153z" />
    <glyph glyph-name="daggerdbl" unicode="&#x2021;" horiz-adv-x="423" 
d="M45 170v25h153v240h-153v25h153v240h25v-240h155v-25h-155v-240h155v-25h-155v-273h-25v273h-153z" />
    <glyph glyph-name="bullet" unicode="&#x2022;" horiz-adv-x="239" 
d="M27 361q0 20 13 34t32 14t32.5 -14t13.5 -34q0 -19 -13.5 -33t-32.5 -14t-32 13.5t-13 33.5z" />
    <glyph glyph-name="ellipsis" unicode="&#x2026;" horiz-adv-x="855" 
d="M94 24q0 11 7 19t17 8t17.5 -8t7.5 -19t-7 -18.5t-18 -7.5q-10 0 -17 7.5t-7 18.5zM403 24q0 11 7 19t17 8t17.5 -8t7.5 -19t-7 -18.5t-18 -7.5q-10 0 -17 7.5t-7 18.5zM712 24q0 11 7 19t17 8t17.5 -8t7.5 -19t-7 -18.5t-18 -7.5q-10 0 -17 7.5t-7 18.5z" />
    <glyph glyph-name="perthousand" unicode="&#x2030;" horiz-adv-x="1233" 
d="M56 547q0 65 48 110.5t115 45.5t115 -45.5t48 -110.5t-48 -110.5t-115 -45.5t-115 45.5t-48 110.5zM83 547q0 -54 39.5 -92.5t96.5 -38.5t96.5 38.5t39.5 92.5t-39.5 92.5t-96.5 38.5t-96.5 -38.5t-39.5 -92.5zM143 10l521 701l20 -15l-520 -700zM442 152q0 65 48 110.5
t115 45.5t115 -45.5t48 -110.5t-48 -110.5t-115 -45.5t-115 45.5t-48 110.5zM469 152q0 -54 39.5 -92.5t96.5 -38.5t96.5 38.5t39.5 92.5t-39.5 92.5t-96.5 38.5t-96.5 -38.5t-39.5 -92.5zM851 152q0 65 48 110.5t115 45.5t115 -45.5t48 -110.5t-48 -110.5t-115 -45.5
t-115 45.5t-48 110.5zM878 152q0 -54 39.5 -92.5t96.5 -38.5t96.5 38.5t39.5 92.5t-39.5 92.5t-96.5 38.5t-96.5 -38.5t-39.5 -92.5z" />
    <glyph glyph-name="guilsinglleft" unicode="&#x2039;" horiz-adv-x="327" 
d="M233 38l-176 207v4l176 207l19 -16l-164 -193l164 -193z" />
    <glyph glyph-name="guilsinglright" unicode="&#x203a;" horiz-adv-x="327" 
d="M270 245l-176 -207l-19 16l164 193l-164 193l19 16l176 -207v-4z" />
    <glyph glyph-name="fraction" unicode="&#x2044;" horiz-adv-x="259" 
d="M-154 20l543 678l20 -15l-543 -679z" />
    <glyph glyph-name="uni2070" unicode="&#x2070;" horiz-adv-x="477" 
d="M52 510q0 97 51 156t135 59q85 0 136 -59t51 -156t-51 -156t-136 -59q-84 0 -135 59t-51 156zM77 510q0 -87 43.5 -138.5t117.5 -51.5t118 52t44 138t-44 138t-118 52t-117.5 -51.5t-43.5 -138.5z" />
    <glyph glyph-name="uni2074" unicode="&#x2074;" horiz-adv-x="464" 
d="M320 300v109h-304v25l304 286h25v-286h99v-25h-99v-109h-25zM52 434h268v252z" />
    <glyph glyph-name="uni2075" unicode="&#x2075;" horiz-adv-x="410" 
d="M71 513l34 207h243v-25h-222l-24 -150q30 11 88 11q78 0 126 -36t48 -93q0 -64 -49.5 -98t-113.5 -34q-103 0 -156 73l19 16q49 -64 137 -64q64 0 101 31t37 76q0 46 -40.5 75t-108.5 29q-66 0 -119 -18z" />
    <glyph glyph-name="uni2076" unicode="&#x2076;" horiz-adv-x="451" 
d="M52 499q0 107 61 166.5t145 59.5q70 0 114 -38l-12 -22q-42 35 -104 35q-76 0 -127.5 -53.5t-51.5 -151.5q23 34 67.5 56.5t93.5 22.5q74 0 122.5 -36t48.5 -97q0 -63 -49.5 -104.5t-116.5 -41.5q-82 0 -136.5 54.5t-54.5 149.5zM79 461q13 -64 53.5 -102.5t110.5 -38.5
q57 0 99 34t42 87q0 48 -41 78t-105 30q-97 0 -159 -88z" />
    <glyph glyph-name="uni2077" unicode="&#x2077;" horiz-adv-x="357" 
d="M20 695v25h317v-23l-243 -397h-29l241 395h-286z" />
    <glyph glyph-name="uni2078" unicode="&#x2078;" horiz-adv-x="444" 
d="M394 412q0 -53 -50 -85t-122 -32t-122 32t-50 85q0 42 29.5 69.5t75.5 35.5q-39 11 -63.5 36t-24.5 62q0 48 44 79t111 31t111 -31t44 -79q0 -37 -24.5 -62t-63.5 -36q46 -8 75.5 -35.5t29.5 -69.5zM234 504h-24q-53 0 -94 -24.5t-41 -67.5q0 -41 40 -66.5t107 -25.5
t107 25.5t40 66.5q0 43 -41 67.5t-94 24.5zM352 615q0 37 -36.5 61t-93.5 24t-93.5 -24t-36.5 -61q0 -39 37 -63.5t81 -24.5h24q44 0 81 24.5t37 63.5z" />
    <glyph glyph-name="uni2079" unicode="&#x2079;" horiz-adv-x="451" 
d="M399 521q0 -107 -58.5 -166.5t-141.5 -59.5q-37 0 -70 11.5t-50 26.5l12 22q45 -35 110 -35q75 0 124 53t49 152q-21 -34 -66.5 -56.5t-94.5 -22.5q-73 0 -122 37t-49 98q0 62 51.5 103t118.5 41q82 0 134.5 -54t52.5 -150zM372 559q-11 62 -50.5 101.5t-109.5 39.5
q-60 0 -102.5 -34t-42.5 -85q0 -48 40 -79t103 -31q56 0 99.5 27t62.5 61z" />
    <glyph glyph-name="uni207A" unicode="&#x207a;" horiz-adv-x="429" 
d="M61 503v25h141v141h25v-141h141v-25h-141v-141h-25v141h-141z" />
    <glyph glyph-name="uni207B" unicode="&#x207b;" horiz-adv-x="408" 
d="M62 505v25h284v-25h-284z" />
    <glyph glyph-name="uni207C" unicode="&#x207c;" horiz-adv-x="413" 
d="M62 560v25h288v-25h-288zM62 447v25h288v-25h-288z" />
    <glyph glyph-name="uni207D" unicode="&#x207d;" horiz-adv-x="222" 
d="M203 217l-15 -20q-136 118 -136 277t136 276l15 -20q-60 -47 -93 -116t-33 -140q0 -147 126 -257z" />
    <glyph glyph-name="uni207E" unicode="&#x207e;" horiz-adv-x="227" 
d="M38 197l-15 20q126 110 126 257q0 71 -33 140t-93 116l15 20q136 -117 136 -276t-136 -277z" />
    <glyph glyph-name="uni2080" unicode="&#x2080;" horiz-adv-x="477" 
d="M52 110q0 97 51 156t135 59q85 0 136 -59t51 -156t-51 -156t-136 -59q-84 0 -135 59t-51 156zM77 110q0 -87 43.5 -138.5t117.5 -51.5t118 52t44 138t-44 138t-118 52t-117.5 -51.5t-43.5 -138.5z" />
    <glyph glyph-name="uni2081" unicode="&#x2081;" horiz-adv-x="275" 
d="M10 253l155 72h25v-425h-25v397l-144 -67z" />
    <glyph glyph-name="uni2082" unicode="&#x2082;" horiz-adv-x="411" 
d="M68 213l-21 14q18 40 60.5 69t91.5 29q65 0 105.5 -35.5t40.5 -93.5q0 -74 -63 -131q-29 -27 -106 -79l-93 -61h264v-25h-308v23l118 78q70 46 107 80q56 51 56 115q0 44 -34 74t-87 30q-85 0 -131 -87z" />
    <glyph glyph-name="uni2083" unicode="&#x2083;" horiz-adv-x="419" 
d="M81 233l-19 16q52 76 154 76q62 0 102.5 -29.5t40.5 -77.5q0 -37 -22 -63t-56 -37q92 -15 92 -100q0 -57 -47.5 -90t-110.5 -33q-115 0 -170 83l20 15q51 -73 150 -73q59 0 96 27t37 71q0 85 -125 85h-70v25h64q49 0 83 24.5t34 65.5q0 38 -32.5 60t-85.5 22
q-48 0 -79.5 -15.5t-55.5 -51.5z" />
    <glyph glyph-name="uni2084" unicode="&#x2084;" horiz-adv-x="464" 
d="M320 -100v109h-304v25l304 286h25v-286h99v-25h-99v-109h-25zM52 34h268v252z" />
    <glyph glyph-name="uni2085" unicode="&#x2085;" horiz-adv-x="410" 
d="M71 113l34 207h243v-25h-222l-24 -150q30 11 88 11q78 0 126 -36t48 -93q0 -64 -49.5 -98t-113.5 -34q-103 0 -156 73l19 16q49 -64 137 -64q64 0 101 31t37 76q0 46 -40.5 75t-108.5 29q-66 0 -119 -18z" />
    <glyph glyph-name="uni2086" unicode="&#x2086;" horiz-adv-x="451" 
d="M52 99q0 107 61 166.5t145 59.5q70 0 114 -38l-12 -22q-42 35 -104 35q-76 0 -127.5 -53.5t-51.5 -151.5q23 34 67.5 56.5t93.5 22.5q74 0 122.5 -36t48.5 -97q0 -63 -49.5 -104.5t-116.5 -41.5q-82 0 -136.5 54.5t-54.5 149.5zM79 61q13 -64 53.5 -102.5t110.5 -38.5
q57 0 99 34t42 87q0 48 -41 78t-105 30q-97 0 -159 -88z" />
    <glyph glyph-name="uni2087" unicode="&#x2087;" horiz-adv-x="357" 
d="M20 295v25h317v-23l-243 -397h-29l241 395h-286z" />
    <glyph glyph-name="uni2088" unicode="&#x2088;" horiz-adv-x="444" 
d="M394 12q0 -53 -50 -85t-122 -32t-122 32t-50 85q0 42 29.5 69.5t75.5 35.5q-39 11 -63.5 36t-24.5 62q0 48 44 79t111 31t111 -31t44 -79q0 -37 -24.5 -62t-63.5 -36q46 -8 75.5 -35.5t29.5 -69.5zM234 104h-24q-53 0 -94 -24.5t-41 -67.5q0 -41 40 -66.5t107 -25.5
t107 25.5t40 66.5q0 43 -41 67.5t-94 24.5zM352 215q0 37 -36.5 61t-93.5 24t-93.5 -24t-36.5 -61q0 -39 37 -63.5t81 -24.5h24q44 0 81 24.5t37 63.5z" />
    <glyph glyph-name="uni2089" unicode="&#x2089;" horiz-adv-x="451" 
d="M399 121q0 -107 -58.5 -166.5t-141.5 -59.5q-37 0 -70 11.5t-50 26.5l12 22q45 -35 110 -35q75 0 124 53t49 152q-21 -34 -66.5 -56.5t-94.5 -22.5q-73 0 -122 37t-49 98q0 62 51.5 103t118.5 41q82 0 134.5 -54t52.5 -150zM372 159q-11 62 -50.5 101.5t-109.5 39.5
q-60 0 -102.5 -34t-42.5 -85q0 -48 40 -79t103 -31q56 0 99.5 27t62.5 61z" />
    <glyph glyph-name="uni208A" unicode="&#x208a;" horiz-adv-x="429" 
d="M61 103v25h141v141h25v-141h141v-25h-141v-141h-25v141h-141z" />
    <glyph glyph-name="uni208B" unicode="&#x208b;" horiz-adv-x="408" 
d="M62 105v25h284v-25h-284z" />
    <glyph glyph-name="uni208C" unicode="&#x208c;" horiz-adv-x="413" 
d="M62 160v25h288v-25h-288zM62 47v25h288v-25h-288z" />
    <glyph glyph-name="uni208D" unicode="&#x208d;" horiz-adv-x="222" 
d="M203 -183l-15 -20q-136 118 -136 277t136 276l15 -20q-60 -47 -93 -116t-33 -140q0 -147 126 -257z" />
    <glyph glyph-name="uni208E" unicode="&#x208e;" horiz-adv-x="227" 
d="M38 -203l-15 20q126 110 126 257q0 71 -33 140t-93 116l15 20q136 -117 136 -276t-136 -277z" />
    <glyph glyph-name="Euro" unicode="&#x20ac;" horiz-adv-x="600" 
d="M19 427l8 25h81q29 108 119.5 182.5t211.5 74.5q62 0 111 -22l-11 -23q-40 20 -100 20q-108 0 -190 -63.5t-114 -168.5h351l-11 -25h-346q-7 -28 -7 -66q0 -52 3 -67h317l-10 -25h-304q28 -117 114 -185t205 -68q50 0 89 15l5 -25q-34 -15 -94 -15q-131 0 -224.5 76
t-121.5 202h-82l8 25h71q-3 20 -3 65q0 33 7 68h-83z" />
    <glyph glyph-name="uni20B4" unicode="&#x20b4;" horiz-adv-x="620" 
d="M100 425v25h303q47 49 47 111q0 52 -40.5 87.5t-98.5 35.5q-87 0 -139 -64l-19 17q60 72 158 72q72 0 119 -42t47 -106t-42 -111h86v-25h-102q-40 -36 -89 -70q-17 -12 -38.5 -27t-33 -23t-15.5 -11h278v-25h-303q-54 -49 -54 -115q0 -64 46.5 -101t109.5 -37
q101 0 156 87l19 -17q-62 -95 -175 -95q-75 0 -129 43.5t-54 119.5q0 70 49 115h-86v25h104q9 7 103 75q57 41 75 56h-282z" />
    <glyph glyph-name="uni20BD" unicode="&#x20bd;" horiz-adv-x="600" 
d="M26 316v25h115v359q102 0 161 1q69 0 118.5 -15.5t76 -43.5t38 -59.5t11.5 -70.5q0 -86 -58 -141t-180 -55h-140v-128h188v-25h-188v-163h-27v163h-115v25h115v128h-115zM305 675h-137v-334h138q105 0 159 45.5t54 125.5q0 163 -214 163z" />
    <glyph glyph-name="afii61352" unicode="&#x2116;" horiz-adv-x="1173" 
d="M764 500q0 68 47.5 112.5t117.5 44.5t118 -44.5t48 -112.5q0 -67 -48 -111.5t-118 -44.5t-117.5 44t-47.5 112zM670 0h-27l-491 657v-657h-27v700h27l491 -658v658h27v-700zM789 500q0 -57 40.5 -94t99.5 -37t100 37t41 94t-41 94.5t-100 37.5t-99.5 -37.5t-40.5 -94.5z
M801 245v25h257v-25h-257z" />
    <glyph glyph-name="trademark" unicode="&#x2122;" horiz-adv-x="831" 
d="M386 397v303h26l152 -180l152 180h25v-303h-25v264l-151 -179h-2l-151 179v-264h-26zM14 675v25h305v-25h-140v-278h-25v278h-140z" />
    <glyph glyph-name="partialdiff" unicode="&#x2202;" horiz-adv-x="568" 
d="M39 222q0 136 78.5 217t176.5 81q76 0 126 -46t63 -101q0 71 -15 126.5t-47 98.5t-88.5 65t-133.5 19l4 25q73 -1 126 -18t94.5 -56.5t62.5 -109.5t21 -171q0 -153 -73.5 -256t-185.5 -103q-89 0 -149 61.5t-60 167.5zM64 220q0 -96 53.5 -149t130.5 -53q95 0 159 85
t72 195q-4 25 -10.5 49t-21 52t-34 48t-51 34t-69.5 14q-101 0 -165 -81.5t-64 -193.5z" />
    <glyph glyph-name="product" unicode="&#x220f;" horiz-adv-x="872" 
d="M718 -200v875h-564v-875h-27v900h618v-900h-27z" />
    <glyph glyph-name="summation" unicode="&#x2211;" horiz-adv-x="612" 
d="M367 251l-327 426v23h532v-25h-499l325 -424l-326 -426h500v-25h-532v23z" />
    <glyph glyph-name="minus" unicode="&#x2212;" horiz-adv-x="600" 
d="M84 347v25h433v-25h-433z" />
    <glyph glyph-name="uni2215" unicode="&#x2215;" horiz-adv-x="259" 
d="M-154 20l544 679l19 -16l-543 -679z" />
    <glyph glyph-name="radical" unicode="&#x221a;" horiz-adv-x="577" 
d="M4 417v25h132l193 -410l167 668h245v-25h-226l-170 -681h-25l-200 423h-116z" />
    <glyph glyph-name="infinity" unicode="&#x221e;" horiz-adv-x="750" 
d="M547 202q-38 0 -71.5 19t-52.5 40.5t-48 61.5q-18 -25 -31.5 -42t-35 -37.5t-47 -31t-53.5 -10.5q-66 0 -106 39.5t-40 100.5q0 58 39 99.5t106 41.5q91 0 168 -123q79 123 172 123q58 0 99.5 -37.5t41.5 -103.5q0 -55 -37 -97.5t-104 -42.5zM547 458q-28 0 -50.5 -8.5
t-42.5 -28.5t-31.5 -34.5t-31.5 -44.5q27 -39 45 -59.5t47.5 -38t63.5 -17.5q53 0 84.5 33t31.5 82q0 50 -31.5 83t-84.5 33zM208 227q74 0 151 115q-35 55 -71 85.5t-81 30.5q-57 0 -88.5 -33.5t-31.5 -82.5q0 -55 34.5 -85t86.5 -30z" />
    <glyph glyph-name="integral" unicode="&#x222b;" horiz-adv-x="329" 
d="M118 557q0 51 14.5 88.5t39.5 56.5t51 27.5t54 8.5q73 0 116 -61l-20 -15q-36 51 -97 51q-25 0 -46.5 -7t-42 -23t-32.5 -48.5t-12 -78.5v-580q0 -98 -43.5 -139t-107.5 -41q-76 0 -122 59l17 18q40 -52 106 -52q125 0 125 155v581z" />
    <glyph glyph-name="approxequal" unicode="&#x2248;" horiz-adv-x="600" 
d="M84 250l-15 20q58 56 114 56q39 0 131 -44q72 -34 103 -34q46 0 99 51l15 -20q-56 -56 -114 -56q-44 0 -116 37q-82 41 -119 41q-47 0 -98 -51zM84 411l-15 20q58 56 114 56q39 0 131 -44q72 -34 103 -34q46 0 99 51l15 -20q-56 -56 -114 -56q-44 0 -116 37
q-82 41 -119 41q-47 0 -98 -51z" />
    <glyph glyph-name="notequal" unicode="&#x2260;" horiz-adv-x="600" 
d="M79 430v25h247l93 251l24 -9l-91 -242h169v-25h-178l-53 -141h231v-25h-240l-101 -270l-23 9l97 261h-175v25h185l52 141h-237z" />
    <glyph glyph-name="lessequal" unicode="&#x2264;" horiz-adv-x="600" 
d="M482 182l-400 250v16l400 250v-29l-366 -229l366 -229v-29zM483 15l-401 252v29l401 -252v-29z" />
    <glyph glyph-name="greaterequal" unicode="&#x2265;" horiz-adv-x="600" 
d="M518 432l-400 -250v29l366 229l-366 229v29l400 -250v-16zM518 267l-401 -252v29l401 252v-29z" />
    <glyph glyph-name="lozenge" unicode="&#x25ca;" horiz-adv-x="448" 
d="M211 -10l-166 264l167 266h25l166 -266l-167 -264h-25zM75 254l149 -238l149 238l-149 239z" />
    <glyph glyph-name="uniF350" unicode="&#xf350;" horiz-adv-x="558" 
d="M5 0l262 563h25l261 -563h-28l-82 176h-328l-82 -176h-28zM279 531l-153 -330h306z" />
    <glyph glyph-name="uniF351" unicode="&#xf351;" horiz-adv-x="555" 
d="M473 560v-25h-378v-224h217q207 0 207 -150q0 -80 -55.5 -120.5t-157.5 -40.5h-236v560h403zM312 286h-217v-261h212q187 0 187 136q0 125 -182 125z" />
    <glyph glyph-name="uniF352" unicode="&#xf352;" horiz-adv-x="568" 
d="M70 0v560h225q204 0 204 -137q0 -50 -28.5 -85t-80.5 -50q61 -8 96.5 -42.5t35.5 -91.5q0 -154 -219 -154h-233zM305 274h-210v-250h209q99 0 146 31.5t47 98.5q0 120 -192 120zM295 536h-200v-237h212q78 0 122.5 32.5t44.5 91.5q0 113 -179 113z" />
    <glyph glyph-name="uniF353" unicode="&#xf353;" horiz-adv-x="471" 
d="M70 0v560h401v-25h-376v-535h-25z" />
    <glyph glyph-name="uniF354" unicode="&#xf354;" horiz-adv-x="619" 
d="M0 -110v135h61q49 74 79 198q22 90 29 215l7 122h353v-535h82v-135h-25v110h-561v-110h-25zM200 535l-7 -115q-6 -102 -30 -202q-28 -117 -75 -193h416v510h-304z" />
    <glyph glyph-name="uniF355" unicode="&#xf355;" horiz-adv-x="538" 
d="M70 0v560h408v-25h-383v-238h359v-25h-359v-247h393v-25h-418z" />
    <glyph glyph-name="uniF356" unicode="&#xf356;" horiz-adv-x="758" 
d="M366 276v284h25v-284l313 284h37l-280 -255l292 -305h-34l-276 289l-52 -47v-242h-25v242l-52 47l-276 -289h-34l292 305l-280 255h37z" />
    <glyph glyph-name="uniF357" unicode="&#xf357;" horiz-adv-x="541" 
d="M276 -9q-85 0 -150.5 31.5t-104.5 75.5l17 19q87 -101 238 -101q83 0 138 39.5t55 104.5q0 53 -47.5 84t-123.5 31h-125v25h127q60 0 103.5 31.5t43.5 85.5q0 59 -55 91.5t-133 32.5q-134 0 -210 -99l-19 16q32 42 89.5 75t139.5 33q89 0 151 -39t62 -110
q0 -45 -30.5 -81t-82.5 -48q66 -8 100.5 -44t34.5 -84q0 -76 -62.5 -122.5t-155.5 -46.5z" />
    <glyph glyph-name="uniF358" unicode="&#xf358;" horiz-adv-x="620" 
d="M95 0h-25v560h25v-521l430 521h25v-560h-25v521z" />
    <glyph glyph-name="uniF359" unicode="&#xf359;" horiz-adv-x="620" 
d="M95 0h-25v560h25v-521l430 521h25v-560h-25v521zM175 672h25q29 -52 111 -52t111 52h25q-10 -34 -48 -55.5t-88 -21.5t-88 21.5t-48 55.5z" />
    <glyph glyph-name="uniF35A" unicode="&#xf35a;" horiz-adv-x="530" 
d="M70 0v560h25v-314l367 314h38l-302 -259l326 -301h-37l-309 284l-83 -71v-213h-25z" />
    <glyph glyph-name="uniF35B" unicode="&#xf35b;" horiz-adv-x="587" 
d="M492 0v535h-310l-8 -113q-15 -220 -59 -321.5t-102 -101.5l-13 1v25q17 -1 30.5 4t33 28.5t34.5 66t30 126t23 199.5l8 111h358v-560h-25z" />
    <glyph glyph-name="uniF35C" unicode="&#xf35c;" horiz-adv-x="698" 
d="M70 0v560h25l254 -323l254 323h25v-560h-25v520l-254 -324l-254 324v-520h-25z" />
    <glyph glyph-name="uniF35D" unicode="&#xf35d;" horiz-adv-x="631" 
d="M536 0v274h-441v-274h-25v560h25v-261h441v261h25v-560h-25z" />
    <glyph glyph-name="uniF35E" unicode="&#xf35e;" horiz-adv-x="668" 
d="M36 280q0 121 86 204t212 83q125 0 211 -81.5t86 -205.5q0 -123 -86 -205t-211 -82q-126 0 -212 81.5t-86 205.5zM61 280q0 -110 80 -186t193 -76q116 0 194 75.5t78 186.5q0 112 -79 187t-193 75t-193.5 -75t-79.5 -187z" />
    <glyph glyph-name="uniF35F" unicode="&#xf35f;" horiz-adv-x="624" 
d="M529 0v535h-434v-535h-25v560h484v-560h-25z" />
    <glyph glyph-name="uniF360" unicode="&#xf360;" horiz-adv-x="548" 
d="M95 0h-25v560h211q231 0 231 -161q0 -72 -55.5 -118t-176.5 -46h-185v-235zM285 535h-190v-275h183q209 0 209 139q0 136 -202 136z" />
    <glyph glyph-name="uniF361" unicode="&#xf361;" 
d="M539 97l16 -19q-33 -38 -89.5 -61.5t-122.5 -23.5q-138 0 -222.5 80t-84.5 207q0 122 81.5 204.5t212.5 82.5q73 0 128.5 -25t87.5 -58l-14 -21q-77 79 -202 79q-120 0 -194.5 -74t-74.5 -188q0 -117 77 -189.5t205 -72.5q125 0 196 79z" />
    <glyph glyph-name="uniF362" unicode="&#xf362;" horiz-adv-x="476" 
d="M3 535v25h471v-25h-223v-535h-25v535h-223z" />
    <glyph glyph-name="uniF363" unicode="&#xf363;" horiz-adv-x="551" 
d="M522 560h28l-234 -446q-34 -64 -60 -89t-57 -25q-37 0 -63 33l17 18q20 -26 45 -26q27 0 46.5 21.5t40.5 60.5l12 24l-297 429h31l279 -404z" />
    <glyph glyph-name="uniF364" unicode="&#xf364;" horiz-adv-x="673" 
d="M324 -12v72q-125 0 -211.5 62.5t-86.5 165.5q0 73 44.5 126t110.5 77.5t143 24.5v56h25v-56q75 0 140.5 -23.5t111.5 -77t46 -127.5q0 -103 -85.5 -165.5t-212.5 -62.5v-72h-25zM349 491v-406q119 0 196 55.5t77 147.5t-76.5 147.5t-196.5 55.5zM51 288q0 -93 78.5 -148
t194.5 -55v406q-51 0 -98.5 -12t-87 -36t-63.5 -64t-24 -91z" />
    <glyph glyph-name="uniF365" unicode="&#xf365;" horiz-adv-x="523" 
d="M493 560l-216 -275l225 -285h-32l-209 265l-208 -265h-32l224 285l-215 275h32l199 -254l200 254h32z" />
    <glyph glyph-name="uniF366" unicode="&#xf366;" horiz-adv-x="627" 
d="M70 0v560h25v-535h419v535h25v-535h80v-135h-25v110h-524z" />
    <glyph glyph-name="uniF367" unicode="&#xf367;" horiz-adv-x="562" 
d="M492 560v-560h-25v265q-37 -20 -93.5 -34.5t-109.5 -14.5q-98 0 -159 43.5t-61 134.5v166h25v-164q0 -75 49.5 -115t145.5 -40q109 0 203 50v269h25z" />
    <glyph glyph-name="uniF368" unicode="&#xf368;" horiz-adv-x="775" 
d="M70 0v560h25v-535h280v535h25v-535h280v535h25v-560h-635z" />
    <glyph glyph-name="uniF369" unicode="&#xf369;" horiz-adv-x="793" 
d="M70 0v560h25v-535h280v535h25v-535h280v535h25v-535h80v-135h-25v110h-690z" />
    <glyph glyph-name="uniF36A" unicode="&#xf36a;" horiz-adv-x="633" 
d="M0 535v25h178v-229h207q111 0 165.5 -43t54.5 -118q0 -170 -228 -170h-224v535h-153zM385 306h-207v-281h201q201 0 201 145q0 136 -195 136z" />
    <glyph glyph-name="uniF36B" unicode="&#xf36b;" horiz-adv-x="700" 
d="M605 0v560h25v-560h-25zM70 0v560h25v-229h181q111 0 165.5 -43t54.5 -118q0 -170 -228 -170h-198zM276 306h-181v-281h175q201 0 201 145q0 136 -195 136z" />
    <glyph glyph-name="uniF36C" unicode="&#xf36c;" horiz-adv-x="550" 
d="M70 0v560h25v-229h207q111 0 165.5 -43t54.5 -118q0 -170 -228 -170h-224zM302 306h-207v-281h201q201 0 201 145q0 136 -195 136z" />
    <glyph glyph-name="uniF36D" unicode="&#xf36d;" horiz-adv-x="583" 
d="M164 272v25h357q-6 116 -78.5 180.5t-189.5 64.5q-128 0 -217 -99l-18 17q42 50 106.5 78.5t128.5 28.5q134 0 213.5 -77.5t79.5 -207.5q0 -126 -80 -207.5t-221 -81.5q-65 0 -124 24.5t-99 69.5l17 18q35 -41 90.5 -64t116.5 -23q121 0 194.5 67.5t80.5 186.5h-357z" />
    <glyph glyph-name="uniF36E" unicode="&#xf36e;" horiz-adv-x="833" 
d="M70 0v560h25v-258h140q5 115 83.5 190t196.5 75q122 0 201.5 -81t79.5 -206q0 -124 -79 -205.5t-202 -81.5t-200.5 81t-79.5 203h-140v-277h-25zM260 282q0 -113 71.5 -188.5t183.5 -75.5q114 0 185 74.5t71 187.5q0 114 -71.5 188t-184.5 74q-112 0 -183.5 -73
t-71.5 -187z" />
    <glyph glyph-name="uniF36F" unicode="&#xf36f;" horiz-adv-x="564" 
d="M469 0v228h-215l-210 -228h-34l211 229q-82 9 -128 51t-46 108q0 76 56 124t159 48h232v-560h-25zM238 251h231v284h-209q-94 0 -141 -40.5t-47 -106.5q0 -57 44.5 -95t121.5 -42z" />
    <glyph glyph-name="uniF371" unicode="&#xf371;" horiz-adv-x="538" 
d="M70 0v560h408v-25h-383v-238h359v-25h-359v-247h393v-25h-418zM122 693q0 11 6.5 18.5t16.5 7.5t16.5 -7.5t6.5 -18.5t-6.5 -18.5t-16.5 -7.5t-16.5 7.5t-6.5 18.5zM378 693q0 11 6.5 18.5t16.5 7.5t16.5 -7.5t6.5 -18.5t-6.5 -18.5t-16.5 -7.5t-16.5 7.5t-6.5 18.5z" />
    <glyph glyph-name="uniF372" unicode="&#xf372;" horiz-adv-x="610" 
d="M549 159q0 67 -36 107.5t-109 40.5q-83 0 -151 -75v-232h-25v535h-224v25h471v-25h-222v-270q24 26 64 46.5t88 20.5q75 0 122 -43.5t47 -129.5q0 -83 -39.5 -124.5t-90.5 -41.5q-49 0 -81 36l17 18q28 -29 64 -29q44 0 74.5 35t30.5 106z" />
    <glyph glyph-name="uniF373" unicode="&#xf373;" horiz-adv-x="471" 
d="M70 0v560h401v-25h-376v-535h-25zM363 762l-105 -142l-20 15l105 142z" />
    <glyph glyph-name="uniF374" unicode="&#xf374;" horiz-adv-x="578" 
d="M402 297v-23h-341q4 -122 80.5 -189t199.5 -67q54 0 109.5 20t89.5 63l16 -18q-35 -44 -95 -67t-121 -23q-137 0 -220.5 78.5t-83.5 208.5q0 125 84 206t217 81q57 0 113 -22t96 -61l-14 -21q-78 79 -194 79q-118 0 -193 -65.5t-84 -179.5h341z" />
    <glyph glyph-name="uniF375" unicode="&#xf375;" horiz-adv-x="523" 
d="M450 145q0 24 -10.5 42.5t-24 30t-41.5 21.5t-46.5 14.5t-54.5 11.5q-114 23 -153 44q-70 39 -71 114q0 61 60 102.5t154 41.5q125 0 196 -68l-14 -19q-71 62 -184 62q-73 0 -130 -30.5t-57 -89.5q0 -26 11.5 -46.5t27.5 -33t45.5 -23t51 -15.5t58.5 -13q7 -1 10 -2
q37 -7 59.5 -13t52 -17.5t45.5 -25.5t28 -36.5t12 -51.5q0 -67 -59 -109.5t-146 -42.5q-75 0 -137.5 28.5t-94.5 71.5l18 18q26 -36 81.5 -64.5t133.5 -28.5q71 0 125 34.5t54 92.5z" />
    <glyph glyph-name="uniF376" unicode="&#xf376;" horiz-adv-x="187" 
d="M81 0v560h25v-560h-25z" />
    <glyph glyph-name="uniF377" unicode="&#xf377;" horiz-adv-x="187" 
d="M81 0v560h25v-560h-25zM-58 693q0 11 6.5 18.5t16.5 7.5t16.5 -7.5t6.5 -18.5t-6.5 -18.5t-16.5 -7.5t-16.5 7.5t-6.5 18.5zM198 693q0 11 6.5 18.5t16.5 7.5t16.5 -7.5t6.5 -18.5t-6.5 -18.5t-16.5 -7.5t-16.5 7.5t-6.5 18.5z" />
    <glyph glyph-name="uniF378" unicode="&#xf378;" horiz-adv-x="413" 
d="M341 560v-397q0 -80 -47.5 -125t-127.5 -45q-99 0 -164 96l20 16q54 -87 145 -87q68 0 108.5 37t40.5 111v394h25z" />
    <glyph glyph-name="uniF379" unicode="&#xf379;" horiz-adv-x="859" 
d="M453 0v535h-271l-8 -113q-13 -182 -47 -288q-44 -135 -116 -135q-6 0 -11 1v25q13 0 23 2.5t24.5 12.5t29 35.5t26.5 64.5q34 108 48 311l8 109h319v-229h140q104 0 158.5 -43t54.5 -120q0 -84 -58.5 -126t-164.5 -42h-155zM617 306h-139v-281h129q199 0 199 143
q0 67 -48.5 102.5t-140.5 35.5z" />
    <glyph glyph-name="uniF37A" unicode="&#xf37a;" horiz-adv-x="889" 
d="M508 319h142q211 0 211 -154q0 -165 -224 -165h-154v294h-388v-294h-25v560h25v-241h388v241h25v-241zM649 294h-141v-269h128q200 0 200 140q0 129 -187 129z" />
    <glyph glyph-name="uniF37B" unicode="&#xf37b;" horiz-adv-x="617" 
d="M4 535v25h471v-25h-222v-270q67 67 155 67q74 0 123.5 -44t49.5 -132v-156h-25v148q0 78 -39 118.5t-109 40.5q-86 0 -155 -75v-232h-25v535h-224z" />
    <glyph glyph-name="uniF37C" unicode="&#xf37c;" horiz-adv-x="530" 
d="M70 0v560h25v-314l367 314h38l-302 -259l326 -301h-37l-309 284l-83 -71v-213h-25zM363 762l-105 -142l-20 15l105 142z" />
    <glyph glyph-name="uniF37E" unicode="&#xf37e;" horiz-adv-x="551" 
d="M522 560h28l-234 -446q-34 -64 -60 -89t-57 -25q-37 0 -63 33l17 18q20 -26 45 -26q27 0 46.5 21.5t40.5 60.5l12 24l-297 429h31l279 -404zM151 672h25q29 -52 111 -52t111 52h25q-10 -34 -48 -55.5t-88 -21.5t-88 21.5t-48 55.5z" />
    <glyph glyph-name="uniF37F" unicode="&#xf37f;" horiz-adv-x="597" 
d="M70 0v560h25v-535h407v535h25v-560h-216v-129h-25v129h-216z" />
    <glyph glyph-name="uniF381" unicode="&#xf381;" horiz-adv-x="612" 
d="M0 436v25h132v99h25v-99h219v-25h-219v-105h207q111 0 165.5 -43t54.5 -118q0 -170 -228 -170h-224v436h-132zM364 306h-207v-281h201q201 0 201 145q0 136 -195 136z" />
    <glyph glyph-name="uniF389" unicode="&#xf389;" horiz-adv-x="668" 
d="M36 280q0 121 86 204t212 83q125 0 211 -81.5t86 -205.5q0 -123 -86 -205t-211 -82q-126 0 -212 81.5t-86 205.5zM334 18q113 0 190.5 72t81.5 180h-545q4 -107 83 -179.5t190 -72.5zM334 542q-110 0 -188.5 -70t-84.5 -177h544q-6 107 -84 177t-187 70z" />
    <glyph glyph-name="uniF38A" unicode="&#xf38a;" horiz-adv-x="655" 
d="M539 451l-228 -451h-25l-282 560h28l267 -530l222 441q26 51 51 72t55 21q25 0 43 -16l-15 -20q-14 11 -30 11q-24 0 -43.5 -20t-42.5 -68z" />
    <glyph glyph-name="uniF393" unicode="&#xf393;" horiz-adv-x="471" 
d="M70 0v560h376v108h25v-133h-376v-535h-25z" />
    <glyph glyph-name="uniF3CF" unicode="&#xf3cf;" horiz-adv-x="997" 
d="M649 400q0 53 40 89.5t101 36.5t101 -36.5t40 -89.5t-40 -89.5t-101 -36.5t-101 36.5t-40 89.5zM570 0h-25l-414 519v-519h-25v560h25l414 -519v519h25v-560zM674 400q0 -43 33 -72t83 -29t83 29t33 72t-33 72t-83 29t-83 -29t-33 -72zM679 192v25h221v-25h-221z" />
    <glyph glyph-name="uniF3D0" unicode="&#xf3d0;" horiz-adv-x="451" 
d="M175 672h25q29 -52 111 -52t111 52h25q-10 -34 -48 -55.5t-88 -21.5t-88 21.5t-48 55.5z" />
    <glyph glyph-name="uniF3E4" unicode="&#xf3e4;" horiz-adv-x="0" 
d="M-197 762l-105 -142l-20 15l105 142z" />
    <glyph glyph-name="uniF400" unicode="&#xf400;" horiz-adv-x="0" 
d="M-203 767l-109 -141l-20 15l109 141z" />
    <glyph glyph-name="uniF401" unicode="&#xf401;" horiz-adv-x="0" 
d="M-234 857l-159 -90l-13 22l160 90z" />
    <glyph glyph-name="uniF406" unicode="&#xf406;" horiz-adv-x="526" 
d="M507 886l19 -16q-59 -79 -160 -79t-160 79l19 16q54 -70 141 -70t141 70z" />
    <glyph glyph-name="uniF407" unicode="&#xf407;" horiz-adv-x="503" 
d="M325 -180l8 23q31 -16 70 -16q75 0 75 50q0 21 -19 33.5t-52 12.5q-17 0 -24 -1v78h27v-54q45 1 69 -19t24 -50q0 -32 -25 -53.5t-75 -21.5q-46 0 -78 18z" />
    <glyph glyph-name="uniF408" unicode="&#xf408;" horiz-adv-x="424" 
d="M265 885l176 -96l-12 -22l-164 90l-164 -90l-12 22z" />
    <glyph glyph-name="uniF409" unicode="&#xf409;" horiz-adv-x="420" 
d="M372 -73l21 14q27 -27 27 -65q0 -29 -14 -54t-21.5 -31.5t-23.5 -19.5l-14 21q48 30 48 82q0 25 -23 53z" />
    <glyph glyph-name="uniF40A" unicode="&#xf40a;" horiz-adv-x="148" 
d="M106 711l21 14q21 -28 21 -65q0 -67 -63 -114l-14 21q52 37 52 91q0 29 -17 53z" />
    <glyph glyph-name="uniF40B" unicode="&#xf40b;" horiz-adv-x="385" 
d="M335 823q0 11 7.5 19.5t17.5 8.5t17.5 -8.5t7.5 -19.5t-7.5 -19.5t-17.5 -8.5t-17.5 8.5t-7.5 19.5z" />
    <glyph glyph-name="uniF40C" unicode="&#xf40c;" horiz-adv-x="456" 
d="M284 811q0 34 24.5 57.5t59.5 23.5t60 -23.5t25 -57.5t-25 -57t-60 -23t-59.5 23t-24.5 57zM309 811q0 -23 17 -39t42 -16t42.5 16t17.5 39t-17.5 39.5t-42.5 16.5t-42 -16.5t-17 -39.5z" />
    <glyph glyph-name="uniF40D" unicode="&#xf40d;" horiz-adv-x="561" 
d="M304 863q32 0 72 -19l43 -21q27 -13 54 -13q40 0 70 42l18 -17q-37 -50 -88 -50q-33 0 -66 16l-42 20q-34 17 -61 17q-40 0 -70 -42l-18 17q37 50 88 50z" />
    <glyph glyph-name="uniF40E" unicode="&#xf40e;" horiz-adv-x="444" 
d="M445 -164l5 -24q-22 -12 -54 -12q-38 0 -70 26t-32 72q0 58 51 95q21 16 51.5 24t47.5 8v-25q-50 0 -84 -25q-41 -30 -41 -77q0 -30 21 -51.5t58 -21.5q25 0 47 11z" />
    <glyph glyph-name="uniF410" unicode="&#xf410;" horiz-adv-x="0" 
d="M-368 767l-159 90l12 22l160 -90z" />
    <glyph glyph-name="uniF416" unicode="&#xf416;" horiz-adv-x="370" 
d="M322 -73l21 14q27 -27 27 -65q0 -29 -14 -54t-21.5 -31.5t-23.5 -19.5l-14 21q48 30 48 82q0 25 -23 53z" />
    <glyph glyph-name="uniF418" unicode="&#xf418;" horiz-adv-x="148" 
d="M106 551l21 14q21 -28 21 -65q0 -67 -63 -114l-14 21q52 37 52 91q0 29 -17 53z" />
    <glyph glyph-name="uniF447" unicode="&#xf447;" horiz-adv-x="476" 
d="M167 -180l8 23q31 -16 70 -16q75 0 75 50q0 21 -19 33.5t-52 12.5q-16 0 -23 -1v613h-223v25h471v-25h-223v-589q46 1 70 -19t24 -50q0 -32 -25 -53.5t-75 -21.5q-46 0 -78 18z" />
    <glyph glyph-name="uniF44E" unicode="&#xf44e;" horiz-adv-x="634" 
d="M572 297q-7 115 -76 180t-189 65q-126 0 -218 -99l-18 17q96 107 241 107q129 0 207 -77t78 -208q0 -127 -78.5 -208t-208.5 -81q-71 0 -127.5 27t-89.5 69.5t-50 89.5t-17 93v25h546zM572 272h-521q3 -105 72 -179.5t187 -74.5q117 0 187 69.5t75 184.5z" />
    <glyph glyph-name="uniF452" unicode="&#xf452;" horiz-adv-x="682" 
d="M70 0v560h405v-25h-380v-255h353v-25h-353v-255h-25zM576 0v560h25v-560h-25z" />
    <glyph glyph-name="uniF453" unicode="&#xf453;" horiz-adv-x="980" 
d="M70 0v560h405v-25h-380v-255h353v-25h-353v-255h-25zM564 0v560h25v-535h383v-25h-408z" />
    <glyph glyph-name="zero.tab" unicode="&#xf4e0;" 
d="M35 350q0 166 61 262.5t193 96.5q133 0 195 -96.5t62 -262.5q0 -108 -24 -185.5t-82.5 -125t-148.5 -47.5q-132 0 -194 96.5t-62 261.5zM62 350q0 -333 229 -333q228 0 228 333q0 334 -230 334q-227 0 -227 -334z" />
    <glyph glyph-name="one.tab" unicode="&#xf4e1;" 
d="M51 0v25h275v654l-271 -134l-11 20l282 142h25v-682h180v-25h-480z" />
    <glyph glyph-name="two.tab" unicode="&#xf4e2;" 
d="M82 521l-23 6q13 71 75 126.5t157 55.5q103 0 164.5 -55.5t61.5 -151.5q0 -57 -32 -118t-79 -110.5t-112 -100t-118.5 -84t-110.5 -64.5h486v-25h-530v25q161 96 229 146q239 178 240 333q0 83 -52 131.5t-146 48.5q-92 0 -143 -49t-67 -114z" />
    <glyph glyph-name="three.tab" unicode="&#xf4e3;" 
d="M77 563l-21 12q24 50 84 92t144 42q103 0 167.5 -47.5t64.5 -133.5q0 -66 -42 -109.5t-114 -58.5q42 -3 80 -19.5t68 -55.5t30 -93q0 -95 -68 -148t-180 -53q-92 0 -161 41.5t-102 117.5l22 12q74 -146 241 -146q102 0 161.5 47.5t59.5 129.5q0 42 -23 73.5t-59 48
t-72.5 24t-71.5 7.5h-94v25h92q89 0 147.5 42.5t58.5 115.5q0 75 -57 115t-156 40q-65 0 -116.5 -32.5t-82.5 -88.5z" />
    <glyph glyph-name="four.tab" unicode="&#xf4e4;" 
d="M422 0v164h-398v25l398 511h25v-511h122v-25h-122v-164h-25zM57 189h365v472z" />
    <glyph glyph-name="five.tab" unicode="&#xf4e5;" 
d="M82 368l39 332h386v-25h-365l-30 -273q73 26 147 26q134 0 203 -56.5t69 -157.5q0 -102 -68 -162.5t-180 -60.5q-169 0 -241 126l20 16q74 -117 221 -117q100 0 160.5 55.5t60.5 142.5q0 94 -65 141.5t-180 47.5q-92 0 -177 -35z" />
    <glyph glyph-name="six.tab" unicode="&#xf4e6;" 
d="M39 330q0 182 80 280.5t202 98.5q128 0 186 -77l-16 -17q-53 69 -173 69q-58 0 -105 -26t-76 -66.5t-47 -91t-23.5 -99.5t-0.5 -92q32 72 92 114.5t144 42.5q111 0 178.5 -62.5t67.5 -174.5q0 -101 -71 -169.5t-170 -68.5q-117 0 -192.5 87.5t-75.5 251.5zM70 267
q7 -102 68.5 -176.5t168.5 -74.5q90 0 152 61.5t62 151.5q0 103 -62.5 158t-155.5 55q-85 0 -146 -51.5t-87 -123.5z" />
    <glyph glyph-name="seven.tab" unicode="&#xf4e7;" 
d="M36 675v25h501v-20l-353 -680h-28l351 675h-471z" />
    <glyph glyph-name="eight.tab" unicode="&#xf4e8;" 
d="M274 372h33q69 0 128 45.5t59 110.5q0 74 -53.5 115t-151.5 41t-150.5 -42.5t-52.5 -116.5q0 -66 58.5 -109.5t129.5 -43.5zM312 347h-41q-80 0 -145 -48t-65 -123q0 -71 64 -115.5t165 -44.5q103 0 166 44.5t63 119.5t-62 121t-145 46zM291 -9q-116 0 -186.5 49.5
t-70.5 135.5q0 71 51.5 122.5t121.5 61.5q-72 18 -110 62.5t-38 104.5q0 83 60 132.5t171 49.5q114 0 172.5 -48t58.5 -131q0 -64 -43.5 -109.5t-107.5 -59.5q79 -11 127.5 -59.5t48.5 -121.5q0 -89 -70 -139t-185 -50z" />
    <glyph glyph-name="nine.tab" unicode="&#xf4e9;" 
d="M540 389q0 -198 -71 -298t-206 -100q-63 0 -114 27t-70 60l18 14q35 -37 72 -56.5t94 -19.5q112 0 181 86t69 283q-30 -67 -93.5 -104t-142.5 -37q-116 0 -177.5 64.5t-61.5 161.5q0 100 69.5 169.5t171.5 69.5q70 0 122 -25t81.5 -69.5t43.5 -100.5t14 -125zM510 437
q-2 48 -15 90.5t-39 78.5t-71 57t-105 21q-93 0 -154 -61.5t-61 -153.5t59 -146t164 -54q80 0 143 51.5t79 116.5z" />
    <glyph glyph-name="dollar.tab" unicode="&#xf4ec;" 
d="M514 178q0 47 -26 79t-68 48t-92.5 27t-101 23.5t-92.5 30.5t-68 54.5t-26 89.5q0 76 64 125.5t169 53.5v84h27v-84q145 -3 222 -83l-16 -19q-44 39 -93.5 58t-123.5 19q-52 0 -99 -13t-85 -49t-38 -91q0 -48 26 -80.5t68 -48.5t92.5 -27t101 -23t92.5 -30t68 -53.5
t26 -88.5q0 -83 -68 -135.5t-173 -53.5v-94h-27v95q-80 5 -146 39.5t-100 84.5l20 17q35 -49 100 -83t155 -34q82 0 147 44.5t65 117.5z" />
    <glyph glyph-name="Euro.tab" unicode="&#xf4ed;" 
d="M9 427l8 25h81q29 108 119.5 182.5t211.5 74.5q62 0 111 -22l-11 -23q-40 20 -100 20q-108 0 -190 -63.5t-114 -168.5h351l-11 -25h-346q-7 -28 -7 -66q0 -52 3 -67h317l-10 -25h-304q28 -117 114 -185t205 -68q50 0 89 15l5 -25q-34 -15 -94 -15q-131 0 -224.5 76
t-121.5 202h-82l8 25h71q-3 20 -3 65q0 33 7 68h-83z" />
    <glyph glyph-name="cent.tab" unicode="&#xf4ee;" 
d="M312 -200v191q-123 6 -193 79t-70 191q0 112 71 189.5t192 80.5v169h25v-167h3q139 0 204 -92l-20 -15q-62 80 -187 82v-494h6q121 0 196 92l17 -14q-26 -45 -85 -74t-128 -29h-6v-189h-25zM74 261q0 -107 67 -175t171 -71v492q-108 -1 -173 -69.5t-65 -176.5z" />
    <glyph glyph-name="sterling.tab" unicode="&#xf4ef;" 
d="M76 291v25h89q-6 18 -25 58t-29.5 74t-10.5 70q0 76 57 133.5t147 57.5q102 0 174 -67l-13 -21q-70 63 -161 63q-74 0 -125.5 -48.5t-51.5 -117.5q0 -35 11 -68t28.5 -71t25.5 -63h176v-25h-170q5 -22 5 -50q0 -47 -16 -93t-34 -73q51 2 132.5 -26.5t115.5 -28.5
q60 0 112 43l13 -21q-53 -47 -128 -47q-36 0 -113.5 27t-119.5 27q-56 0 -109 -55l-14 20q34 36 77 54q57 75 57 172q0 24 -5 51h-95z" />
    <glyph glyph-name="yen.tab" unicode="&#xf4fa;" 
d="M552 700l-235 -370h194v-25h-209v-142h209v-25h-209v-138h-27v138h-207v25h207v142h-207v25h191l-232 370h31l231 -368l232 368h31z" />
    <glyph glyph-name="florin.tab" unicode="&#xf4fb;" 
d="M335 526l-14 -79h177v-25h-181l-71 -404q-1 -5 -5.5 -30t-6 -32t-6.5 -29.5t-9 -31t-11.5 -27t-15 -26.5t-19 -20t-24 -17t-29.5 -9.5t-36 -4.5q-46 0 -79 21l10 23q29 -19 68 -19q59 0 87 38t42 116l80 452h-167v25h171l15 85q33 177 164 177q63 0 105 -36l-12 -20
q-40 31 -95 31t-88.5 -37.5t-49.5 -120.5z" />
    <glyph glyph-name="uni20B4.tab" unicode="&#xf4fc;" 
d="M80 425v25h303q47 49 47 111q0 52 -40.5 87.5t-98.5 35.5q-87 0 -139 -64l-19 17q60 72 158 72q72 0 119 -42t47 -106t-42 -111h86v-25h-102q-40 -36 -89 -70q-17 -12 -38.5 -27t-33 -23t-15.5 -11h278v-25h-303q-54 -49 -54 -115q0 -64 46.5 -101t109.5 -37
q101 0 156 87l19 -17q-62 -95 -175 -95q-75 0 -129 43.5t-54 119.5q0 70 49 115h-86v25h104q9 7 103 75q57 41 75 56h-282z" />
    <glyph glyph-name="uni20BD.tab" unicode="&#xf4fd;" 
d="M16 316v25h115v359q102 0 161 1q69 0 118.5 -15.5t76 -43.5t38 -59.5t11.5 -70.5q0 -86 -58 -141t-180 -55h-140v-128h188v-25h-188v-163h-27v163h-115v25h115v128h-115zM295 675h-137v-334h138q105 0 159 45.5t54 125.5q0 163 -214 163z" />
    <glyph glyph-name="zero.denominator" unicode="&#xf655;" horiz-adv-x="477" 
d="M52 210q0 97 51 156t135 59q85 0 136 -59t51 -156t-51 -156t-136 -59q-84 0 -135 59t-51 156zM77 210q0 -87 43.5 -138.5t117.5 -51.5t118 52t44 138t-44 138t-118 52t-117.5 -51.5t-43.5 -138.5z" />
    <glyph glyph-name="one.denominator" unicode="&#xf656;" horiz-adv-x="275" 
d="M10 353l155 72h25v-425h-25v397l-144 -67z" />
    <glyph glyph-name="two.denominator" unicode="&#xf657;" horiz-adv-x="411" 
d="M68 313l-21 14q18 40 60.5 69t91.5 29q65 0 105.5 -35.5t40.5 -93.5q0 -74 -63 -131q-29 -27 -106 -79l-93 -61h264v-25h-308v23l118 78q70 46 107 80q56 51 56 115q0 44 -34 74t-87 30q-85 0 -131 -87z" />
    <glyph glyph-name="three.denominator" unicode="&#xf658;" horiz-adv-x="419" 
d="M81 333l-19 16q52 76 154 76q62 0 102.5 -29.5t40.5 -77.5q0 -37 -22 -63t-56 -37q92 -15 92 -100q0 -57 -47.5 -90t-110.5 -33q-115 0 -170 83l20 15q51 -73 150 -73q59 0 96 27t37 71q0 85 -125 85h-70v25h64q49 0 83 24.5t34 65.5q0 38 -32.5 60t-85.5 22
q-48 0 -79.5 -15.5t-55.5 -51.5z" />
    <glyph glyph-name="four.denominator" unicode="&#xf659;" horiz-adv-x="464" 
d="M320 0v109h-304v25l304 286h25v-286h99v-25h-99v-109h-25zM52 134h268v252z" />
    <glyph glyph-name="five.denominator" unicode="&#xf65a;" horiz-adv-x="410" 
d="M71 213l34 207h243v-25h-222l-24 -150q30 11 88 11q78 0 126 -36t48 -93q0 -64 -49.5 -98t-113.5 -34q-103 0 -156 73l19 16q49 -64 137 -64q64 0 101 31t37 76q0 46 -40.5 75t-108.5 29q-66 0 -119 -18z" />
    <glyph glyph-name="six.denominator" unicode="&#xf65b;" horiz-adv-x="451" 
d="M52 199q0 107 61 166.5t145 59.5q70 0 114 -38l-12 -22q-42 35 -104 35q-76 0 -127.5 -53.5t-51.5 -151.5q23 34 67.5 56.5t93.5 22.5q74 0 122.5 -36t48.5 -97q0 -63 -49.5 -104.5t-116.5 -41.5q-82 0 -136.5 54.5t-54.5 149.5zM79 161q13 -64 53.5 -102.5t110.5 -38.5
q57 0 99 34t42 87q0 48 -41 78t-105 30q-97 0 -159 -88z" />
    <glyph glyph-name="seven.denominator" unicode="&#xf65c;" horiz-adv-x="357" 
d="M20 395v25h317v-23l-243 -397h-29l241 395h-286z" />
    <glyph glyph-name="eight.denominator" unicode="&#xf65d;" horiz-adv-x="444" 
d="M394 112q0 -53 -50 -85t-122 -32t-122 32t-50 85q0 42 29.5 69.5t75.5 35.5q-39 11 -63.5 36t-24.5 62q0 48 44 79t111 31t111 -31t44 -79q0 -37 -24.5 -62t-63.5 -36q46 -8 75.5 -35.5t29.5 -69.5zM234 204h-24q-53 0 -94 -24.5t-41 -67.5q0 -41 40 -66.5t107 -25.5
t107 25.5t40 66.5q0 43 -41 67.5t-94 24.5zM352 315q0 37 -36.5 61t-93.5 24t-93.5 -24t-36.5 -61q0 -39 37 -63.5t81 -24.5h24q44 0 81 24.5t37 63.5z" />
    <glyph glyph-name="nine.denominator" unicode="&#xf65e;" horiz-adv-x="451" 
d="M399 221q0 -107 -58.5 -166.5t-141.5 -59.5q-37 0 -70 11.5t-50 26.5l12 22q45 -35 110 -35q75 0 124 53t49 152q-21 -34 -66.5 -56.5t-94.5 -22.5q-73 0 -122 37t-49 98q0 62 51.5 103t118.5 41q82 0 134.5 -54t52.5 -150zM372 259q-11 62 -50.5 101.5t-109.5 39.5
q-60 0 -102.5 -34t-42.5 -85q0 -48 40 -79t103 -31q56 0 99.5 27t62.5 61z" />
    <glyph glyph-name="zero.numerator" unicode="&#xf661;" horiz-adv-x="477" 
d="M52 510q0 97 51 156t135 59q85 0 136 -59t51 -156t-51 -156t-136 -59q-84 0 -135 59t-51 156zM77 510q0 -87 43.5 -138.5t117.5 -51.5t118 52t44 138t-44 138t-118 52t-117.5 -51.5t-43.5 -138.5z" />
    <glyph glyph-name="one.numerator" unicode="&#xf662;" horiz-adv-x="275" 
d="M10 653l155 72h25v-425h-25v397l-144 -67z" />
    <glyph glyph-name="two.numerator" unicode="&#xf663;" horiz-adv-x="411" 
d="M68 613l-21 14q18 40 60.5 69t91.5 29q65 0 105.5 -35.5t40.5 -93.5q0 -74 -63 -131q-29 -27 -106 -79l-93 -61h264v-25h-308v23l118 78q70 46 107 80q56 51 56 115q0 44 -34 74t-87 30q-85 0 -131 -87z" />
    <glyph glyph-name="three.numerator" unicode="&#xf664;" horiz-adv-x="419" 
d="M81 633l-19 16q52 76 154 76q62 0 102.5 -29.5t40.5 -77.5q0 -37 -22 -63t-56 -37q92 -15 92 -100q0 -57 -47.5 -90t-110.5 -33q-115 0 -170 83l20 15q51 -73 150 -73q59 0 96 27t37 71q0 85 -125 85h-70v25h64q49 0 83 24.5t34 65.5q0 38 -32.5 60t-85.5 22
q-48 0 -79.5 -15.5t-55.5 -51.5z" />
    <glyph glyph-name="four.numerator" unicode="&#xf665;" horiz-adv-x="464" 
d="M320 300v109h-304v25l304 286h25v-286h99v-25h-99v-109h-25zM52 434h268v252z" />
    <glyph glyph-name="five.numerator" unicode="&#xf666;" horiz-adv-x="410" 
d="M71 513l34 207h243v-25h-222l-24 -150q30 11 88 11q78 0 126 -36t48 -93q0 -64 -49.5 -98t-113.5 -34q-103 0 -156 73l19 16q49 -64 137 -64q64 0 101 31t37 76q0 46 -40.5 75t-108.5 29q-66 0 -119 -18z" />
    <glyph glyph-name="six.numerator" unicode="&#xf667;" horiz-adv-x="451" 
d="M52 499q0 107 61 166.5t145 59.5q70 0 114 -38l-12 -22q-42 35 -104 35q-76 0 -127.5 -53.5t-51.5 -151.5q23 34 67.5 56.5t93.5 22.5q74 0 122.5 -36t48.5 -97q0 -63 -49.5 -104.5t-116.5 -41.5q-82 0 -136.5 54.5t-54.5 149.5zM79 461q13 -64 53.5 -102.5t110.5 -38.5
q57 0 99 34t42 87q0 48 -41 78t-105 30q-97 0 -159 -88z" />
    <glyph glyph-name="seven.numerator" unicode="&#xf668;" horiz-adv-x="357" 
d="M20 695v25h317v-23l-243 -397h-29l241 395h-286z" />
    <glyph glyph-name="eight.numerator" unicode="&#xf669;" horiz-adv-x="444" 
d="M394 412q0 -53 -50 -85t-122 -32t-122 32t-50 85q0 42 29.5 69.5t75.5 35.5q-39 11 -63.5 36t-24.5 62q0 48 44 79t111 31t111 -31t44 -79q0 -37 -24.5 -62t-63.5 -36q46 -8 75.5 -35.5t29.5 -69.5zM234 504h-24q-53 0 -94 -24.5t-41 -67.5q0 -41 40 -66.5t107 -25.5
t107 25.5t40 66.5q0 43 -41 67.5t-94 24.5zM352 615q0 37 -36.5 61t-93.5 24t-93.5 -24t-36.5 -61q0 -39 37 -63.5t81 -24.5h24q44 0 81 24.5t37 63.5z" />
    <glyph glyph-name="nine.numerator" unicode="&#xf66a;" horiz-adv-x="451" 
d="M399 521q0 -107 -58.5 -166.5t-141.5 -59.5q-37 0 -70 11.5t-50 26.5l12 22q45 -35 110 -35q75 0 124 53t49 152q-21 -34 -66.5 -56.5t-94.5 -22.5q-73 0 -122 37t-49 98q0 62 51.5 103t118.5 41q82 0 134.5 -54t52.5 -150zM372 559q-11 62 -50.5 101.5t-109.5 39.5
q-60 0 -102.5 -34t-42.5 -85q0 -48 40 -79t103 -31q56 0 99.5 27t62.5 61z" />
    <glyph glyph-name="uniF66D" unicode="&#xf66d;" horiz-adv-x="558" 
d="M5 0l262 563h25l261 -563h-28l-82 176h-328l-82 -176h-28zM279 531l-153 -330h306zM140 735l20 15q41 -65 119 -65t119 65l20 -15q-51 -75 -139 -75t-139 75z" />
    <glyph glyph-name="uniF66E" unicode="&#xf66e;" horiz-adv-x="558" 
d="M5 0l262 563h25l261 -563h-28l-82 176h-328l-82 -176h-28zM279 531l-153 -330h306zM157 664v25h244v-25h-244z" />
    <glyph glyph-name="uniF66F" unicode="&#xf66f;" horiz-adv-x="558" 
d="M539 -168l5 -24q-21 -8 -41 -8q-38 0 -67 26t-29 74q0 51 41 87q28 23 67 34l-72 155h-328l-82 -176h-28l262 563h25l261 -563h-14q-48 -5 -76 -32q-31 -29 -31 -70q0 -31 19 -52t54 -21q20 0 34 7zM279 531l-153 -330h306z" />
    <glyph glyph-name="uniF671" unicode="&#xf671;" 
d="M539 97l16 -19q-33 -38 -89.5 -61.5t-122.5 -23.5q-138 0 -222.5 80t-84.5 207q0 122 81.5 204.5t212.5 82.5q73 0 128.5 -25t87.5 -58l-14 -21q-77 79 -202 79q-120 0 -194.5 -74t-74.5 -188q0 -117 77 -189.5t205 -72.5q125 0 196 79zM433 762l-105 -142l-20 15
l105 142z" />
    <glyph glyph-name="uniF672" unicode="&#xf672;" 
d="M539 97l16 -19q-33 -38 -89.5 -61.5t-122.5 -23.5q-138 0 -222.5 80t-84.5 207q0 122 81.5 204.5t212.5 82.5q73 0 128.5 -25t87.5 -58l-14 -21q-77 79 -202 79q-120 0 -194.5 -74t-74.5 -188q0 -117 77 -189.5t205 -72.5q125 0 196 79zM468 755l-132 -118l-132 118
l17 19l115 -104l115 104z" />
    <glyph glyph-name="uniF673" unicode="&#xf673;" 
d="M539 97l16 -19q-33 -38 -89.5 -61.5t-122.5 -23.5q-138 0 -222.5 80t-84.5 207q0 122 81.5 204.5t212.5 82.5q73 0 128.5 -25t87.5 -58l-14 -21q-77 79 -202 79q-120 0 -194.5 -74t-74.5 -188q0 -117 77 -189.5t205 -72.5q125 0 196 79zM330 769l132 -118l-17 -19
l-115 104l-115 -104l-17 19z" />
    <glyph glyph-name="uniF674" unicode="&#xf674;" 
d="M539 97l16 -19q-33 -38 -89.5 -61.5t-122.5 -23.5q-138 0 -222.5 80t-84.5 207q0 122 81.5 204.5t212.5 82.5q73 0 128.5 -25t87.5 -58l-14 -21q-77 79 -202 79q-120 0 -194.5 -74t-74.5 -188q0 -117 77 -189.5t205 -72.5q125 0 196 79zM310 693q0 11 7.5 19.5t17.5 8.5
t17.5 -8.5t7.5 -19.5t-7.5 -19.5t-17.5 -8.5t-17.5 8.5t-7.5 19.5z" />
    <glyph glyph-name="uniF675" unicode="&#xf675;" horiz-adv-x="600" 
d="M70 0v560h179q161 0 237.5 -76t76.5 -196q0 -127 -81.5 -207.5t-237.5 -80.5h-174zM247 535h-152v-510h148q146 0 220.5 74t74.5 189q0 111 -71 179t-220 68zM378 755l-132 -118l-132 118l17 19l115 -104l115 104z" />
    <glyph glyph-name="uniF676" unicode="&#xf676;" horiz-adv-x="643" 
d="M2 264v25h111v271h179q161 0 237.5 -76t76.5 -196q0 -127 -81.5 -207.5t-237.5 -80.5h-174v264h-111zM290 535h-152v-246h188v-25h-188v-239h148q146 0 220.5 74t74.5 189q0 111 -71 179t-220 68z" />
    <glyph glyph-name="uniF678" unicode="&#xf678;" horiz-adv-x="538" 
d="M70 0v560h408v-25h-383v-238h359v-25h-359v-247h393v-25h-418zM405 755l-132 -118l-132 118l17 19l115 -104l115 104z" />
    <glyph glyph-name="uniF679" unicode="&#xf679;" horiz-adv-x="538" 
d="M70 0v560h408v-25h-383v-238h359v-25h-359v-247h393v-25h-418zM257 693q0 11 7.5 19.5t17.5 8.5t17.5 -8.5t7.5 -19.5t-7.5 -19.5t-17.5 -8.5t-17.5 8.5t-7.5 19.5z" />
    <glyph glyph-name="uniF67A" unicode="&#xf67a;" horiz-adv-x="538" 
d="M70 0v560h408v-25h-383v-238h359v-25h-359v-247h393v-25h-418zM160 664v25h244v-25h-244z" />
    <glyph glyph-name="uniF67C" unicode="&#xf67c;" horiz-adv-x="538" 
d="M70 0v560h408v-25h-383v-238h359v-25h-359v-247h393v-25h-3q-49 -5 -78 -32q-31 -29 -31 -70q0 -31 19 -52t54 -21q20 0 34 7l5 -24q-21 -8 -41 -8q-38 0 -67 26t-29 74q0 51 41 87q5 5 17 13h-339z" />
    <glyph glyph-name="uniF67D" unicode="&#xf67d;" horiz-adv-x="596" 
d="M359 236v25h200v-189q-91 -79 -219 -79q-133 0 -218.5 79t-85.5 208q0 120 88 203.5t211 83.5q131 0 210 -73l-14 -21q-67 69 -191 69q-121 0 -200 -74t-79 -188q0 -117 79 -189.5t201 -72.5q114 0 193 66v152h-175zM204 735l20 15q41 -65 119 -65t119 65l20 -15
q-51 -75 -139 -75t-139 75z" />
    <glyph glyph-name="uniF67E" unicode="&#xf67e;" horiz-adv-x="596" 
d="M359 236v25h200v-189q-91 -79 -219 -79q-133 0 -218.5 79t-85.5 208q0 120 88 203.5t211 83.5q131 0 210 -73l-14 -21q-67 69 -191 69q-121 0 -200 -74t-79 -188q0 -117 79 -189.5t201 -72.5q114 0 193 66v152h-175zM345 769l132 -118l-17 -19l-115 104l-115 -104l-17 19
z" />
    <glyph glyph-name="uniF67F" unicode="&#xf67f;" horiz-adv-x="596" 
d="M359 236v25h200v-189q-91 -79 -219 -79q-133 0 -218.5 79t-85.5 208q0 120 88 203.5t211 83.5q131 0 210 -73l-14 -21q-67 69 -191 69q-121 0 -200 -74t-79 -188q0 -117 79 -189.5t201 -72.5q114 0 193 66v152h-175zM332 -73l21 14q27 -27 27 -65q0 -29 -14 -54
t-21.5 -31.5t-23.5 -19.5l-14 21q48 30 48 82q0 25 -23 53z" />
    <glyph glyph-name="uniF680" unicode="&#xf680;" horiz-adv-x="596" 
d="M359 236v25h200v-189q-91 -79 -219 -79q-133 0 -218.5 79t-85.5 208q0 120 88 203.5t211 83.5q131 0 210 -73l-14 -21q-67 69 -191 69q-121 0 -200 -74t-79 -188q0 -117 79 -189.5t201 -72.5q114 0 193 66v152h-175zM310 693q0 11 7.5 19.5t17.5 8.5t17.5 -8.5t7.5 -19.5
t-7.5 -19.5t-17.5 -8.5t-17.5 8.5t-7.5 19.5z" />
    <glyph glyph-name="uniF681" unicode="&#xf681;" horiz-adv-x="633" 
d="M0 421v25h70v114h25v-114h441v114h25v-114h72v-25h-72v-421h-25v274h-441v-274h-25v421h-70zM95 299h441v122h-441v-122z" />
    <glyph glyph-name="uniF682" unicode="&#xf682;" horiz-adv-x="631" 
d="M536 0v274h-441v-274h-25v560h25v-261h441v261h25v-560h-25zM315 769l132 -118l-17 -19l-115 104l-115 -104l-17 19z" />
    <glyph glyph-name="uniF685" unicode="&#xf685;" horiz-adv-x="187" 
d="M81 0v560h25v-560h-25zM-29 664v25h244v-25h-244z" />
    <glyph glyph-name="uniF686" unicode="&#xf686;" horiz-adv-x="187" 
d="M103 -168l5 -24q-21 -8 -41 -8q-38 0 -67 26t-29 74q0 51 41 87q28 25 69 34v539h25v-560h-1q-49 -5 -78 -32q-31 -29 -31 -70q0 -31 19 -52t54 -21q20 0 34 7z" />
    <glyph glyph-name="uniF688" unicode="&#xf688;" horiz-adv-x="413" 
d="M341 560v-397q0 -80 -47.5 -125t-127.5 -45q-99 0 -164 96l20 16q54 -87 145 -87q68 0 108.5 37t40.5 111v394h25zM322 769l132 -118l-17 -19l-115 104l-115 -104l-17 19z" />
    <glyph glyph-name="uniF689" unicode="&#xf689;" horiz-adv-x="530" 
d="M70 0v560h25v-314l367 314h38l-302 -259l326 -301h-37l-309 284l-83 -71v-213h-25zM244 -73l21 14q27 -27 27 -65q0 -29 -14 -54t-21.5 -31.5t-23.5 -19.5l-14 21q48 30 48 82q0 25 -23 53z" />
    <glyph glyph-name="uniF68A" unicode="&#xf68a;" horiz-adv-x="487" 
d="M70 0v560h25v-535h383v-25h-408zM306 762l-105 -142l-20 15l105 142z" />
    <glyph glyph-name="uniF68B" unicode="&#xf68b;" horiz-adv-x="487" 
d="M70 0v560h25v-535h383v-25h-408zM326 560h28q11 -33 11 -59q0 -37 -20.5 -69.5t-45.5 -50.5l-15 20q26 18 41 45.5t15 54.5q0 33 -14 59z" />
    <glyph glyph-name="uniF68C" unicode="&#xf68c;" horiz-adv-x="487" 
d="M70 0v560h25v-535h383v-25h-408zM257 -73l21 14q27 -27 27 -65q0 -29 -14 -54t-21.5 -31.5t-23.5 -19.5l-14 21q48 30 48 82q0 25 -23 53z" />
    <glyph glyph-name="uniF68D" unicode="&#xf68d;" horiz-adv-x="487" 
d="M70 0v560h25v-535h383v-25h-408zM312 310q0 13 8 22t20 9t20.5 -9t8.5 -22t-8.5 -21.5t-20.5 -8.5t-20 8.5t-8 21.5z" />
    <glyph glyph-name="uniF68E" unicode="&#xf68e;" horiz-adv-x="622" 
d="M552 0h-25l-432 521v-521h-25v560h25l432 -521v521h25v-560zM404 762l-105 -142l-20 15l105 142z" />
    <glyph glyph-name="uniF68F" unicode="&#xf68f;" horiz-adv-x="622" 
d="M552 0h-25l-432 521v-521h-25v560h25l432 -521v521h25v-560zM443 755l-132 -118l-132 118l17 19l115 -104l115 104z" />
    <glyph glyph-name="uniF690" unicode="&#xf690;" horiz-adv-x="622" 
d="M552 0h-25l-432 521v-521h-25v560h25l432 -521v521h25v-560zM289 -73l21 14q27 -27 27 -65q0 -29 -14 -54t-21.5 -31.5t-23.5 -19.5l-14 21q48 30 48 82q0 25 -23 53z" />
    <glyph glyph-name="uniF692" unicode="&#xf692;" horiz-adv-x="668" 
d="M36 280q0 121 86 204t212 83q125 0 211 -81.5t86 -205.5q0 -123 -86 -205t-211 -82q-126 0 -212 81.5t-86 205.5zM61 280q0 -110 80 -186t193 -76q116 0 194 75.5t78 186.5q0 112 -79 187t-193 75t-193.5 -75t-79.5 -187zM510 792l-125 -169l-20 15l125 169zM380 792
l-125 -169l-20 15l125 169z" />
    <glyph glyph-name="uniF693" unicode="&#xf693;" horiz-adv-x="668" 
d="M36 280q0 121 86 204t212 83q125 0 211 -81.5t86 -205.5q0 -123 -86 -205t-211 -82q-126 0 -212 81.5t-86 205.5zM61 280q0 -110 80 -186t193 -76q116 0 194 75.5t78 186.5q0 112 -79 187t-193 75t-193.5 -75t-79.5 -187zM211 664v25h244v-25h-244z" />
    <glyph glyph-name="uniF695" unicode="&#xf695;" horiz-adv-x="568" 
d="M95 0h-25v560h215q221 0 221 -153q0 -134 -174 -157l215 -250h-33l-211 246h-208v-246zM285 535h-190v-264h191q88 0 141.5 34t53.5 102q0 128 -196 128zM347 762l-105 -142l-20 15l105 142z" />
    <glyph glyph-name="uniF696" unicode="&#xf696;" horiz-adv-x="568" 
d="M95 0h-25v560h215q221 0 221 -153q0 -134 -174 -157l215 -250h-33l-211 246h-208v-246zM285 535h-190v-264h191q88 0 141.5 34t53.5 102q0 128 -196 128zM383 755l-132 -118l-132 118l17 19l115 -104l115 104z" />
    <glyph glyph-name="uniF697" unicode="&#xf697;" horiz-adv-x="568" 
d="M95 0h-25v560h215q221 0 221 -153q0 -134 -174 -157l215 -250h-33l-211 246h-208v-246zM285 535h-190v-264h191q88 0 141.5 34t53.5 102q0 128 -196 128zM257 -73l21 14q27 -27 27 -65q0 -29 -14 -54t-21.5 -31.5t-23.5 -19.5l-14 21q48 30 48 82q0 25 -23 53z" />
    <glyph glyph-name="uniF698" unicode="&#xf698;" horiz-adv-x="523" 
d="M450 145q0 24 -10.5 42.5t-24 30t-41.5 21.5t-46.5 14.5t-54.5 11.5q-114 23 -153 44q-70 39 -71 114q0 61 60 102.5t154 41.5q125 0 196 -68l-14 -19q-71 62 -184 62q-73 0 -130 -30.5t-57 -89.5q0 -26 11.5 -46.5t27.5 -33t45.5 -23t51 -15.5t58.5 -13q7 -1 10 -2
q37 -7 59.5 -13t52 -17.5t45.5 -25.5t28 -36.5t12 -51.5q0 -67 -59 -109.5t-146 -42.5q-75 0 -137.5 28.5t-94.5 71.5l18 18q26 -36 81.5 -64.5t133.5 -28.5q71 0 125 34.5t54 92.5zM324 762l-105 -142l-20 15l105 142z" />
    <glyph glyph-name="uniF699" unicode="&#xf699;" horiz-adv-x="523" 
d="M192 -180l8 23q31 -16 70 -16q75 0 75 50q0 21 -19 33.5t-52 12.5q-16 0 -23 -1v72q-70 4 -126.5 31.5t-86.5 67.5l18 18q26 -36 81.5 -64.5t133.5 -28.5q71 0 125 34.5t54 92.5q0 24 -10.5 42.5t-24 30t-41.5 21.5t-46.5 14.5t-54.5 11.5q-114 23 -153 44
q-70 39 -71 114q0 61 60 102.5t154 41.5q125 0 196 -68l-14 -19q-71 62 -184 62q-73 0 -130 -30.5t-57 -89.5q0 -26 11.5 -46.5t27.5 -33t45.5 -23t51 -15.5t58.5 -13q7 -1 10 -2q37 -7 59.5 -13t52 -17.5t45.5 -25.5t28 -36.5t12 -51.5q0 -66 -57 -108t-142 -44v-47
q46 1 70 -19t24 -50q0 -32 -25 -53.5t-75 -21.5q-46 0 -78 18z" />
    <glyph glyph-name="uniF69A" unicode="&#xf69a;" horiz-adv-x="523" 
d="M450 145q0 24 -10.5 42.5t-24 30t-41.5 21.5t-46.5 14.5t-54.5 11.5q-114 23 -153 44q-70 39 -71 114q0 61 60 102.5t154 41.5q125 0 196 -68l-14 -19q-71 62 -184 62q-73 0 -130 -30.5t-57 -89.5q0 -26 11.5 -46.5t27.5 -33t45.5 -23t51 -15.5t58.5 -13q7 -1 10 -2
q37 -7 59.5 -13t52 -17.5t45.5 -25.5t28 -36.5t12 -51.5q0 -67 -59 -109.5t-146 -42.5q-75 0 -137.5 28.5t-94.5 71.5l18 18q26 -36 81.5 -64.5t133.5 -28.5q71 0 125 34.5t54 92.5zM258 769l132 -118l-17 -19l-115 104l-115 -104l-17 19z" />
    <glyph glyph-name="uniF69B" unicode="&#xf69b;" horiz-adv-x="523" 
d="M450 145q0 24 -10.5 42.5t-24 30t-41.5 21.5t-46.5 14.5t-54.5 11.5q-114 23 -153 44q-70 39 -71 114q0 61 60 102.5t154 41.5q125 0 196 -68l-14 -19q-71 62 -184 62q-73 0 -130 -30.5t-57 -89.5q0 -26 11.5 -46.5t27.5 -33t45.5 -23t51 -15.5t58.5 -13q7 -1 10 -2
q37 -7 59.5 -13t52 -17.5t45.5 -25.5t28 -36.5t12 -51.5q0 -67 -59 -109.5t-146 -42.5q-75 0 -137.5 28.5t-94.5 71.5l18 18q26 -36 81.5 -64.5t133.5 -28.5q71 0 125 34.5t54 92.5zM254 -73l21 14q27 -27 27 -65q0 -29 -14 -54t-21.5 -31.5t-23.5 -19.5l-14 21q48 30 48 82
q0 25 -23 53z" />
    <glyph glyph-name="uniF69D" unicode="&#xf69d;" horiz-adv-x="476" 
d="M3 535v25h471v-25h-223v-535h-25v535h-223zM370 755l-132 -118l-132 118l17 19l115 -104l115 104z" />
    <glyph glyph-name="uniF69E" unicode="&#xf69e;" horiz-adv-x="476" 
d="M3 535v25h471v-25h-223v-535h-25v535h-223zM223 -73l21 14q27 -27 27 -65q0 -29 -14 -54t-21.5 -31.5t-23.5 -19.5l-14 21q48 30 48 82q0 25 -23 53z" />
    <glyph glyph-name="uniF69F" unicode="&#xf69f;" horiz-adv-x="607" 
d="M61 233v327h25v-320q0 -105 57.5 -163.5t159.5 -58.5t159.5 58.5t57.5 163.5v320h25v-327q0 -121 -72 -180.5t-170 -59.5t-170 59.5t-72 180.5zM164 735l20 15q41 -65 119 -65t119 65l20 -15q-51 -75 -139 -75t-139 75z" />
    <glyph glyph-name="uniF6A0" unicode="&#xf6a0;" horiz-adv-x="607" 
d="M61 233v327h25v-320q0 -105 57.5 -163.5t159.5 -58.5t159.5 58.5t57.5 163.5v320h25v-327q0 -121 -72 -180.5t-170 -59.5t-170 59.5t-72 180.5zM478 792l-125 -169l-20 15l125 169zM348 792l-125 -169l-20 15l125 169z" />
    <glyph glyph-name="uniF6A1" unicode="&#xf6a1;" horiz-adv-x="607" 
d="M61 233v327h25v-320q0 -105 57.5 -163.5t159.5 -58.5t159.5 58.5t57.5 163.5v320h25v-327q0 -121 -72 -180.5t-170 -59.5t-170 59.5t-72 180.5zM181 664v25h244v-25h-244z" />
    <glyph glyph-name="uniF6A2" unicode="&#xf6a2;" horiz-adv-x="607" 
d="M61 233v327h25v-320q0 -105 57.5 -163.5t159.5 -58.5t159.5 58.5t57.5 163.5v320h25v-327q0 -79 -31.5 -128.5t-89.5 -86.5q-30 -19 -47 -31.5t-37 -40.5t-20 -58q0 -28 18.5 -45.5t54.5 -17.5q20 0 34 7l5 -24q-21 -8 -41 -8q-41 0 -68.5 23t-27.5 68q0 59 62 107
q-28 -5 -54 -5q-98 0 -170 59.5t-72 180.5z" />
    <glyph glyph-name="uniF6A3" unicode="&#xf6a3;" horiz-adv-x="607" 
d="M61 233v327h25v-320q0 -105 57.5 -163.5t159.5 -58.5t159.5 58.5t57.5 163.5v320h25v-327q0 -121 -72 -180.5t-170 -59.5t-170 59.5t-72 180.5zM222 693q0 35 23.5 59.5t57.5 24.5t57.5 -24.5t23.5 -59.5t-23.5 -59t-57.5 -24t-57.5 24t-23.5 59zM247 693
q0 -25 16.5 -41.5t39.5 -16.5t39.5 16.5t16.5 41.5t-16.5 42t-39.5 17t-39.5 -17t-16.5 -42z" />
    <glyph glyph-name="uniF6AB" unicode="&#xf6ab;" horiz-adv-x="533" 
d="M31 535v25h476v-25l-460 -510h469v-25h-502v25l458 510h-441zM359 762l-105 -142l-20 15l105 142z" />
    <glyph glyph-name="uniF6AC" unicode="&#xf6ac;" horiz-adv-x="533" 
d="M31 535v25h476v-25l-460 -510h469v-25h-502v25l458 510h-441zM251 693q0 11 7.5 19.5t17.5 8.5t17.5 -8.5t7.5 -19.5t-7.5 -19.5t-17.5 -8.5t-17.5 8.5t-7.5 19.5z" />
    <glyph glyph-name="uniF6AD" unicode="&#xf6ad;" horiz-adv-x="187" 
d="M81 0v560h25v-560h-25zM69 693q0 11 7.5 19.5t17.5 8.5t17.5 -8.5t7.5 -19.5t-7.5 -19.5t-17.5 -8.5t-17.5 8.5t-7.5 19.5z" />
    <glyph glyph-name="uniF6BA" unicode="&#xf6ba;" horiz-adv-x="400" 
d="M92 338v25h209v-25h-209z" />
    <glyph glyph-name="uniF6BB" unicode="&#xf6bb;" horiz-adv-x="590" 
d="M97 339v25h388v-25h-388z" />
    <glyph glyph-name="uniF6BC" unicode="&#xf6bc;" horiz-adv-x="795" 
d="M97 339v25h600v-25h-600z" />
    <glyph glyph-name="uniF6C3" unicode="&#xf6c3;" horiz-adv-x="326" 
d="M279 -73l21 14q27 -27 27 -65q0 -29 -14 -54t-21.5 -31.5t-23.5 -19.5l-14 21q48 30 48 82q0 25 -23 53z" />
    <glyph glyph-name="uniF6C9" unicode="&#xf6c9;" horiz-adv-x="502" 
d="M331 789l159 90l12 -22l-159 -90z" />
    <glyph glyph-name="uniF6CA" unicode="&#xf6ca;" horiz-adv-x="424" 
d="M434 863l-176 -96l-176 96l12 22l164 -90l164 90z" />
    <glyph glyph-name="uniF6CB" unicode="&#xf6cb;" horiz-adv-x="463" 
d="M195 820q0 9 7 15t17 6t17 -6t7 -15t-7 -15t-17 -6t-17 6t-7 15zM418 820q0 9 7 15t17 6t17 -6t7 -15t-7 -15t-17 -6t-17 6t-7 15z" />
    <glyph glyph-name="uniF6CE" unicode="&#xf6ce;" horiz-adv-x="401" 
d="M388 767l-159 90l12 22l160 -90z" />
    <glyph glyph-name="uniF6CF" unicode="&#xf6cf;" horiz-adv-x="584" 
d="M253 793l167 88l12 -22l-167 -88zM405 793l167 88l12 -22l-167 -88z" />
    <glyph glyph-name="uniF6D0" unicode="&#xf6d0;" horiz-adv-x="509" 
d="M220 810v25h289v-25h-289z" />
    <glyph glyph-name="uniF6D1" unicode="&#xf6d1;" horiz-adv-x="523" 
d="M204 838l22 8q36 -75 138 -75t138 74l22 -7q-37 -92 -160 -92q-124 0 -160 92z" />
    <glyph glyph-name="uniF6D4" unicode="&#xf6d4;" horiz-adv-x="459" 
d="M160 708h25q1 -49 35.5 -80.5t89.5 -31.5t89.5 31.5t35.5 80.5h25q-1 -58 -42 -97.5t-108 -39.5t-108 39.5t-42 97.5z" />
    <glyph glyph-name="uniF6F4" unicode="&#xf6f4;" horiz-adv-x="478" 
d="M200 735l20 15q41 -65 119 -65t119 65l20 -15q-51 -75 -139 -75t-139 75z" />
    <glyph glyph-name="uniF6F5" unicode="&#xf6f5;" horiz-adv-x="458" 
d="M458 755l-132 -118l-132 118l17 19l115 -104l115 104z" />
    <glyph glyph-name="uniF6F6" unicode="&#xf6f6;" horiz-adv-x="435" 
d="M303 769l132 -118l-17 -19l-115 104l-115 -104l-17 19z" />
    <glyph glyph-name="uniF6F7" unicode="&#xf6f7;" horiz-adv-x="350" 
d="M300 693q0 11 7.5 19.5t17.5 8.5t17.5 -8.5t7.5 -19.5t-7.5 -19.5t-17.5 -8.5t-17.5 8.5t-7.5 19.5z" />
    <glyph glyph-name="uniF6F8" unicode="&#xf6f8;" horiz-adv-x="518" 
d="M513 792l-125 -169l-20 15l125 169zM383 792l-125 -169l-20 15l125 169z" />
    <glyph glyph-name="uniF6F9" unicode="&#xf6f9;" horiz-adv-x="487" 
d="M0 142v31l70 49v338h25v-320l192 135v-31l-192 -135v-184h383v-25h-408v191z" />
    <glyph glyph-name="uniF6FA" unicode="&#xf6fa;" horiz-adv-x="1045" 
d="M577 0v114q-41 -56 -104.5 -88.5t-138.5 -32.5q-126 0 -212 81.5t-86 205.5q0 121 86 204t212 83q75 0 138.5 -32.5t104.5 -88.5v114h408v-25h-383v-238h359v-25h-359v-247h393v-25h-418zM61 280q0 -110 80 -186t193 -76q80 0 144.5 38t98.5 103v240q-34 65 -99 104
t-144 39q-114 0 -193.5 -75t-79.5 -187z" />
    <glyph glyph-name="uniF6FB" unicode="&#xf6fb;" horiz-adv-x="387" 
d="M387 -168l5 -24q-21 -8 -41 -8q-38 0 -67 26t-29 74q0 51 41 87q19 17 46 27t47 11v-25q-49 -5 -78 -32q-31 -29 -31 -70q0 -31 19 -52t54 -21q20 0 34 7z" />
    <glyph glyph-name="uniF6FC" unicode="&#xf6fc;" horiz-adv-x="409" 
d="M246 693q0 35 23.5 59.5t57.5 24.5t57.5 -24.5t23.5 -59.5t-23.5 -59t-57.5 -24t-57.5 24t-23.5 59zM271 693q0 -25 16.5 -41.5t39.5 -16.5t39.5 16.5t16.5 41.5t-16.5 42t-39.5 17t-39.5 -17t-16.5 -42z" />
    <glyph glyph-name="uniF6FD" unicode="&#xf6fd;" horiz-adv-x="523" 
d="M450 145q0 24 -10.5 42.5t-24 30t-41.5 21.5t-46.5 14.5t-54.5 11.5q-114 23 -153 44q-70 39 -71 114q0 61 60 102.5t154 41.5q125 0 196 -68l-14 -19q-71 62 -184 62q-73 0 -130 -30.5t-57 -89.5q0 -26 11.5 -46.5t27.5 -33t45.5 -23t51 -15.5t58.5 -13q7 -1 10 -2
q37 -7 59.5 -13t52 -17.5t45.5 -25.5t28 -36.5t12 -51.5q0 -67 -59 -109.5t-146 -42.5q-75 0 -137.5 28.5t-94.5 71.5l18 18q26 -36 81.5 -64.5t133.5 -28.5q71 0 125 34.5t54 92.5zM395 755l-132 -118l-132 118l17 19l115 -104l115 104z" />
    <glyph glyph-name="uniF6FE" unicode="&#xf6fe;" horiz-adv-x="466" 
d="M252 705q24 0 65 -24l11 -7q36 -22 54 -22q37 0 67 42l18 -17q-37 -50 -85 -50q-24 0 -65 24l-11 7q-36 22 -54 22q-37 0 -67 -42l-18 17q37 50 85 50z" />
    <glyph glyph-name="uniF6FF" unicode="&#xf6ff;" horiz-adv-x="533" 
d="M31 535v25h476v-25l-460 -510h469v-25h-502v25l458 510h-441zM399 755l-132 -118l-132 118l17 19l115 -104l115 104z" />
    <glyph glyph-name="uniF760" unicode="&#xf760;" horiz-adv-x="364" 
d="M344 620l-105 142l20 15l105 -142z" />
    <glyph glyph-name="uniF761" unicode="&#xf761;" horiz-adv-x="558" 
d="M5 0l262 563h25l261 -563h-28l-82 176h-328l-82 -176h-28zM279 531l-153 -330h306z" />
    <glyph glyph-name="uniF762" unicode="&#xf762;" horiz-adv-x="568" 
d="M70 0v560h225q204 0 204 -137q0 -50 -28.5 -85t-80.5 -50q61 -8 96.5 -42.5t35.5 -91.5q0 -154 -219 -154h-233zM305 274h-210v-250h209q99 0 146 31.5t47 98.5q0 120 -192 120zM295 536h-200v-237h212q78 0 122.5 32.5t44.5 91.5q0 113 -179 113z" />
    <glyph glyph-name="uniF763" unicode="&#xf763;" 
d="M539 97l16 -19q-33 -38 -89.5 -61.5t-122.5 -23.5q-138 0 -222.5 80t-84.5 207q0 122 81.5 204.5t212.5 82.5q73 0 128.5 -25t87.5 -58l-14 -21q-77 79 -202 79q-120 0 -194.5 -74t-74.5 -188q0 -117 77 -189.5t205 -72.5q125 0 196 79z" />
    <glyph glyph-name="uniF764" unicode="&#xf764;" horiz-adv-x="600" 
d="M70 0v560h179q161 0 237.5 -76t76.5 -196q0 -127 -81.5 -207.5t-237.5 -80.5h-174zM247 535h-152v-510h148q146 0 220.5 74t74.5 189q0 111 -71 179t-220 68z" />
    <glyph glyph-name="uniF765" unicode="&#xf765;" horiz-adv-x="538" 
d="M70 0v560h408v-25h-383v-238h359v-25h-359v-247h393v-25h-418z" />
    <glyph glyph-name="uniF766" unicode="&#xf766;" horiz-adv-x="511" 
d="M70 0v560h405v-25h-380v-255h353v-25h-353v-255h-25z" />
    <glyph glyph-name="uniF767" unicode="&#xf767;" horiz-adv-x="596" 
d="M359 236v25h200v-189q-91 -79 -219 -79q-133 0 -218.5 79t-85.5 208q0 120 88 203.5t211 83.5q131 0 210 -73l-14 -21q-67 69 -191 69q-121 0 -200 -74t-79 -188q0 -117 79 -189.5t201 -72.5q114 0 193 66v152h-175z" />
    <glyph glyph-name="uniF768" unicode="&#xf768;" horiz-adv-x="631" 
d="M536 0v274h-441v-274h-25v560h25v-261h441v261h25v-560h-25z" />
    <glyph glyph-name="uniF769" unicode="&#xf769;" horiz-adv-x="187" 
d="M81 0v560h25v-560h-25z" />
    <glyph glyph-name="uniF76A" unicode="&#xf76a;" horiz-adv-x="413" 
d="M341 560v-397q0 -80 -47.5 -125t-127.5 -45q-99 0 -164 96l20 16q54 -87 145 -87q68 0 108.5 37t40.5 111v394h25z" />
    <glyph glyph-name="uniF76B" unicode="&#xf76b;" horiz-adv-x="530" 
d="M70 0v560h25v-314l367 314h38l-302 -259l326 -301h-37l-309 284l-83 -71v-213h-25z" />
    <glyph glyph-name="uniF76C" unicode="&#xf76c;" horiz-adv-x="487" 
d="M70 0v560h25v-535h383v-25h-408z" />
    <glyph glyph-name="uniF76D" unicode="&#xf76d;" horiz-adv-x="698" 
d="M70 0v560h25l254 -323l254 323h25v-560h-25v520l-254 -324l-254 324v-520h-25z" />
    <glyph glyph-name="uniF76E" unicode="&#xf76e;" horiz-adv-x="622" 
d="M552 0h-25l-432 521v-521h-25v560h25l432 -521v521h25v-560z" />
    <glyph glyph-name="uniF76F" unicode="&#xf76f;" horiz-adv-x="668" 
d="M36 280q0 121 86 204t212 83q125 0 211 -81.5t86 -205.5q0 -123 -86 -205t-211 -82q-126 0 -212 81.5t-86 205.5zM61 280q0 -110 80 -186t193 -76q116 0 194 75.5t78 186.5q0 112 -79 187t-193 75t-193.5 -75t-79.5 -187z" />
    <glyph glyph-name="uniF770" unicode="&#xf770;" horiz-adv-x="548" 
d="M95 0h-25v560h211q231 0 231 -161q0 -72 -55.5 -118t-176.5 -46h-185v-235zM285 535h-190v-275h183q209 0 209 139q0 136 -202 136z" />
    <glyph glyph-name="uniF771" unicode="&#xf771;" horiz-adv-x="668" 
d="M36 280q0 121 86 204t212 83q125 0 211 -81.5t86 -205.5q0 -139 -108 -224l68 -76l-19 -16l-70 78q-76 -49 -168 -49q-126 0 -212 81.5t-86 205.5zM61 280q0 -110 80 -186t193 -76q85 0 152 42l-57 65l19 16l58 -66q100 76 100 205q0 112 -79 187t-193 75t-193.5 -75
t-79.5 -187z" />
    <glyph glyph-name="uniF772" unicode="&#xf772;" horiz-adv-x="568" 
d="M95 0h-25v560h215q221 0 221 -153q0 -134 -174 -157l215 -250h-33l-211 246h-208v-246zM285 535h-190v-264h191q88 0 141.5 34t53.5 102q0 128 -196 128z" />
    <glyph glyph-name="uniF773" unicode="&#xf773;" horiz-adv-x="523" 
d="M450 145q0 24 -10.5 42.5t-24 30t-41.5 21.5t-46.5 14.5t-54.5 11.5q-114 23 -153 44q-70 39 -71 114q0 61 60 102.5t154 41.5q125 0 196 -68l-14 -19q-71 62 -184 62q-73 0 -130 -30.5t-57 -89.5q0 -26 11.5 -46.5t27.5 -33t45.5 -23t51 -15.5t58.5 -13q7 -1 10 -2
q37 -7 59.5 -13t52 -17.5t45.5 -25.5t28 -36.5t12 -51.5q0 -67 -59 -109.5t-146 -42.5q-75 0 -137.5 28.5t-94.5 71.5l18 18q26 -36 81.5 -64.5t133.5 -28.5q71 0 125 34.5t54 92.5z" />
    <glyph glyph-name="uniF774" unicode="&#xf774;" horiz-adv-x="476" 
d="M3 535v25h471v-25h-223v-535h-25v535h-223z" />
    <glyph glyph-name="uniF775" unicode="&#xf775;" horiz-adv-x="607" 
d="M61 233v327h25v-320q0 -105 57.5 -163.5t159.5 -58.5t159.5 58.5t57.5 163.5v320h25v-327q0 -121 -72 -180.5t-170 -59.5t-170 59.5t-72 180.5z" />
    <glyph glyph-name="uniF776" unicode="&#xf776;" horiz-adv-x="594" 
d="M284 0l-282 560h28l267 -530l267 530h28l-283 -560h-25z" />
    <glyph glyph-name="uniF777" unicode="&#xf777;" horiz-adv-x="812" 
d="M808 560l-189 -560h-25l-188 521l-189 -521h-25l-188 560h27l174 -519l189 519h25l187 -519l175 519h27z" />
    <glyph glyph-name="uniF778" unicode="&#xf778;" horiz-adv-x="523" 
d="M493 560l-216 -275l225 -285h-32l-209 265l-208 -265h-32l224 285l-215 275h32l199 -254l200 254h32z" />
    <glyph glyph-name="uniF779" unicode="&#xf779;" horiz-adv-x="503" 
d="M501 560l-237 -314v-246h-25v246l-237 314h31l218 -289l219 289h31z" />
    <glyph glyph-name="uniF77A" unicode="&#xf77a;" horiz-adv-x="533" 
d="M31 535v25h476v-25l-460 -510h469v-25h-502v25l458 510h-441z" />
    <glyph glyph-name="uniF7A1" unicode="&#xf7a1;" horiz-adv-x="264" 
d="M119 0v409h25v-409h-25zM108 536q0 11 7 18.5t17 7.5q11 0 18 -7.5t7 -18.5t-7.5 -19t-17.5 -8t-17 8t-7 19z" />
    <glyph glyph-name="uniF7A8" unicode="&#xf7a8;" horiz-adv-x="449" 
d="M147 693q0 11 6.5 18.5t16.5 7.5t16.5 -7.5t6.5 -18.5t-6.5 -18.5t-16.5 -7.5t-16.5 7.5t-6.5 18.5zM403 693q0 11 6.5 18.5t16.5 7.5t16.5 -7.5t6.5 -18.5t-6.5 -18.5t-16.5 -7.5t-16.5 7.5t-6.5 18.5z" />
    <glyph glyph-name="uniF7AF" unicode="&#xf7af;" horiz-adv-x="441" 
d="M197 664v25h244v-25h-244z" />
    <glyph glyph-name="uniF7B4" unicode="&#xf7b4;" horiz-adv-x="438" 
d="M438 762l-105 -142l-20 15l105 142z" />
    <glyph glyph-name="uniF7B8" unicode="&#xf7b8;" horiz-adv-x="441" 
d="M262 -180l8 23q31 -16 70 -16q75 0 75 50q0 21 -19 33.5t-52 12.5q-16 0 -23 -1v78h25v-54q46 1 70 -19t24 -50q0 -32 -25 -53.5t-75 -21.5q-46 0 -78 18z" />
    <glyph glyph-name="uniF7BF" unicode="&#xf7bf;" horiz-adv-x="381" 
d="M56 127q0 -49 37 -79t98 -30q91 0 140 70l20 -15q-59 -80 -160 -80q-74 0 -117 39t-43 95q0 34 16 62.5t33.5 44t51.5 40.5q42 30 58.5 51t16.5 51q0 17 -4 34h25q4 -16 4 -34q0 -39 -19 -63t-69 -60q-20 -15 -30.5 -23.5t-26.5 -25t-23.5 -36t-7.5 -41.5zM235 536
q0 -11 -7 -19t-17 -8t-17.5 8t-7.5 19t7 18.5t18 7.5q10 0 17 -7.5t7 -18.5z" />
    <glyph glyph-name="uniF7E0" unicode="&#xf7e0;" horiz-adv-x="558" 
d="M5 0l262 563h25l261 -563h-28l-82 176h-328l-82 -176h-28zM279 531l-153 -330h306zM270 620l-105 142l20 15l105 -142z" />
    <glyph glyph-name="uniF7E1" unicode="&#xf7e1;" horiz-adv-x="558" 
d="M5 0l262 563h25l261 -563h-28l-82 176h-328l-82 -176h-28zM279 531l-153 -330h306zM392 762l-105 -142l-20 15l105 142z" />
    <glyph glyph-name="uniF7E2" unicode="&#xf7e2;" horiz-adv-x="558" 
d="M5 0l262 563h25l261 -563h-28l-82 176h-328l-82 -176h-28zM279 531l-153 -330h306zM279 769l132 -118l-17 -19l-115 104l-115 -104l-17 19z" />
    <glyph glyph-name="uniF7E3" unicode="&#xf7e3;" horiz-adv-x="558" 
d="M5 0l262 563h25l261 -563h-28l-82 176h-328l-82 -176h-28zM279 531l-153 -330h306zM214 705q24 0 65 -24l11 -7q36 -22 54 -22q37 0 67 42l18 -17q-37 -50 -85 -50q-24 0 -65 24l-11 7q-36 22 -54 22q-37 0 -67 -42l-18 17q37 50 85 50z" />
    <glyph glyph-name="uniF7E4" unicode="&#xf7e4;" horiz-adv-x="558" 
d="M5 0l262 563h25l261 -563h-28l-82 176h-328l-82 -176h-28zM279 531l-153 -330h306zM128 693q0 11 6.5 18.5t16.5 7.5t16.5 -7.5t6.5 -18.5t-6.5 -18.5t-16.5 -7.5t-16.5 7.5t-6.5 18.5zM384 693q0 11 6.5 18.5t16.5 7.5t16.5 -7.5t6.5 -18.5t-6.5 -18.5t-16.5 -7.5
t-16.5 7.5t-6.5 18.5z" />
    <glyph glyph-name="uniF7E5" unicode="&#xf7e5;" horiz-adv-x="558" 
d="M5 0l262 563h25l261 -563h-28l-82 176h-328l-82 -176h-28zM279 531l-153 -330h306zM198 693q0 35 23.5 59.5t57.5 24.5t57.5 -24.5t23.5 -59.5t-23.5 -59t-57.5 -24t-57.5 24t-23.5 59zM223 693q0 -25 16.5 -41.5t39.5 -16.5t39.5 16.5t16.5 41.5t-16.5 42t-39.5 17
t-39.5 -17t-16.5 -42z" />
    <glyph glyph-name="uniF7E6" unicode="&#xf7e6;" horiz-adv-x="914" 
d="M449 0v176h-275l-141 -176h-33l449 560h408v-25h-383v-238h359v-25h-359v-247h393v-25h-418zM194 201h255v319z" />
    <glyph glyph-name="uniF7E7" unicode="&#xf7e7;" 
d="M264 -180l8 23q31 -16 70 -16q75 0 75 50q0 21 -19 33.5t-52 12.5q-16 0 -23 -1v72q-130 5 -208.5 84.5t-78.5 201.5t81.5 204.5t212.5 82.5q73 0 128.5 -25t87.5 -58l-14 -21q-77 79 -202 79q-120 0 -194.5 -74t-74.5 -188q0 -117 77 -189.5t205 -72.5q125 0 196 79
l16 -19q-32 -37 -87.5 -60.5t-119.5 -24.5v-47q46 1 70 -19t24 -50q0 -32 -25 -53.5t-75 -21.5q-46 0 -78 18z" />
    <glyph glyph-name="uniF7E8" unicode="&#xf7e8;" horiz-adv-x="538" 
d="M70 0v560h408v-25h-383v-238h359v-25h-359v-247h393v-25h-418zM301 620l-105 142l20 15l105 -142z" />
    <glyph glyph-name="uniF7E9" unicode="&#xf7e9;" horiz-adv-x="538" 
d="M70 0v560h408v-25h-383v-238h359v-25h-359v-247h393v-25h-418zM362 762l-105 -142l-20 15l105 142z" />
    <glyph glyph-name="uniF7EA" unicode="&#xf7ea;" horiz-adv-x="538" 
d="M70 0v560h408v-25h-383v-238h359v-25h-359v-247h393v-25h-418zM282 769l132 -118l-17 -19l-115 104l-115 -104l-17 19z" />
    <glyph glyph-name="uniF7EB" unicode="&#xf7eb;" horiz-adv-x="538" 
d="M70 0v560h408v-25h-383v-238h359v-25h-359v-247h393v-25h-418zM122 693q0 11 6.5 18.5t16.5 7.5t16.5 -7.5t6.5 -18.5t-6.5 -18.5t-16.5 -7.5t-16.5 7.5t-6.5 18.5zM378 693q0 11 6.5 18.5t16.5 7.5t16.5 -7.5t6.5 -18.5t-6.5 -18.5t-16.5 -7.5t-16.5 7.5t-6.5 18.5z" />
    <glyph glyph-name="uniF7EC" unicode="&#xf7ec;" horiz-adv-x="187" 
d="M81 0v560h25v-560h-25zM89 620l-105 142l20 15l105 -142z" />
    <glyph glyph-name="uniF7ED" unicode="&#xf7ed;" horiz-adv-x="187" 
d="M81 0v560h25v-560h-25zM196 762l-105 -142l-20 15l105 142z" />
    <glyph glyph-name="uniF7EE" unicode="&#xf7ee;" horiz-adv-x="187" 
d="M81 0v560h25v-560h-25zM93 769l132 -118l-17 -19l-115 104l-115 -104l-17 19z" />
    <glyph glyph-name="uniF7EF" unicode="&#xf7ef;" horiz-adv-x="187" 
d="M81 0v560h25v-560h-25zM-58 693q0 11 6.5 18.5t16.5 7.5t16.5 -7.5t6.5 -18.5t-6.5 -18.5t-16.5 -7.5t-16.5 7.5t-6.5 18.5zM198 693q0 11 6.5 18.5t16.5 7.5t16.5 -7.5t6.5 -18.5t-6.5 -18.5t-16.5 -7.5t-16.5 7.5t-6.5 18.5z" />
    <glyph glyph-name="uniF7F0" unicode="&#xf7f0;" horiz-adv-x="643" 
d="M2 264v25h111v271h179q161 0 237.5 -76t76.5 -196q0 -127 -81.5 -207.5t-237.5 -80.5h-174v264h-111zM290 535h-152v-246h188v-25h-188v-239h148q146 0 220.5 74t74.5 189q0 111 -71 179t-220 68z" />
    <glyph glyph-name="uniF7F1" unicode="&#xf7f1;" horiz-adv-x="622" 
d="M552 0h-25l-432 521v-521h-25v560h25l432 -521v521h25v-560zM246 705q24 0 65 -24l11 -7q36 -22 54 -22q37 0 67 42l18 -17q-37 -50 -85 -50q-24 0 -65 24l-11 7q-36 22 -54 22q-37 0 -67 -42l-18 17q37 50 85 50z" />
    <glyph glyph-name="uniF7F2" unicode="&#xf7f2;" horiz-adv-x="668" 
d="M36 280q0 121 86 204t212 83q125 0 211 -81.5t86 -205.5q0 -123 -86 -205t-211 -82q-126 0 -212 81.5t-86 205.5zM61 280q0 -110 80 -186t193 -76q116 0 194 75.5t78 186.5q0 112 -79 187t-193 75t-193.5 -75t-79.5 -187zM339 620l-105 142l20 15l105 -142z" />
    <glyph glyph-name="uniF7F3" unicode="&#xf7f3;" horiz-adv-x="668" 
d="M36 280q0 121 86 204t212 83q125 0 211 -81.5t86 -205.5q0 -123 -86 -205t-211 -82q-126 0 -212 81.5t-86 205.5zM61 280q0 -110 80 -186t193 -76q116 0 194 75.5t78 186.5q0 112 -79 187t-193 75t-193.5 -75t-79.5 -187zM418 762l-105 -142l-20 15l105 142z" />
    <glyph glyph-name="uniF7F4" unicode="&#xf7f4;" horiz-adv-x="668" 
d="M36 280q0 121 86 204t212 83q125 0 211 -81.5t86 -205.5q0 -123 -86 -205t-211 -82q-126 0 -212 81.5t-86 205.5zM61 280q0 -110 80 -186t193 -76q116 0 194 75.5t78 186.5q0 112 -79 187t-193 75t-193.5 -75t-79.5 -187zM334 769l132 -118l-17 -19l-115 104l-115 -104
l-17 19z" />
    <glyph glyph-name="uniF7F5" unicode="&#xf7f5;" horiz-adv-x="668" 
d="M36 280q0 121 86 204t212 83q125 0 211 -81.5t86 -205.5q0 -123 -86 -205t-211 -82q-126 0 -212 81.5t-86 205.5zM61 280q0 -110 80 -186t193 -76q116 0 194 75.5t78 186.5q0 112 -79 187t-193 75t-193.5 -75t-79.5 -187zM269 705q24 0 65 -24l11 -7q36 -22 54 -22
q37 0 67 42l18 -17q-37 -50 -85 -50q-24 0 -65 24l-11 7q-36 22 -54 22q-37 0 -67 -42l-18 17q37 50 85 50z" />
    <glyph glyph-name="uniF7F6" unicode="&#xf7f6;" horiz-adv-x="668" 
d="M36 280q0 121 86 204t212 83q125 0 211 -81.5t86 -205.5q0 -123 -86 -205t-211 -82q-126 0 -212 81.5t-86 205.5zM61 280q0 -110 80 -186t193 -76q116 0 194 75.5t78 186.5q0 112 -79 187t-193 75t-193.5 -75t-79.5 -187zM183 693q0 11 6.5 18.5t16.5 7.5t16.5 -7.5
t6.5 -18.5t-6.5 -18.5t-16.5 -7.5t-16.5 7.5t-6.5 18.5zM439 693q0 11 6.5 18.5t16.5 7.5t16.5 -7.5t6.5 -18.5t-6.5 -18.5t-16.5 -7.5t-16.5 7.5t-6.5 18.5z" />
    <glyph glyph-name="uniF7F8" unicode="&#xf7f8;" horiz-adv-x="668" 
d="M36 280q0 121 86 204t212 83q98 0 176 -54l39 46l20 -16l-39 -45q101 -85 101 -218q0 -123 -86 -205t-211 -82q-102 0 -183 57l-42 -50l-19 16l42 49q-96 83 -96 215zM606 280q0 121 -92 198l-346 -407q72 -53 166 -53q116 0 194 75.5t78 186.5zM61 280q0 -117 88 -194
l345 408q-72 48 -160 48q-114 0 -193.5 -75t-79.5 -187z" />
    <glyph glyph-name="uniF7F9" unicode="&#xf7f9;" horiz-adv-x="607" 
d="M61 233v327h25v-320q0 -105 57.5 -163.5t159.5 -58.5t159.5 58.5t57.5 163.5v320h25v-327q0 -121 -72 -180.5t-170 -59.5t-170 59.5t-72 180.5zM299 620l-105 142l20 15l105 -142z" />
    <glyph glyph-name="uniF7FA" unicode="&#xf7fa;" horiz-adv-x="607" 
d="M61 233v327h25v-320q0 -105 57.5 -163.5t159.5 -58.5t159.5 58.5t57.5 163.5v320h25v-327q0 -121 -72 -180.5t-170 -59.5t-170 59.5t-72 180.5zM396 762l-105 -142l-20 15l105 142z" />
    <glyph glyph-name="uniF7FB" unicode="&#xf7fb;" horiz-adv-x="607" 
d="M61 233v327h25v-320q0 -105 57.5 -163.5t159.5 -58.5t159.5 58.5t57.5 163.5v320h25v-327q0 -121 -72 -180.5t-170 -59.5t-170 59.5t-72 180.5zM303 769l132 -118l-17 -19l-115 104l-115 -104l-17 19z" />
    <glyph glyph-name="uniF7FC" unicode="&#xf7fc;" horiz-adv-x="607" 
d="M61 233v327h25v-320q0 -105 57.5 -163.5t159.5 -58.5t159.5 58.5t57.5 163.5v320h25v-327q0 -121 -72 -180.5t-170 -59.5t-170 59.5t-72 180.5zM152 693q0 11 6.5 18.5t16.5 7.5t16.5 -7.5t6.5 -18.5t-6.5 -18.5t-16.5 -7.5t-16.5 7.5t-6.5 18.5zM408 693q0 11 6.5 18.5
t16.5 7.5t16.5 -7.5t6.5 -18.5t-6.5 -18.5t-16.5 -7.5t-16.5 7.5t-6.5 18.5z" />
    <glyph glyph-name="uniF7FD" unicode="&#xf7fd;" horiz-adv-x="503" 
d="M501 560l-237 -314v-246h-25v246l-237 314h31l218 -289l219 289h31zM345 762l-105 -142l-20 15l105 142z" />
    <glyph glyph-name="uniF7FE" unicode="&#xf7fe;" horiz-adv-x="548" 
d="M95 0h-25v560h25v-100h182q235 0 235 -160q0 -74 -56 -119.5t-180 -45.5h-181v-135zM281 435h-186v-275h179q213 0 213 140q0 135 -206 135z" />
    <glyph glyph-name="uniF7FF" unicode="&#xf7ff;" horiz-adv-x="503" 
d="M501 560l-237 -314v-246h-25v246l-237 314h31l218 -289l219 289h31zM101 693q0 11 6.5 18.5t16.5 7.5t16.5 -7.5t6.5 -18.5t-6.5 -18.5t-16.5 -7.5t-16.5 7.5t-6.5 18.5zM357 693q0 11 6.5 18.5t16.5 7.5t16.5 -7.5t6.5 -18.5t-6.5 -18.5t-16.5 -7.5t-16.5 7.5t-6.5 18.5
z" />
    <glyph glyph-name="uniFE56" unicode="&#xfe56;" horiz-adv-x="381" 
d="M326 433q0 49 -37 79t-98 30q-91 0 -140 -70l-20 15q59 80 160 80q74 0 117 -39t43 -95q0 -34 -16 -62.5t-33.5 -44t-51.5 -40.5q-42 -30 -58.5 -51t-16.5 -51q0 -17 4 -34h-25q-4 16 -4 34q0 39 19 63t69 60q20 15 30.5 23.5t26.5 25t23.5 36t7.5 41.5zM147 24
q0 11 7 19t17 8t17.5 -8t7.5 -19t-7 -18.5t-18 -7.5q-10 0 -17 7.5t-7 18.5z" />
    <glyph glyph-name="uniFE57" unicode="&#xfe57;" horiz-adv-x="264" 
d="M119 151v409h25v-409h-25zM108 24q0 11 7 19t17 8t17.5 -8t7.5 -19t-7 -18.5t-18 -7.5q-10 0 -17 7.5t-7 18.5z" />
    <glyph glyph-name="uniFEFF" unicode="&#xfeff;" horiz-adv-x="0" 
 />
    <glyph glyph-name="nbspace" horiz-adv-x="300" 
 />
    <glyph glyph-name="caron.l" horiz-adv-x="177" 
d="M109 737h28q11 -33 11 -59q0 -37 -20.5 -69.5t-45.5 -50.5l-15 20q26 18 41 45.5t15 54.5q0 33 -14 59z" />
    <glyph glyph-name="caron.lsmall" horiz-adv-x="177" 
d="M109 560h28q11 -33 11 -59q0 -37 -20.5 -69.5t-45.5 -50.5l-15 20q26 18 41 45.5t15 54.5q0 33 -14 59z" />
    <glyph glyph-name="a.ss02" horiz-adv-x="602" 
d="M501 0v105q-22 -47 -77.5 -81.5t-124.5 -34.5q-120 0 -190 74t-70 198q0 117 77 194.5t192 77.5q66 0 117.5 -29t75.5 -64v80h25v-520h-25zM299 14q71 0 123.5 37.5t78.5 100.5v245q-29 51 -80.5 81t-113.5 30q-109 0 -176 -72t-67 -176q0 -118 64.5 -182t170.5 -64z" />
    <glyph glyph-name="amacron.ss02" horiz-adv-x="602" 
d="M501 0v105q-22 -47 -77.5 -81.5t-124.5 -34.5q-120 0 -190 74t-70 198q0 117 77 194.5t192 77.5q66 0 117.5 -29t75.5 -64v80h25v-520h-25zM299 14q71 0 123.5 37.5t78.5 100.5v245q-29 51 -80.5 81t-113.5 30q-109 0 -176 -72t-67 -176q0 -118 64.5 -182t170.5 -64z
M199 669v25h244v-25h-244z" />
    <glyph glyph-name="agrave.ss02" horiz-adv-x="602" 
d="M501 0v105q-22 -47 -77.5 -81.5t-124.5 -34.5q-120 0 -190 74t-70 198q0 117 77 194.5t192 77.5q66 0 117.5 -29t75.5 -64v80h25v-520h-25zM299 14q71 0 123.5 37.5t78.5 100.5v245q-29 51 -80.5 81t-113.5 30q-109 0 -176 -72t-67 -176q0 -118 64.5 -182t170.5 -64z
M271 781l105 -141l-20 -15l-105 141z" />
    <glyph glyph-name="aring.ss02" horiz-adv-x="602" 
d="M501 0v105q-22 -47 -77.5 -81.5t-124.5 -34.5q-120 0 -190 74t-70 198q0 117 77 194.5t192 77.5q66 0 117.5 -29t75.5 -64v80h25v-520h-25zM299 14q71 0 123.5 37.5t78.5 100.5v245q-29 51 -80.5 81t-113.5 30q-109 0 -176 -72t-67 -176q0 -118 64.5 -182t170.5 -64z
M251 701q0 35 23.5 59.5t57.5 24.5t57.5 -24.5t23.5 -59.5t-23.5 -59t-57.5 -24t-57.5 24t-23.5 59zM276 701q0 -25 16.5 -41.5t39.5 -16.5t39.5 16.5t16.5 41.5t-16.5 42t-39.5 17t-39.5 -17t-16.5 -42z" />
    <glyph glyph-name="aogonek.ss02" horiz-adv-x="602" 
d="M534 -168l5 -24q-21 -8 -44 -8q-36 0 -64.5 21t-28.5 66q0 42 27.5 75.5t71.5 52.5v90q-22 -47 -77.5 -81.5t-124.5 -34.5q-120 0 -190 74t-70 198q0 117 77 194.5t192 77.5q66 0 117.5 -29t75.5 -64v80h25v-520q-39 -10 -69 -43t-30 -70q0 -29 19 -45.5t51 -16.5
q23 0 37 7zM299 14q71 0 123.5 37.5t78.5 100.5v245q-29 51 -80.5 81t-113.5 30q-109 0 -176 -72t-67 -176q0 -118 64.5 -182t170.5 -64z" />
    <glyph glyph-name="atilde.ss02" horiz-adv-x="602" 
d="M501 0v105q-22 -47 -77.5 -81.5t-124.5 -34.5q-120 0 -190 74t-70 198q0 117 77 194.5t192 77.5q66 0 117.5 -29t75.5 -64v80h25v-520h-25zM299 14q71 0 123.5 37.5t78.5 100.5v245q-29 51 -80.5 81t-113.5 30q-109 0 -176 -72t-67 -176q0 -118 64.5 -182t170.5 -64z
M252 712q24 0 65 -24l11 -7q36 -22 54 -22q37 0 67 42l18 -17q-37 -50 -85 -50q-24 0 -65 24l-11 7q-36 22 -54 22q-37 0 -67 -42l-18 17q37 50 85 50z" />
    <glyph glyph-name="adieresis.ss02" horiz-adv-x="602" 
d="M501 0v105q-22 -47 -77.5 -81.5t-124.5 -34.5q-120 0 -190 74t-70 198q0 117 77 194.5t192 77.5q66 0 117.5 -29t75.5 -64v80h25v-520h-25zM299 14q71 0 123.5 37.5t78.5 100.5v245q-29 51 -80.5 81t-113.5 30q-109 0 -176 -72t-67 -176q0 -118 64.5 -182t170.5 -64z
M160 703q0 11 6.5 18.5t16.5 7.5t17 -7.5t7 -18.5t-7 -18.5t-17 -7.5t-16.5 7.5t-6.5 18.5zM415 703q0 11 6.5 18.5t16.5 7.5t17 -7.5t7 -18.5t-7 -18.5t-17 -7.5t-16.5 7.5t-6.5 18.5z" />
    <glyph glyph-name="acircumflex.ss02" horiz-adv-x="602" 
d="M501 0v105q-22 -47 -77.5 -81.5t-124.5 -34.5q-120 0 -190 74t-70 198q0 117 77 194.5t192 77.5q66 0 117.5 -29t75.5 -64v80h25v-520h-25zM299 14q71 0 123.5 37.5t78.5 100.5v245q-29 51 -80.5 81t-113.5 30q-109 0 -176 -72t-67 -176q0 -118 64.5 -182t170.5 -64z
M433 637l-115 103l-115 -103l-17 19l132 119l132 -119z" />
    </font>
</defs>
</svg>
