<?xml version="1.0" encoding="utf-8"?>
<!-- Generator: Adobe Illustrator 21.0.0, SVG Export Plug-In . SVG Version: 6.00 Build 0)  -->
<svg version="1.1" id="Слой_1" xmlns="http://www.w3.org/2000/svg" xmlns:xlink="http://www.w3.org/1999/xlink" x="0px" y="0px"
	 viewBox="0 0 274 159" style="enable-background:new 0 0 274 159;" xml:space="preserve">
<style type="text/css">
	.st0{fill:#55A512;}
	.st1{fill:#1EAD1E;}
	.st2{fill:#070707;}
	.st3{fill:#000200;}
	.st4{fill:#020202;}
	.st5{fill:#060706;}
</style>
<g transform="translate(0.000000,159.000000) scale(0.100000,-0.100000)">
	<path class="st0" d="M308,1541c-18-21-47-77-65-122c-17-46-55-142-83-214c-28-71-69-177-90-235c-22-58-44-113-50-122
		c-17-30-11-55,21-82c23-20,38-25,61-21c17,3,35,8,39,11c4,2,22,41,39,87c18,45,37,88,42,95c8,9,54,12,168,12s160-3,167-12
		c5-7,22-46,38-86c33-85,65-116,109-108c75,15,71,73-17,296c-214,538-215,540-298,540C346,1580,338,1576,308,1541z M457,1526
		c30-33,104-223,116-296c3-19,3-29,0-22c-2,6-9,10-14,7c-5-4-6,2-3,12s-1,7-9-6c-14-23-15-23-25-5c-10,17-11,17-12,2
		c0-40-21-15-45,52c-1,3-7,16-13,30s-18,42-26,63c-18,45-44,58-60,31c-6-10-24-51-41-89c-35-83-65-129-65-102c0,10-4,15-10,12
		c-5-3-10-1-10,6s-8,2-19-9c-25-30-30-28-22,11c9,38,86,248,102,280c21,38,50,57,89,57C420,1560,434,1553,457,1526z M448,1240
		c28-74,53-143,57-152c7-17-3-18-114-18c-67,0-121,3-121,6c0,6,51,150,92,262c11,30,24,50,28,45C395,1379,421,1314,448,1240z"/>
	<path class="st1" d="M2589,1554c-24-25-24-27-23-227c4-600,1-535,29-563c19-19,31-23,52-18c66,16,63-2,63,416v380l-22,19
		C2656,1587,2618,1585,2589,1554z M2676,1546c11-11,14-45,13-148c-1-73-5-144-10-158c-7-21-8-19-4,13c3,33,2,36-11,22
		c-19-19-25-19-18,0c4,8,1,15-5,15s-11-8-11-17c0-15-2-16-10-3c-8,12-10,10-10-10l-1-25l-10,23c-16,41-16,245,0,275
		S2652,1569,2676,1546z"/>
	<path class="st1" d="M896,1335c-25-25-29-74-24-309c4-239,10-266,58-281c30-9,79,13,85,39c2,11,6,91,9,176c2,85,9,171,15,191
		c14,46,47,76,92,84c30,5,41,2,65-18l29-25l6-199c3-109,9-206,13-215c16-35,87-44,115-14c18,19,21,37,24,197c3,131,8,182,20,204
		c30,59,80,85,126,66c50-21,55-40,59-253c5-223,8-233,79-231c53,2,63,22,64,122c0,47,2,133,4,191c6,147-6,200-55,244
		c-43,39-87,51-160,44c-45-5-72-18-146-73c-9-6-19-1-35,19c-29,37-76,56-139,56c-58,0-102-16-146-53c-32-27-44-26-44,3
		C1010,1343,929,1367,896,1335z M1276,1310c26-11,44-23,41-26c-3-4,1-13,9-22c14-13,14-17,1-30c-8-8-20-11-27-7c-9,6-9,9,0,15
		c8,5,9,10,2,14c-6,4-18-6-26-21s-15-22-16-15c0,8-6,12-12,9c-7-2-22,3-33,13c-29,25-74,30-120,15c-52-19-65-4-23,26
		C1143,1332,1203,1341,1276,1310z M1604,1314c9-8,20-13,25-9c5,3,21-6,36-19l26-25l-21-11c-16-8-30-9-52-1c-39,14-51,14-43,1
		c4-6,11-8,16-5c5,4,9,1,9-4c0-14-3-14-35,1c-17,7-21,14-14,19c6,4-8,5-32,3c-66-5-76-8-100-30l-22-19l19,30l18,30l-23-20l-24-20
		l12,23c6,12,19,22,27,22c9,0,12,5,8,13c-4,6-3,9,1,4c5-4,15-1,24,7C1491,1332,1580,1338,1604,1314z"/>
	<path class="st1" d="M2018,1339c-54-15-115-73-130-121c-11-39-11-42,16-64c15-13,34-24,42-24c9,0,39,24,68,54c56,59,95,74,164,63
		c45-8,82-47,82-87c0-34,8-30-169-69c-76-17-145-38-160-49c-87-64-96-179-19-248c41-38,71-47,145-46c58,0,85,6,133,29
		c33,15,60,31,60,35c0,19,28,5,56-29c23-27,38-36,62-36c58,0,75,35,52,113c-6,19-11,100-11,180c0,182-13,230-77,275
		c-42,29-48,30-160,32C2107,1348,2039,1344,2018,1339z M2302,1304c29-15,37-25,37-44c0-22-1-23-8-6c-5,14-10,16-15,8c-4-7-12-9-18-6
		c-6,4-17-1-24-10c-8-12-14-14-19-5c-4,6-3,14,3,18s-8,8-31,10c-106,9-175,3-195-16c-15-15-42-17-42-4c0,16-38,19-45,3
		c-3-8-8-12-12-9c-8,9,17,38,28,31c5-3,9-1,9,4c0,9,57,37,95,46C2112,1336,2265,1322,2302,1304z M2260,989c0-66-27-111-84-138
		c-63-31-101-28-142,13c-19,19-34,43-34,54c0,45,75,87,190,107c19,3,36,8,39,11c2,2,10,4,18,4C2256,1040,2260,1025,2260,989z"/>
	<path class="st2" d="M1463,640c-46-28-64-61-70-127c-5-70,15-116,67-151c30-21,44-23,105-20c46,2,79,10,98,22c24,16,27,24,27,77
		s-2,59-23,64c-27,7-104,1-113-8c-15-15,8-36,43-39c30-2,39-8,41-24c4-28-16-43-71-50c-43-6-49-4-82,29c-31,31-35,41-35,87
		s4,56,34,86c47,47,87,47,132-2c38-43,67-41,62,3C1671,652,1537,685,1463,640z"/>
	<path class="st3" d="M1855,572c-11-2-23-9-27-16c-5-8-11-7-20,2c-17,17-45,15-52-5c-13-33-4-193,11-209c27-27,43,1,43,75
		c0,87,18,116,66,106c29-5,34-3,34,14C1910,563,1884,578,1855,572z"/>
	<path d="M2217,566c-19-19-13-170,8-202s61-38,100-15l34,19l15-21c15-22,16-22,31-3c22,29,21,198-1,221c-29,29-44,1-44-80
		c0-78-15-105-58-105c-31,0-42,29-42,108C2260,565,2245,593,2217,566z"/>
	<path class="st4" d="M1960,541c-53-52-52-131,1-175c30-25,38-28,79-28c44,0,53,3,81,31c25,26,29,37,29,86s-4,60-29,86
		c-25,25-37,29-81,29C1997,570,1984,565,1960,541z M2075,515c46-45,24-135-32-135c-41,0-63,27-63,76c0,34,5,47,26,63
		C2040,546,2046,545,2075,515z"/>
	<path class="st5" d="M2487,563c-9-8-9-280-1-310c4-13,12-23,19-23c16,0,25,32,25,88c0,43,14,54,37,31c30-30,103-7,128,41
		c29,56,11,145-34,170c-27,14-77,13-101-2c-15-10-22-10-32,0C2515,571,2497,574,2487,563z"/>
</g>
</svg>
